%TF.GenerationSoftware,KiCad,Pcbnew,9.0.7*%
%TF.CreationDate,2026-03-18T00:02:03-06:00*%
%TF.ProjectId,ScartPCB,53636172-7450-4434-922e-6b696361645f,1.0*%
%TF.SameCoordinates,PX76bb820PY7641700*%
%TF.FileFunction,Copper,L3,Inr*%
%TF.FilePolarity,Positive*%
%FSLAX46Y46*%
G04 Gerber Fmt 4.6, Leading zero omitted, Abs format (unit mm)*
G04 Created by KiCad (PCBNEW 9.0.7) date 2026-03-18 00:02:03*
%MOMM*%
%LPD*%
G01*
G04 APERTURE LIST*
%TA.AperFunction,ViaPad*%
%ADD10C,0.800000*%
%TD*%
G04 APERTURE END LIST*
D10*
%TO.N,GND*%
X6868800Y2308600D03*
X14742800Y12290800D03*
X38500000Y6000000D03*
X15750736Y2487405D03*
X30592400Y17066000D03*
X4841014Y8298785D03*
X21000000Y8500000D03*
X28154000Y18590000D03*
X28458800Y15999200D03*
X24315961Y8792350D03*
X36000000Y9000000D03*
X30490800Y7515600D03*
X17740000Y12748000D03*
X28000000Y12000000D03*
X6868800Y4112000D03*
X8500000Y5788400D03*
X29170000Y18082000D03*
X31000000Y2500000D03*
X16470000Y13256000D03*
X6132200Y1419600D03*
X6132200Y3248400D03*
X17000000Y8100000D03*
X37806000Y7160000D03*
X23376588Y2528022D03*
X21993553Y13823923D03*
X8500000Y10500000D03*
X24500000Y14000000D03*
X30000000Y9500000D03*
X34000000Y8500000D03*
%TO.N,+5V*%
X29957400Y15059400D03*
X15993448Y10812048D03*
X30440000Y14094200D03*
X31379800Y14551400D03*
X24248564Y10163403D03*
X30973400Y15491200D03*
X11850000Y10700000D03*
%TO.N,AL*%
X27722200Y2359400D03*
X26503000Y12875000D03*
%TO.N,AR*%
X35342200Y2359400D03*
X27900000Y13129000D03*
%TO.N,Net-(CC1-Pad1)*%
X11000000Y7000000D03*
%TO.N,Net-(CC1-Pad2)*%
X8500000Y9000000D03*
%TD*%
%TA.AperFunction,Conductor*%
%TO.N,GND*%
G36*
X29531669Y20932945D02*
G01*
X29558610Y20901344D01*
X36957619Y8569663D01*
X36994609Y8508014D01*
X36994611Y8508011D01*
X36999500Y8499862D01*
X36999500Y8499793D01*
X36999602Y8499691D01*
X36999701Y8499526D01*
X36999788Y8499505D01*
X36999793Y8499500D01*
X36999807Y8499500D01*
X37002135Y8498927D01*
X37009769Y8499500D01*
X39373500Y8499500D01*
X39441621Y8479498D01*
X39488114Y8425842D01*
X39499500Y8373500D01*
X39499500Y126500D01*
X39479498Y58379D01*
X39425842Y11886D01*
X39373500Y500D01*
X126500Y500D01*
X58379Y20502D01*
X11886Y74158D01*
X500Y126500D01*
X500Y2448882D01*
X26813700Y2448882D01*
X26813700Y2448879D01*
X26813700Y2269921D01*
X26848613Y2094400D01*
X26917098Y1929064D01*
X27016522Y1780265D01*
X27143065Y1653722D01*
X27291864Y1554298D01*
X27457200Y1485813D01*
X27632721Y1450900D01*
X27632722Y1450900D01*
X27811678Y1450900D01*
X27811679Y1450900D01*
X27987200Y1485813D01*
X28152536Y1554298D01*
X28301335Y1653722D01*
X28427878Y1780265D01*
X28527302Y1929064D01*
X28595787Y2094400D01*
X28630700Y2269921D01*
X28630700Y2448879D01*
X28630699Y2448882D01*
X34433700Y2448882D01*
X34433700Y2448879D01*
X34433700Y2269921D01*
X34468613Y2094400D01*
X34537098Y1929064D01*
X34636522Y1780265D01*
X34763065Y1653722D01*
X34911864Y1554298D01*
X35077200Y1485813D01*
X35252721Y1450900D01*
X35252722Y1450900D01*
X35431678Y1450900D01*
X35431679Y1450900D01*
X35607200Y1485813D01*
X35772536Y1554298D01*
X35921335Y1653722D01*
X36047878Y1780265D01*
X36147302Y1929064D01*
X36215787Y2094400D01*
X36250700Y2269921D01*
X36250700Y2448879D01*
X36215787Y2624400D01*
X36147302Y2789736D01*
X36047878Y2938535D01*
X35921335Y3065078D01*
X35772536Y3164502D01*
X35655629Y3212927D01*
X35607203Y3232986D01*
X35607201Y3232987D01*
X35607200Y3232987D01*
X35518845Y3250562D01*
X35431681Y3267900D01*
X35431679Y3267900D01*
X35252721Y3267900D01*
X35252718Y3267900D01*
X35121971Y3241893D01*
X35077200Y3232987D01*
X35077199Y3232987D01*
X35077196Y3232986D01*
X34911862Y3164501D01*
X34763069Y3065081D01*
X34763062Y3065076D01*
X34636524Y2938538D01*
X34636519Y2938531D01*
X34537099Y2789738D01*
X34468614Y2624404D01*
X34433700Y2448882D01*
X28630699Y2448882D01*
X28595787Y2624400D01*
X28527302Y2789736D01*
X28427878Y2938535D01*
X28301335Y3065078D01*
X28152536Y3164502D01*
X28035629Y3212927D01*
X27987203Y3232986D01*
X27987201Y3232987D01*
X27987200Y3232987D01*
X27898845Y3250562D01*
X27811681Y3267900D01*
X27811679Y3267900D01*
X27632721Y3267900D01*
X27632718Y3267900D01*
X27501971Y3241893D01*
X27457200Y3232987D01*
X27457199Y3232987D01*
X27457196Y3232986D01*
X27291862Y3164501D01*
X27143069Y3065081D01*
X27143062Y3065076D01*
X27016524Y2938538D01*
X27016519Y2938531D01*
X26917099Y2789738D01*
X26848614Y2624404D01*
X26813700Y2448882D01*
X500Y2448882D01*
X500Y6920013D01*
X20502Y6988134D01*
X72475Y7033843D01*
X189714Y7089482D01*
X10091500Y7089482D01*
X10091500Y7089479D01*
X10091500Y6910521D01*
X10126413Y6735000D01*
X10194898Y6569664D01*
X10294322Y6420865D01*
X10420865Y6294322D01*
X10569664Y6194898D01*
X10735000Y6126413D01*
X10910521Y6091500D01*
X10910522Y6091500D01*
X11089478Y6091500D01*
X11089479Y6091500D01*
X11265000Y6126413D01*
X11430336Y6194898D01*
X11579135Y6294322D01*
X11705678Y6420865D01*
X11805102Y6569664D01*
X11873587Y6735000D01*
X11908500Y6910521D01*
X11908500Y7089479D01*
X11873587Y7265000D01*
X11805102Y7430336D01*
X11705678Y7579135D01*
X11579135Y7705678D01*
X11430336Y7805102D01*
X11313429Y7853527D01*
X11265003Y7873586D01*
X11265001Y7873587D01*
X11265000Y7873587D01*
X11176645Y7891162D01*
X11089481Y7908500D01*
X11089479Y7908500D01*
X10910521Y7908500D01*
X10910518Y7908500D01*
X10779771Y7882493D01*
X10735000Y7873587D01*
X10734999Y7873587D01*
X10734996Y7873586D01*
X10569662Y7805101D01*
X10420869Y7705681D01*
X10420862Y7705676D01*
X10294324Y7579138D01*
X10294319Y7579131D01*
X10194899Y7430338D01*
X10126414Y7265004D01*
X10091500Y7089482D01*
X189714Y7089482D01*
X4404000Y9089482D01*
X7591500Y9089482D01*
X7591500Y9089479D01*
X7591500Y8910521D01*
X7626413Y8735000D01*
X7694898Y8569664D01*
X7794322Y8420865D01*
X7920865Y8294322D01*
X8069664Y8194898D01*
X8235000Y8126413D01*
X8410521Y8091500D01*
X8410522Y8091500D01*
X8589478Y8091500D01*
X8589479Y8091500D01*
X8765000Y8126413D01*
X8930336Y8194898D01*
X9079135Y8294322D01*
X9205678Y8420865D01*
X9305102Y8569664D01*
X9373587Y8735000D01*
X9408500Y8910521D01*
X9408500Y9089479D01*
X9373587Y9265000D01*
X9305102Y9430336D01*
X9205678Y9579135D01*
X9079135Y9705678D01*
X8930336Y9805102D01*
X8813429Y9853527D01*
X8765003Y9873586D01*
X8765001Y9873587D01*
X8765000Y9873587D01*
X8676645Y9891162D01*
X8589481Y9908500D01*
X8589479Y9908500D01*
X8410521Y9908500D01*
X8410518Y9908500D01*
X8279771Y9882493D01*
X8235000Y9873587D01*
X8234999Y9873587D01*
X8234996Y9873586D01*
X8069662Y9805101D01*
X7920869Y9705681D01*
X7920862Y9705676D01*
X7794324Y9579138D01*
X7794319Y9579131D01*
X7694899Y9430338D01*
X7626414Y9265004D01*
X7591500Y9089482D01*
X4404000Y9089482D01*
X7986143Y10789482D01*
X10941500Y10789482D01*
X10941500Y10610519D01*
X10976414Y10434997D01*
X10996473Y10386571D01*
X11044898Y10269664D01*
X11144322Y10120865D01*
X11270865Y9994322D01*
X11419664Y9894898D01*
X11585000Y9826413D01*
X11760521Y9791500D01*
X11760522Y9791500D01*
X11939478Y9791500D01*
X11939479Y9791500D01*
X12115000Y9826413D01*
X12280336Y9894898D01*
X12429135Y9994322D01*
X12555678Y10120865D01*
X12655102Y10269664D01*
X12723587Y10435000D01*
X12758500Y10610521D01*
X12758500Y10789479D01*
X12742667Y10869079D01*
X12739871Y10883136D01*
X12736212Y10901530D01*
X15084948Y10901530D01*
X15084948Y10901527D01*
X15084948Y10722569D01*
X15119861Y10547048D01*
X15188346Y10381712D01*
X15287770Y10232913D01*
X15414313Y10106370D01*
X15563112Y10006946D01*
X15728448Y9938461D01*
X15903969Y9903548D01*
X15903970Y9903548D01*
X16082926Y9903548D01*
X16082927Y9903548D01*
X16258448Y9938461D01*
X16423784Y10006946D01*
X16572583Y10106370D01*
X16699126Y10232913D01*
X16712471Y10252885D01*
X23340064Y10252885D01*
X23340064Y10252882D01*
X23340064Y10073924D01*
X23374977Y9898403D01*
X23443462Y9733067D01*
X23542886Y9584268D01*
X23669429Y9457725D01*
X23818228Y9358301D01*
X23983564Y9289816D01*
X24159085Y9254903D01*
X24159086Y9254903D01*
X24338042Y9254903D01*
X24338043Y9254903D01*
X24513564Y9289816D01*
X24678900Y9358301D01*
X24827699Y9457725D01*
X24954242Y9584268D01*
X25053666Y9733067D01*
X25122151Y9898403D01*
X25157064Y10073924D01*
X25157064Y10252882D01*
X25122151Y10428403D01*
X25053666Y10593739D01*
X24954242Y10742538D01*
X24827699Y10869081D01*
X24678900Y10968505D01*
X24561993Y11016930D01*
X24513567Y11036989D01*
X24513565Y11036990D01*
X24513564Y11036990D01*
X24425209Y11054565D01*
X24338045Y11071903D01*
X24338043Y11071903D01*
X24159085Y11071903D01*
X24159082Y11071903D01*
X24028335Y11045896D01*
X23983564Y11036990D01*
X23983563Y11036990D01*
X23983560Y11036989D01*
X23818226Y10968504D01*
X23669433Y10869084D01*
X23669426Y10869079D01*
X23542888Y10742541D01*
X23542883Y10742534D01*
X23443463Y10593741D01*
X23374978Y10428407D01*
X23340064Y10252885D01*
X16712471Y10252885D01*
X16798550Y10381712D01*
X16867035Y10547048D01*
X16901948Y10722569D01*
X16901948Y10901527D01*
X16867035Y11077048D01*
X16798550Y11242384D01*
X16699126Y11391183D01*
X16572583Y11517726D01*
X16423784Y11617150D01*
X16306877Y11665575D01*
X16258451Y11685634D01*
X16258449Y11685635D01*
X16258448Y11685635D01*
X16170093Y11703210D01*
X16082929Y11720548D01*
X16082927Y11720548D01*
X15903969Y11720548D01*
X15903966Y11720548D01*
X15773219Y11694541D01*
X15728448Y11685635D01*
X15728447Y11685635D01*
X15728444Y11685634D01*
X15563110Y11617149D01*
X15414317Y11517729D01*
X15414310Y11517724D01*
X15287772Y11391186D01*
X15287767Y11391179D01*
X15188347Y11242386D01*
X15119862Y11077052D01*
X15084948Y10901530D01*
X12736212Y10901530D01*
X12734626Y10909501D01*
X12723587Y10965000D01*
X12655102Y11130336D01*
X12555678Y11279135D01*
X12429135Y11405678D01*
X12280336Y11505102D01*
X12163429Y11553527D01*
X12115003Y11573586D01*
X12115001Y11573587D01*
X12115000Y11573587D01*
X12026645Y11591162D01*
X11939481Y11608500D01*
X11939479Y11608500D01*
X11760521Y11608500D01*
X11760518Y11608500D01*
X11629771Y11582493D01*
X11585000Y11573587D01*
X11584999Y11573587D01*
X11584996Y11573586D01*
X11419662Y11505101D01*
X11270869Y11405681D01*
X11270862Y11405676D01*
X11144324Y11279138D01*
X11144319Y11279131D01*
X11044899Y11130338D01*
X10976414Y10965004D01*
X10941500Y10789482D01*
X7986143Y10789482D01*
X12569179Y12964482D01*
X25594500Y12964482D01*
X25594500Y12964479D01*
X25594500Y12785521D01*
X25629413Y12610000D01*
X25697898Y12444664D01*
X25797322Y12295865D01*
X25923865Y12169322D01*
X26072664Y12069898D01*
X26238000Y12001413D01*
X26413521Y11966500D01*
X26413522Y11966500D01*
X26592478Y11966500D01*
X26592479Y11966500D01*
X26768000Y12001413D01*
X26933336Y12069898D01*
X27082135Y12169322D01*
X27208678Y12295865D01*
X27232181Y12331042D01*
X27286655Y12376568D01*
X27357098Y12385417D01*
X27406945Y12365805D01*
X27469664Y12323898D01*
X27635000Y12255413D01*
X27810521Y12220500D01*
X27810522Y12220500D01*
X27989478Y12220500D01*
X27989479Y12220500D01*
X28165000Y12255413D01*
X28330336Y12323898D01*
X28479135Y12423322D01*
X28605678Y12549865D01*
X28705102Y12698664D01*
X28773587Y12864000D01*
X28808500Y13039521D01*
X28808500Y13218479D01*
X28773587Y13394000D01*
X28705102Y13559336D01*
X28605678Y13708135D01*
X28479135Y13834678D01*
X28330336Y13934102D01*
X28213429Y13982527D01*
X28165003Y14002586D01*
X28165001Y14002587D01*
X28165000Y14002587D01*
X28076645Y14020162D01*
X27989481Y14037500D01*
X27989479Y14037500D01*
X27810521Y14037500D01*
X27810518Y14037500D01*
X27679771Y14011493D01*
X27635000Y14002587D01*
X27634999Y14002587D01*
X27634996Y14002586D01*
X27469662Y13934101D01*
X27320869Y13834681D01*
X27320862Y13834676D01*
X27194324Y13708138D01*
X27194316Y13708129D01*
X27170817Y13672959D01*
X27116340Y13627432D01*
X27045897Y13618585D01*
X26996051Y13638197D01*
X26933336Y13680102D01*
X26816429Y13728527D01*
X26768003Y13748586D01*
X26768001Y13748587D01*
X26768000Y13748587D01*
X26679645Y13766162D01*
X26592481Y13783500D01*
X26592479Y13783500D01*
X26413521Y13783500D01*
X26413518Y13783500D01*
X26282771Y13757493D01*
X26238000Y13748587D01*
X26237999Y13748587D01*
X26237996Y13748586D01*
X26072662Y13680101D01*
X25923869Y13580681D01*
X25923862Y13580676D01*
X25797324Y13454138D01*
X25797319Y13454131D01*
X25697899Y13305338D01*
X25629414Y13140004D01*
X25594500Y12964482D01*
X12569179Y12964482D01*
X17172022Y15148882D01*
X29048900Y15148882D01*
X29048900Y15148879D01*
X29048900Y14969921D01*
X29083813Y14794400D01*
X29152298Y14629064D01*
X29251722Y14480265D01*
X29378265Y14353722D01*
X29475502Y14288751D01*
X29521029Y14234275D01*
X29531500Y14183986D01*
X29531500Y14004719D01*
X29537955Y13972270D01*
X29566413Y13829200D01*
X29634898Y13663864D01*
X29734322Y13515065D01*
X29860865Y13388522D01*
X30009664Y13289098D01*
X30175000Y13220613D01*
X30350521Y13185700D01*
X30350522Y13185700D01*
X30529478Y13185700D01*
X30529479Y13185700D01*
X30705000Y13220613D01*
X30870336Y13289098D01*
X31019135Y13388522D01*
X31145678Y13515065D01*
X31180975Y13567893D01*
X31193677Y13586901D01*
X31248153Y13632429D01*
X31298442Y13642900D01*
X31469278Y13642900D01*
X31469279Y13642900D01*
X31644800Y13677813D01*
X31810136Y13746298D01*
X31958935Y13845722D01*
X32085478Y13972265D01*
X32184902Y14121064D01*
X32253387Y14286400D01*
X32288300Y14461921D01*
X32288300Y14640879D01*
X32253387Y14816400D01*
X32184902Y14981736D01*
X32085478Y15130535D01*
X31958935Y15257078D01*
X31958933Y15257080D01*
X31958930Y15257082D01*
X31935542Y15272709D01*
X31890014Y15327186D01*
X31881427Y15395552D01*
X31881293Y15395565D01*
X31881351Y15396160D01*
X31881167Y15397629D01*
X31881893Y15401657D01*
X31881898Y15401716D01*
X31881900Y15401721D01*
X31881900Y15580679D01*
X31846987Y15756200D01*
X31778502Y15921536D01*
X31679078Y16070335D01*
X31552535Y16196878D01*
X31403736Y16296302D01*
X31286829Y16344727D01*
X31238403Y16364786D01*
X31238401Y16364787D01*
X31238400Y16364787D01*
X31150045Y16382362D01*
X31062881Y16399700D01*
X31062879Y16399700D01*
X30883921Y16399700D01*
X30883918Y16399700D01*
X30753171Y16373693D01*
X30708400Y16364787D01*
X30708399Y16364787D01*
X30708396Y16364786D01*
X30543062Y16296301D01*
X30394269Y16196881D01*
X30394267Y16196880D01*
X30267721Y16070335D01*
X30267718Y16070332D01*
X30228170Y16011144D01*
X30173692Y15965617D01*
X30103249Y15956770D01*
X30098825Y15957568D01*
X30046884Y15967900D01*
X30046879Y15967900D01*
X29867921Y15967900D01*
X29867918Y15967900D01*
X29737171Y15941893D01*
X29692400Y15932987D01*
X29692399Y15932987D01*
X29692396Y15932986D01*
X29527062Y15864501D01*
X29378269Y15765081D01*
X29378262Y15765076D01*
X29251724Y15638538D01*
X29251719Y15638531D01*
X29152299Y15489738D01*
X29083814Y15324404D01*
X29048900Y15148882D01*
X17172022Y15148882D01*
X29396546Y20950351D01*
X29466662Y20961486D01*
X29531669Y20932945D01*
G37*
%TD.AperFunction*%
%TD*%
M02*
