%TF.GenerationSoftware,KiCad,Pcbnew,9.0.7*%
%TF.CreationDate,2026-03-18T00:02:03-06:00*%
%TF.ProjectId,ScartPCB,53636172-7450-4434-922e-6b696361645f,1.0*%
%TF.SameCoordinates,PX76bb820PY7641700*%
%TF.FileFunction,Copper,L1,Top*%
%TF.FilePolarity,Positive*%
%FSLAX46Y46*%
G04 Gerber Fmt 4.6, Leading zero omitted, Abs format (unit mm)*
G04 Created by KiCad (PCBNEW 9.0.7) date 2026-03-18 00:02:03*
%MOMM*%
%LPD*%
G01*
G04 APERTURE LIST*
G04 Aperture macros list*
%AMRoundRect*
0 Rectangle with rounded corners*
0 $1 Rounding radius*
0 $2 $3 $4 $5 $6 $7 $8 $9 X,Y pos of 4 corners*
0 Add a 4 corners polygon primitive as box body*
4,1,4,$2,$3,$4,$5,$6,$7,$8,$9,$2,$3,0*
0 Add four circle primitives for the rounded corners*
1,1,$1+$1,$2,$3*
1,1,$1+$1,$4,$5*
1,1,$1+$1,$6,$7*
1,1,$1+$1,$8,$9*
0 Add four rect primitives between the rounded corners*
20,1,$1+$1,$2,$3,$4,$5,0*
20,1,$1+$1,$4,$5,$6,$7,0*
20,1,$1+$1,$6,$7,$8,$9,0*
20,1,$1+$1,$8,$9,$2,$3,0*%
G04 Aperture macros list end*
%TA.AperFunction,SMDPad,CuDef*%
%ADD10RoundRect,0.250000X0.350000X0.450000X-0.350000X0.450000X-0.350000X-0.450000X0.350000X-0.450000X0*%
%TD*%
%TA.AperFunction,SMDPad,CuDef*%
%ADD11RoundRect,0.250000X-0.350000X-0.450000X0.350000X-0.450000X0.350000X0.450000X-0.350000X0.450000X0*%
%TD*%
%TA.AperFunction,SMDPad,CuDef*%
%ADD12RoundRect,0.375000X-0.375000X-0.375000X0.375000X-0.375000X0.375000X0.375000X-0.375000X0.375000X0*%
%TD*%
%TA.AperFunction,SMDPad,CuDef*%
%ADD13RoundRect,0.250001X-0.507499X-0.944999X0.507499X-0.944999X0.507499X0.944999X-0.507499X0.944999X0*%
%TD*%
%TA.AperFunction,SMDPad,CuDef*%
%ADD14RoundRect,0.250000X-0.450000X0.350000X-0.450000X-0.350000X0.450000X-0.350000X0.450000X0.350000X0*%
%TD*%
%TA.AperFunction,SMDPad,CuDef*%
%ADD15RoundRect,0.571500X-0.276429X-0.759481X0.759481X-0.276429X0.276429X0.759481X-0.759481X0.276429X0*%
%TD*%
%TA.AperFunction,SMDPad,CuDef*%
%ADD16RoundRect,0.250000X-0.337500X-0.475000X0.337500X-0.475000X0.337500X0.475000X-0.337500X0.475000X0*%
%TD*%
%TA.AperFunction,SMDPad,CuDef*%
%ADD17RoundRect,0.250001X0.507499X0.944999X-0.507499X0.944999X-0.507499X-0.944999X0.507499X-0.944999X0*%
%TD*%
%TA.AperFunction,SMDPad,CuDef*%
%ADD18RoundRect,0.571500X-0.571500X-1.562000X0.571500X-1.562000X0.571500X1.562000X-0.571500X1.562000X0*%
%TD*%
%TA.AperFunction,ViaPad*%
%ADD19C,0.800000*%
%TD*%
%TA.AperFunction,Conductor*%
%ADD20C,0.350000*%
%TD*%
%TA.AperFunction,Conductor*%
%ADD21C,0.250000*%
%TD*%
G04 APERTURE END LIST*
D10*
%TO.P,RR1,1*%
%TO.N,R*%
X23000000Y10000000D03*
%TO.P,RR1,2*%
%TO.N,Net-(CR1-Pad1)*%
X21000000Y10000000D03*
%TD*%
D11*
%TO.P,RG2,1*%
%TO.N,G*%
X22000000Y12500000D03*
%TO.P,RG2,2*%
%TO.N,GND*%
X24000000Y12500000D03*
%TD*%
%TO.P,RB2,1*%
%TO.N,B*%
X26000000Y14500000D03*
%TO.P,RB2,2*%
%TO.N,GND*%
X28000000Y14500000D03*
%TD*%
D12*
%TO.P,JI13,1,Pin_1*%
%TO.N,GND*%
X3500000Y7000000D03*
%TD*%
D13*
%TO.P,CR1,1*%
%TO.N,Net-(CR1-Pad1)*%
X19372500Y7000000D03*
%TO.P,CR1,2*%
%TO.N,RED*%
X22627500Y7000000D03*
%TD*%
D11*
%TO.P,R8,1*%
%TO.N,Net-(CC1-Pad1)*%
X13000000Y7500000D03*
%TO.P,R8,2*%
%TO.N,GND*%
X15000000Y7500000D03*
%TD*%
D14*
%TO.P,RR2,1*%
%TO.N,R*%
X19000000Y11528800D03*
%TO.P,RR2,2*%
%TO.N,GND*%
X19000000Y9528800D03*
%TD*%
D10*
%TO.P,RB1,1*%
%TO.N,B*%
X34500000Y10000000D03*
%TO.P,RB1,2*%
%TO.N,Net-(CB1-Pad1)*%
X32500000Y10000000D03*
%TD*%
%TO.P,RG1,1*%
%TO.N,G*%
X27500000Y10000000D03*
%TO.P,RG1,2*%
%TO.N,Net-(CG1-Pad1)*%
X25500000Y10000000D03*
%TD*%
D15*
%TO.P,JI12,1,Pin_1*%
%TO.N,GND*%
X17105000Y13002000D03*
%TD*%
D13*
%TO.P,CB1,1*%
%TO.N,Net-(CB1-Pad1)*%
X32500000Y7000000D03*
%TO.P,CB1,2*%
%TO.N,BLUE*%
X35755000Y7000000D03*
%TD*%
D15*
%TO.P,JI2,1,Pin_1*%
%TO.N,G*%
X22872898Y15669000D03*
%TD*%
D16*
%TO.P,C0,1*%
%TO.N,+5V*%
X10962500Y10500000D03*
%TO.P,C0,2*%
%TO.N,GND*%
X13037500Y10500000D03*
%TD*%
D15*
%TO.P,JI5,1,Pin_1*%
%TO.N,+5V*%
X30694000Y14780000D03*
%TD*%
%TO.P,JI1,1,Pin_1*%
%TO.N,R*%
X19988949Y14335500D03*
%TD*%
%TO.P,JI9,1,Pin_1*%
%TO.N,GND*%
X28662000Y18336000D03*
%TD*%
D17*
%TO.P,CC1,1*%
%TO.N,Net-(CC1-Pad1)*%
X10000000Y7500000D03*
%TO.P,CC1,2*%
%TO.N,Net-(CC1-Pad2)*%
X6745000Y7500000D03*
%TD*%
D15*
%TO.P,JI3,1,Pin_1*%
%TO.N,B*%
X25756847Y17002500D03*
%TD*%
D13*
%TO.P,CG1,1*%
%TO.N,Net-(CG1-Pad1)*%
X25872500Y7000000D03*
%TO.P,CG1,2*%
%TO.N,GREEN*%
X29127500Y7000000D03*
%TD*%
D18*
%TO.P,J1,1,Pin_1*%
%TO.N,unconnected-(J1-Pin_1-Pad1)*%
X37247500Y2642500D03*
%TO.P,J1,3,Pin_3*%
%TO.N,unconnected-(J1-Pin_3-Pad3)*%
X33437500Y2642500D03*
%TO.P,J1,5,Pin_5*%
%TO.N,GND*%
X29627500Y2642500D03*
%TO.P,J1,7,Pin_7*%
%TO.N,BLUE*%
X25817500Y2642500D03*
%TO.P,J1,9,Pin_9*%
%TO.N,GND*%
X22007500Y2642500D03*
%TO.P,J1,11,Pin_11*%
%TO.N,GREEN*%
X18197500Y2642500D03*
%TO.P,J1,13,Pin_13*%
%TO.N,GND*%
X14387500Y2642500D03*
%TO.P,J1,15,Pin_15*%
%TO.N,RED*%
X10577500Y2642500D03*
%TO.P,J1,17,Pin_17*%
%TO.N,GND*%
X6767500Y2642500D03*
%TO.P,J1,19,Pin_19*%
%TO.N,unconnected-(J1-Pin_19-Pad19)*%
X2957500Y2642500D03*
%TD*%
D19*
%TO.N,GND*%
X6868800Y2308600D03*
X14742800Y12290800D03*
X38500000Y6000000D03*
X15750736Y2487405D03*
X30592400Y17066000D03*
X4841014Y8298785D03*
X21000000Y8500000D03*
X28154000Y18590000D03*
X28458800Y15999200D03*
X24315961Y8792350D03*
X36000000Y9000000D03*
X30490800Y7515600D03*
X17740000Y12748000D03*
X28000000Y12000000D03*
X6868800Y4112000D03*
X8500000Y5788400D03*
X29170000Y18082000D03*
X31000000Y2500000D03*
X16470000Y13256000D03*
X6132200Y1419600D03*
X6132200Y3248400D03*
X17000000Y8100000D03*
X37806000Y7160000D03*
X23376588Y2528022D03*
X21993553Y13823923D03*
X8500000Y10500000D03*
X24500000Y14000000D03*
X30000000Y9500000D03*
X34000000Y8500000D03*
%TO.N,+5V*%
X29957400Y15059400D03*
X15993448Y10812048D03*
X30440000Y14094200D03*
X31379800Y14551400D03*
X24248564Y10163403D03*
X30973400Y15491200D03*
X11850000Y10700000D03*
%TO.N,AL*%
X27722200Y2359400D03*
X26503000Y12875000D03*
%TO.N,AR*%
X35342200Y2359400D03*
X27900000Y13129000D03*
%TO.N,Net-(CC1-Pad1)*%
X11000000Y7000000D03*
%TO.N,Net-(CC1-Pad2)*%
X8500000Y9000000D03*
%TD*%
D20*
%TO.N,GND*%
X17000000Y8100000D02*
X17571200Y8100000D01*
X24000000Y13500000D02*
X24500000Y14000000D01*
X24000000Y12500000D02*
X24000000Y13500000D01*
X17571200Y8100000D02*
X19000000Y9528800D01*
X28000000Y14500000D02*
X28000000Y15540400D01*
X28000000Y15540400D02*
X28458800Y15999200D01*
%TO.N,+5V*%
X30962500Y14511500D02*
X30694000Y14780000D01*
X30492872Y14578872D02*
X30694000Y14780000D01*
D21*
%TO.N,BLUE*%
X28277000Y5102000D02*
X25817500Y2642500D01*
X33857000Y5102000D02*
X28277000Y5102000D01*
X35755000Y7000000D02*
X33857000Y5102000D01*
%TO.N,GREEN*%
X27229500Y5102000D02*
X20657000Y5102000D01*
X20657000Y5102000D02*
X18197500Y2642500D01*
X29127500Y7000000D02*
X27229500Y5102000D01*
%TO.N,RED*%
X19748514Y5102000D02*
X13037000Y5102000D01*
X21646514Y7000000D02*
X19748514Y5102000D01*
X22627500Y7000000D02*
X21646514Y7000000D01*
X13037000Y5102000D02*
X10577500Y2642500D01*
%TO.N,Net-(CB1-Pad1)*%
X32500000Y10000000D02*
X32500000Y7000000D01*
%TO.N,R*%
X21092714Y11528800D02*
X19000000Y11528800D01*
X23000000Y10000000D02*
X22621514Y10000000D01*
X22621514Y10000000D02*
X21092714Y11528800D01*
X19988949Y12488949D02*
X19000000Y11500000D01*
X19988949Y14335500D02*
X19988949Y12488949D01*
%TO.N,Net-(CG1-Pad1)*%
X25872500Y7000000D02*
X25872500Y9627500D01*
X25872500Y9627500D02*
X25500000Y10000000D01*
%TO.N,B*%
X25756847Y14743153D02*
X26000000Y14500000D01*
X27325280Y11026000D02*
X33474000Y11026000D01*
X25756847Y12594433D02*
X27325280Y11026000D01*
X25756847Y17002500D02*
X25756847Y12594433D01*
X33474000Y11026000D02*
X34500000Y10000000D01*
X25756847Y17002500D02*
X25756847Y14743153D01*
%TO.N,G*%
X22872898Y12500000D02*
X22872898Y12005588D01*
X22872898Y12500000D02*
X22000000Y12500000D01*
X22872898Y15669000D02*
X22872898Y12500000D01*
X22872898Y12005588D02*
X23852486Y11026000D01*
X26474000Y11026000D02*
X27500000Y10000000D01*
X23852486Y11026000D02*
X26474000Y11026000D01*
%TO.N,Net-(CR1-Pad1)*%
X20274000Y7901500D02*
X19372500Y7000000D01*
X20274000Y9274000D02*
X20274000Y7901500D01*
X21000000Y10000000D02*
X20274000Y9274000D01*
X19398732Y7000000D02*
X19372500Y7000000D01*
%TO.N,Net-(CC1-Pad1)*%
X11000000Y7000000D02*
X10500000Y7000000D01*
X10000000Y8000000D02*
X13000000Y8000000D01*
X10500000Y7000000D02*
X10000000Y7500000D01*
%TO.N,Net-(CC1-Pad2)*%
X8500000Y9000000D02*
X8245000Y9000000D01*
X8245000Y9000000D02*
X6745000Y7500000D01*
%TD*%
%TA.AperFunction,Conductor*%
%TO.N,GND*%
G36*
X29531669Y20932945D02*
G01*
X29558610Y20901344D01*
X35299289Y11333546D01*
X35317185Y11264842D01*
X35295096Y11197370D01*
X35240035Y11152550D01*
X35169484Y11144613D01*
X35151613Y11149115D01*
X35004427Y11197887D01*
X35004420Y11197888D01*
X34900553Y11208500D01*
X34900545Y11208500D01*
X34239594Y11208500D01*
X34171473Y11228502D01*
X34150499Y11245405D01*
X33877835Y11518069D01*
X33877833Y11518071D01*
X33774075Y11587400D01*
X33658785Y11635155D01*
X33585086Y11649815D01*
X33536396Y11659500D01*
X33536394Y11659500D01*
X27639874Y11659500D01*
X27571753Y11679502D01*
X27550779Y11696405D01*
X27169094Y12078090D01*
X27167359Y12081267D01*
X27164284Y12083175D01*
X27150472Y12112192D01*
X27135068Y12140402D01*
X27135326Y12144013D01*
X27133771Y12147280D01*
X27137839Y12179152D01*
X27140133Y12211217D01*
X27142437Y12215173D01*
X27142761Y12217705D01*
X27150627Y12229229D01*
X27161669Y12248179D01*
X27165200Y12252388D01*
X27208678Y12295865D01*
X27236008Y12336769D01*
X27240426Y12342033D01*
X27264483Y12358038D01*
X27286655Y12376568D01*
X27293659Y12377448D01*
X27299537Y12381358D01*
X27328427Y12381816D01*
X27357098Y12385417D01*
X27364788Y12382392D01*
X27370525Y12382482D01*
X27380864Y12376067D01*
X27406945Y12365805D01*
X27469664Y12323898D01*
X27635000Y12255413D01*
X27810521Y12220500D01*
X27810522Y12220500D01*
X27989478Y12220500D01*
X27989479Y12220500D01*
X28165000Y12255413D01*
X28330336Y12323898D01*
X28479135Y12423322D01*
X28605678Y12549865D01*
X28705102Y12698664D01*
X28773587Y12864000D01*
X28808500Y13039521D01*
X28808500Y13218479D01*
X28785462Y13334299D01*
X28791790Y13405009D01*
X28819946Y13447973D01*
X28948634Y13576661D01*
X29041657Y13727476D01*
X29075208Y13828725D01*
X29115622Y13887097D01*
X29181178Y13914353D01*
X29251064Y13901840D01*
X29303090Y13853530D01*
X29309006Y13842347D01*
X29473612Y13489348D01*
X29495694Y13448525D01*
X29620603Y13284395D01*
X29774318Y13146871D01*
X29951281Y13040922D01*
X30145098Y12970379D01*
X30145102Y12970379D01*
X30145103Y12970378D01*
X30348756Y12937792D01*
X30348762Y12937791D01*
X30554914Y12944334D01*
X30756100Y12989775D01*
X30799256Y13006853D01*
X31984652Y13559612D01*
X32025475Y13581694D01*
X32189605Y13706603D01*
X32327129Y13860318D01*
X32433078Y14037281D01*
X32503621Y14231098D01*
X32536209Y14434762D01*
X32529666Y14640914D01*
X32484225Y14842100D01*
X32467147Y14885256D01*
X31914388Y16070652D01*
X31892306Y16111475D01*
X31767397Y16275605D01*
X31613682Y16413129D01*
X31436719Y16519078D01*
X31436718Y16519079D01*
X31436717Y16519079D01*
X31315148Y16563326D01*
X31242902Y16589621D01*
X31242901Y16589622D01*
X31242896Y16589623D01*
X31039243Y16622209D01*
X31039238Y16622209D01*
X30867444Y16616757D01*
X30833085Y16615666D01*
X30631899Y16570225D01*
X30588744Y16553147D01*
X29403343Y16000386D01*
X29362526Y15978307D01*
X29362522Y15978304D01*
X29198397Y15853399D01*
X29060866Y15699677D01*
X28996350Y15591917D01*
X28944197Y15543745D01*
X28874279Y15531417D01*
X28822098Y15549400D01*
X28672525Y15641658D01*
X28504321Y15697394D01*
X28504318Y15697395D01*
X28400516Y15708000D01*
X28254000Y15708000D01*
X28254000Y14626000D01*
X28233998Y14557879D01*
X28180342Y14511386D01*
X28128000Y14500000D01*
X27872000Y14500000D01*
X27803879Y14520002D01*
X27757386Y14573658D01*
X27746000Y14626000D01*
X27746000Y15708000D01*
X27599483Y15708000D01*
X27495681Y15697395D01*
X27495678Y15697394D01*
X27327474Y15641658D01*
X27176660Y15548635D01*
X27176654Y15548630D01*
X27089449Y15461424D01*
X27081376Y15457016D01*
X27075863Y15449651D01*
X27050704Y15440268D01*
X27027137Y15427398D01*
X27017960Y15428055D01*
X27009343Y15424840D01*
X26983106Y15430548D01*
X26956322Y15432463D01*
X26947123Y15438375D01*
X26939969Y15439931D01*
X26911259Y15461424D01*
X26863122Y15509561D01*
X26829096Y15571873D01*
X26834161Y15642688D01*
X26876708Y15699524D01*
X26898968Y15712851D01*
X26942614Y15733204D01*
X27047499Y15782112D01*
X27088322Y15804194D01*
X27252452Y15929103D01*
X27389976Y16082818D01*
X27495925Y16259781D01*
X27566468Y16453598D01*
X27588911Y16593862D01*
X27619424Y16657966D01*
X27679751Y16695398D01*
X27750739Y16694272D01*
X27778051Y16682060D01*
X27919494Y16597378D01*
X28113228Y16526865D01*
X28316788Y16494293D01*
X28522849Y16500834D01*
X28522851Y16500834D01*
X28723943Y16546252D01*
X28723949Y16546254D01*
X28767080Y16563324D01*
X28767084Y16563326D01*
X29129540Y16732343D01*
X28466636Y18153944D01*
X28439031Y18213143D01*
X28999546Y18213143D01*
X29589944Y16947033D01*
X29952403Y17116048D01*
X29993201Y17138116D01*
X29993217Y17138126D01*
X30157264Y17262973D01*
X30294721Y17416614D01*
X30294723Y17416616D01*
X30400623Y17593498D01*
X30471135Y17787229D01*
X30503707Y17990786D01*
X30503707Y17990792D01*
X30497166Y18196850D01*
X30497166Y18196852D01*
X30451748Y18397944D01*
X30451746Y18397950D01*
X30434676Y18441081D01*
X30434674Y18441086D01*
X30265657Y18803542D01*
X28999546Y18213143D01*
X28439031Y18213143D01*
X28431798Y18228655D01*
X27734053Y19724970D01*
X27371596Y19555953D01*
X27330798Y19533885D01*
X27330782Y19533875D01*
X27166735Y19409028D01*
X27029278Y19255387D01*
X27029276Y19255385D01*
X26923376Y19078503D01*
X26852864Y18884772D01*
X26830482Y18744893D01*
X26799968Y18680789D01*
X26739640Y18643358D01*
X26668652Y18644485D01*
X26641343Y18656696D01*
X26499566Y18741578D01*
X26499565Y18741579D01*
X26499564Y18741579D01*
X26383890Y18783681D01*
X26305749Y18812121D01*
X26305748Y18812122D01*
X26305743Y18812123D01*
X26102090Y18844709D01*
X26102085Y18844709D01*
X25930291Y18839257D01*
X25895932Y18838166D01*
X25694746Y18792725D01*
X25651591Y18775647D01*
X24466190Y18222886D01*
X24425373Y18200807D01*
X24425369Y18200804D01*
X24261244Y18075899D01*
X24261242Y18075898D01*
X24261242Y18075897D01*
X24123718Y17922182D01*
X24123717Y17922180D01*
X24017768Y17745218D01*
X23947224Y17551398D01*
X23926720Y17423255D01*
X23896206Y17359151D01*
X23835878Y17321720D01*
X23764890Y17322847D01*
X23737582Y17335057D01*
X23615617Y17408078D01*
X23615616Y17408079D01*
X23615615Y17408079D01*
X23499941Y17450181D01*
X23421800Y17478621D01*
X23421799Y17478622D01*
X23421794Y17478623D01*
X23218141Y17511209D01*
X23218136Y17511209D01*
X23046342Y17505757D01*
X23011983Y17504666D01*
X22810797Y17459225D01*
X22767642Y17442147D01*
X21582241Y16889386D01*
X21541424Y16867307D01*
X21541420Y16867304D01*
X21377295Y16742399D01*
X21377293Y16742398D01*
X21377293Y16742397D01*
X21239769Y16588682D01*
X21239768Y16588680D01*
X21133819Y16411718D01*
X21063275Y16217898D01*
X21042771Y16089755D01*
X21012257Y16025651D01*
X20951929Y15988220D01*
X20880941Y15989347D01*
X20853633Y16001557D01*
X20731668Y16074578D01*
X20731667Y16074579D01*
X20731666Y16074579D01*
X20615992Y16116681D01*
X20537851Y16145121D01*
X20537850Y16145122D01*
X20537845Y16145123D01*
X20334192Y16177709D01*
X20334187Y16177709D01*
X20162393Y16172257D01*
X20128034Y16171166D01*
X19926848Y16125725D01*
X19883693Y16108647D01*
X18698292Y15555886D01*
X18657475Y15533807D01*
X18657471Y15533804D01*
X18493346Y15408899D01*
X18493344Y15408898D01*
X18493344Y15408897D01*
X18355820Y15255182D01*
X18355819Y15255180D01*
X18249870Y15078218D01*
X18179326Y14884398D01*
X18158737Y14755723D01*
X18128223Y14691619D01*
X18067895Y14654188D01*
X17996907Y14655315D01*
X17969597Y14667526D01*
X17847505Y14740623D01*
X17653771Y14811136D01*
X17450211Y14843708D01*
X17244150Y14837167D01*
X17244148Y14837167D01*
X17043056Y14791749D01*
X17043050Y14791747D01*
X16999942Y14774686D01*
X16999905Y14774670D01*
X16637458Y14605659D01*
X17281952Y13223540D01*
X17292613Y13153348D01*
X17263633Y13088536D01*
X17221007Y13056095D01*
X17104999Y13002000D01*
X17159094Y12885992D01*
X17169755Y12815801D01*
X17140775Y12750988D01*
X17098149Y12718548D01*
X15716030Y12074055D01*
X15814983Y11861852D01*
X15825644Y11791660D01*
X15796664Y11726848D01*
X15737244Y11687991D01*
X15731391Y11686528D01*
X15728448Y11685635D01*
X15563111Y11617150D01*
X15414317Y11517729D01*
X15414310Y11517724D01*
X15287772Y11391186D01*
X15287767Y11391179D01*
X15188347Y11242386D01*
X15119862Y11077052D01*
X15084948Y10901530D01*
X15084948Y10901527D01*
X15084948Y10722569D01*
X15119861Y10547048D01*
X15188346Y10381712D01*
X15287770Y10232913D01*
X15414313Y10106370D01*
X15563112Y10006946D01*
X15728448Y9938461D01*
X15903969Y9903548D01*
X15903970Y9903548D01*
X16082926Y9903548D01*
X16082927Y9903548D01*
X16258448Y9938461D01*
X16423784Y10006946D01*
X16572583Y10106370D01*
X16699126Y10232913D01*
X16798550Y10381712D01*
X16867035Y10547048D01*
X16901948Y10722569D01*
X16901948Y10901527D01*
X16878147Y11021183D01*
X16884475Y11091894D01*
X16928029Y11147961D01*
X16973967Y11168666D01*
X17166943Y11212252D01*
X17166949Y11212254D01*
X17210080Y11229324D01*
X17210084Y11229326D01*
X17612250Y11416859D01*
X17682441Y11427520D01*
X17747254Y11398540D01*
X17786111Y11339121D01*
X17791500Y11302665D01*
X17791500Y11128256D01*
X17802112Y11024375D01*
X17857885Y10856062D01*
X17950970Y10705148D01*
X17950975Y10705142D01*
X18038576Y10617541D01*
X18072602Y10555229D01*
X18067537Y10484414D01*
X18038576Y10439351D01*
X17951370Y10352146D01*
X17951365Y10352140D01*
X17858342Y10201326D01*
X17802606Y10033122D01*
X17802605Y10033119D01*
X17792000Y9929317D01*
X17792000Y9782800D01*
X18874000Y9782800D01*
X18942121Y9762798D01*
X18988614Y9709142D01*
X19000000Y9656800D01*
X19000000Y9400800D01*
X18979998Y9332679D01*
X18926342Y9286186D01*
X18874000Y9274800D01*
X17792000Y9274800D01*
X17792000Y9128284D01*
X17802605Y9024482D01*
X17802606Y9024479D01*
X17858342Y8856275D01*
X17951365Y8705461D01*
X17951370Y8705455D01*
X18076654Y8580171D01*
X18076660Y8580166D01*
X18178722Y8517213D01*
X18226200Y8464427D01*
X18237603Y8394352D01*
X18219816Y8343826D01*
X18172888Y8267744D01*
X18172885Y8267738D01*
X18117112Y8099422D01*
X18106500Y7995553D01*
X18106500Y6004448D01*
X18106499Y6004448D01*
X18117112Y5900577D01*
X18118553Y5893849D01*
X18117190Y5893558D01*
X18119368Y5830174D01*
X18083057Y5769165D01*
X18019527Y5737472D01*
X17997324Y5735500D01*
X12974603Y5735500D01*
X12901568Y5720972D01*
X12852215Y5711155D01*
X12852213Y5711155D01*
X12852212Y5711154D01*
X12736923Y5663399D01*
X12633171Y5594074D01*
X12633169Y5594073D01*
X12049067Y5009973D01*
X11986755Y4975948D01*
X11915939Y4981013D01*
X11870877Y5009974D01*
X11839753Y5041098D01*
X11668943Y5156705D01*
X11668940Y5156707D01*
X11668939Y5156707D01*
X11479339Y5237899D01*
X11277798Y5281741D01*
X11231473Y5284500D01*
X11231470Y5284500D01*
X9923530Y5284500D01*
X9923526Y5284500D01*
X9877201Y5281741D01*
X9675660Y5237899D01*
X9486060Y5156707D01*
X9486057Y5156705D01*
X9315246Y5041098D01*
X9315240Y5041093D01*
X9169407Y4895260D01*
X9169402Y4895254D01*
X9053795Y4724443D01*
X9053793Y4724440D01*
X8972601Y4534840D01*
X8928759Y4333299D01*
X8926000Y4286974D01*
X8926000Y998027D01*
X8928759Y951702D01*
X8972601Y750161D01*
X8972602Y750159D01*
X9053795Y560557D01*
X9169184Y390069D01*
X9169402Y389747D01*
X9169407Y389741D01*
X9315240Y243908D01*
X9315246Y243903D01*
X9315247Y243902D01*
X9334536Y230847D01*
X9379739Y176100D01*
X9388167Y105605D01*
X9357146Y41745D01*
X9296523Y4793D01*
X9263912Y500D01*
X8080195Y500D01*
X8012074Y20502D01*
X7965581Y74158D01*
X7955477Y144432D01*
X7984971Y209012D01*
X8009572Y230848D01*
X8029433Y244291D01*
X8029437Y244294D01*
X8175206Y390063D01*
X8175211Y390069D01*
X8290763Y560799D01*
X8290765Y560802D01*
X8371918Y750310D01*
X8415740Y951762D01*
X8418499Y998074D01*
X8418500Y998094D01*
X8418500Y2388500D01*
X5116500Y2388500D01*
X5116500Y998074D01*
X5119259Y951762D01*
X5163081Y750310D01*
X5244234Y560802D01*
X5244236Y560799D01*
X5359788Y390069D01*
X5359793Y390063D01*
X5505562Y244294D01*
X5505566Y244291D01*
X5525428Y230848D01*
X5570631Y176101D01*
X5579061Y105607D01*
X5548040Y41746D01*
X5487418Y4794D01*
X5454805Y500D01*
X4271088Y500D01*
X4202967Y20502D01*
X4156474Y74158D01*
X4146370Y144432D01*
X4175864Y209012D01*
X4200464Y230847D01*
X4219753Y243902D01*
X4365598Y389747D01*
X4481205Y560557D01*
X4562398Y750159D01*
X4606240Y951700D01*
X4609000Y998030D01*
X4609000Y4286927D01*
X5116500Y4286927D01*
X5116500Y2896500D01*
X6513500Y2896500D01*
X7021500Y2896500D01*
X8418500Y2896500D01*
X8418500Y4286907D01*
X8418499Y4286927D01*
X8415740Y4333239D01*
X8371918Y4534691D01*
X8290765Y4724199D01*
X8290763Y4724202D01*
X8175211Y4894932D01*
X8175206Y4894938D01*
X8029437Y5040707D01*
X8029431Y5040712D01*
X7858701Y5156264D01*
X7858698Y5156266D01*
X7669190Y5237419D01*
X7467738Y5281241D01*
X7421426Y5284000D01*
X7021500Y5284000D01*
X7021500Y2896500D01*
X6513500Y2896500D01*
X6513500Y5284000D01*
X6113573Y5284000D01*
X6067261Y5281241D01*
X5865809Y5237419D01*
X5676301Y5156266D01*
X5676298Y5156264D01*
X5505568Y5040712D01*
X5505562Y5040707D01*
X5359793Y4894938D01*
X5359788Y4894932D01*
X5244236Y4724202D01*
X5244234Y4724199D01*
X5163081Y4534691D01*
X5119259Y4333239D01*
X5116500Y4286927D01*
X4609000Y4286927D01*
X4609000Y4286970D01*
X4606240Y4333300D01*
X4562398Y4534841D01*
X4481205Y4724443D01*
X4365598Y4895253D01*
X4365597Y4895254D01*
X4365592Y4895260D01*
X4219759Y5041093D01*
X4219753Y5041098D01*
X4182734Y5066153D01*
X4048943Y5156705D01*
X4048940Y5156707D01*
X4048939Y5156707D01*
X3859339Y5237899D01*
X3657798Y5281741D01*
X3611473Y5284500D01*
X3611470Y5284500D01*
X2303530Y5284500D01*
X2303526Y5284500D01*
X2257201Y5281741D01*
X2055660Y5237899D01*
X1866060Y5156707D01*
X1866057Y5156705D01*
X1695246Y5041098D01*
X1695240Y5041093D01*
X1549407Y4895260D01*
X1549402Y4895254D01*
X1433795Y4724443D01*
X1433793Y4724440D01*
X1352601Y4534840D01*
X1308759Y4333299D01*
X1306000Y4286974D01*
X1306000Y998027D01*
X1308759Y951702D01*
X1352601Y750161D01*
X1352602Y750159D01*
X1433795Y560557D01*
X1549184Y390069D01*
X1549402Y389747D01*
X1549407Y389741D01*
X1695240Y243908D01*
X1695246Y243903D01*
X1695247Y243902D01*
X1714536Y230847D01*
X1759739Y176100D01*
X1768167Y105605D01*
X1737146Y41745D01*
X1676523Y4793D01*
X1643912Y500D01*
X126500Y500D01*
X58379Y20502D01*
X11886Y74158D01*
X500Y126500D01*
X500Y6563200D01*
X2242000Y6563200D01*
X2248068Y6486099D01*
X2296107Y6306819D01*
X2380374Y6141438D01*
X2380376Y6141435D01*
X2497185Y5997186D01*
X2641434Y5880377D01*
X2641437Y5880375D01*
X2806818Y5796108D01*
X2986098Y5748069D01*
X3063199Y5742000D01*
X3246000Y5742000D01*
X3754000Y5742000D01*
X3936801Y5742000D01*
X4013901Y5748069D01*
X4193181Y5796108D01*
X4358562Y5880375D01*
X4358565Y5880377D01*
X4502814Y5997186D01*
X4619623Y6141435D01*
X4619625Y6141438D01*
X4703892Y6306819D01*
X4751931Y6486099D01*
X4758000Y6563200D01*
X4758000Y6746000D01*
X3754000Y6746000D01*
X3754000Y5742000D01*
X3246000Y5742000D01*
X3246000Y6746000D01*
X2242000Y6746000D01*
X2242000Y6563200D01*
X500Y6563200D01*
X500Y6920013D01*
X20502Y6988134D01*
X72475Y7033843D01*
X2235429Y8060330D01*
X2305544Y8071465D01*
X2370551Y8042924D01*
X2409809Y7983769D01*
X2410853Y7912780D01*
X2387374Y7867210D01*
X2380381Y7858574D01*
X2380374Y7858563D01*
X2296107Y7693182D01*
X2248068Y7513902D01*
X2242000Y7436801D01*
X2242000Y7254000D01*
X3246000Y7254000D01*
X3754000Y7254000D01*
X4758000Y7254000D01*
X4758000Y7436801D01*
X4751931Y7513902D01*
X4703892Y7693182D01*
X4619625Y7858563D01*
X4619623Y7858566D01*
X4502814Y8002815D01*
X4358565Y8119624D01*
X4358562Y8119626D01*
X4193181Y8203893D01*
X4013901Y8251932D01*
X3936801Y8258000D01*
X3754000Y8258000D01*
X3754000Y7254000D01*
X3246000Y7254000D01*
X3246000Y8229416D01*
X3158734Y8269504D01*
X3151902Y8275450D01*
X3143211Y8278002D01*
X3125537Y8298399D01*
X3105182Y8316116D01*
X3102649Y8324813D01*
X3096718Y8331658D01*
X3092877Y8358372D01*
X3085332Y8384282D01*
X3087903Y8392967D01*
X3086614Y8401932D01*
X3097826Y8426483D01*
X3105487Y8452357D01*
X3112345Y8458273D01*
X3116108Y8466512D01*
X3157310Y8497832D01*
X3601215Y8708499D01*
X9955244Y11723971D01*
X10025360Y11735106D01*
X10090367Y11706565D01*
X10129625Y11647410D01*
X10130669Y11576421D01*
X10098360Y11521043D01*
X10025970Y11448653D01*
X9932885Y11297738D01*
X9877113Y11129428D01*
X9877112Y11129421D01*
X9866500Y11025554D01*
X9866500Y9974456D01*
X9877112Y9870575D01*
X9932885Y9702262D01*
X10025970Y9551348D01*
X10025975Y9551342D01*
X10156537Y9420780D01*
X10154880Y9419124D01*
X10189386Y9370388D01*
X10192572Y9299462D01*
X10156907Y9238074D01*
X10093715Y9205713D01*
X10070205Y9203500D01*
X9483252Y9203500D01*
X9415131Y9223502D01*
X9368638Y9277158D01*
X9366843Y9281281D01*
X9345553Y9332679D01*
X9305102Y9430336D01*
X9205678Y9579135D01*
X9079135Y9705678D01*
X8930336Y9805102D01*
X8772272Y9870575D01*
X8765003Y9873586D01*
X8765001Y9873587D01*
X8765000Y9873587D01*
X8676645Y9891162D01*
X8589481Y9908500D01*
X8589479Y9908500D01*
X8410521Y9908500D01*
X8410518Y9908500D01*
X8279771Y9882493D01*
X8235000Y9873587D01*
X8234999Y9873587D01*
X8234996Y9873586D01*
X8069662Y9805101D01*
X7920869Y9705681D01*
X7920862Y9705676D01*
X7794324Y9579138D01*
X7794319Y9579131D01*
X7694897Y9430336D01*
X7694895Y9430331D01*
X7644712Y9309181D01*
X7640006Y9302140D01*
X7638892Y9297015D01*
X7617399Y9268305D01*
X7563322Y9214228D01*
X7501010Y9180202D01*
X7434596Y9183718D01*
X7406922Y9192888D01*
X7406923Y9192888D01*
X7303052Y9203500D01*
X7303044Y9203500D01*
X6186956Y9203500D01*
X6186948Y9203500D01*
X6083078Y9192888D01*
X5914762Y9137115D01*
X5914760Y9137114D01*
X5763848Y9044030D01*
X5763842Y9044025D01*
X5638475Y8918658D01*
X5638470Y8918652D01*
X5545386Y8767740D01*
X5545385Y8767738D01*
X5489612Y8599422D01*
X5479000Y8495553D01*
X5479000Y6504448D01*
X5478999Y6504448D01*
X5489612Y6400579D01*
X5489612Y6400577D01*
X5489613Y6400575D01*
X5545385Y6232262D01*
X5601408Y6141435D01*
X5638470Y6081349D01*
X5638475Y6081343D01*
X5763842Y5955976D01*
X5763848Y5955971D01*
X5763849Y5955970D01*
X5914762Y5862885D01*
X6083075Y5807113D01*
X6111406Y5804219D01*
X6186948Y5796500D01*
X6186956Y5796500D01*
X7303052Y5796500D01*
X7372298Y5803576D01*
X7406925Y5807113D01*
X7575238Y5862885D01*
X7726151Y5955970D01*
X7851530Y6081349D01*
X7944615Y6232262D01*
X8000387Y6400575D01*
X8009125Y6486099D01*
X8011000Y6504448D01*
X8011000Y7817906D01*
X8019783Y7847822D01*
X8026412Y7878291D01*
X8030226Y7883388D01*
X8031002Y7886027D01*
X8047900Y7906997D01*
X8214333Y8073431D01*
X8276643Y8107454D01*
X8328008Y8107913D01*
X8410521Y8091500D01*
X8589478Y8091500D01*
X8589479Y8091500D01*
X8589479Y8091501D01*
X8595643Y8092107D01*
X8596060Y8087866D01*
X8645831Y8086903D01*
X8704803Y8047371D01*
X8733041Y7982232D01*
X8734000Y7966716D01*
X8734000Y6504448D01*
X8733999Y6504448D01*
X8744612Y6400579D01*
X8744612Y6400577D01*
X8744613Y6400575D01*
X8800385Y6232262D01*
X8856408Y6141435D01*
X8893470Y6081349D01*
X8893475Y6081343D01*
X9018842Y5955976D01*
X9018848Y5955971D01*
X9018849Y5955970D01*
X9169762Y5862885D01*
X9338075Y5807113D01*
X9366406Y5804219D01*
X9441948Y5796500D01*
X9441956Y5796500D01*
X10558052Y5796500D01*
X10627298Y5803576D01*
X10661925Y5807113D01*
X10830238Y5862885D01*
X10981151Y5955970D01*
X11096410Y6071230D01*
X11158720Y6105253D01*
X11160854Y6105698D01*
X11265000Y6126413D01*
X11430336Y6194898D01*
X11579135Y6294322D01*
X11705678Y6420865D01*
X11805102Y6569664D01*
X11811240Y6584484D01*
X11855786Y6639766D01*
X11923149Y6662189D01*
X11991941Y6644633D01*
X12034890Y6602417D01*
X12050968Y6576351D01*
X12050975Y6576342D01*
X12176341Y6450976D01*
X12176347Y6450971D01*
X12176348Y6450970D01*
X12327262Y6357885D01*
X12495574Y6302113D01*
X12599455Y6291500D01*
X13400544Y6291501D01*
X13504426Y6302113D01*
X13672738Y6357885D01*
X13823652Y6450970D01*
X13858781Y6486099D01*
X13911259Y6538576D01*
X13973571Y6572602D01*
X14044386Y6567537D01*
X14089449Y6538576D01*
X14176654Y6451371D01*
X14176660Y6451366D01*
X14327474Y6358343D01*
X14495678Y6302607D01*
X14495681Y6302606D01*
X14599483Y6292001D01*
X14599483Y6292000D01*
X14746000Y6292000D01*
X15254000Y6292000D01*
X15400517Y6292000D01*
X15400516Y6292001D01*
X15504318Y6302606D01*
X15504321Y6302607D01*
X15672525Y6358343D01*
X15823339Y6451366D01*
X15823345Y6451371D01*
X15948629Y6576655D01*
X15948634Y6576661D01*
X16041657Y6727475D01*
X16097393Y6895679D01*
X16097394Y6895682D01*
X16107999Y6999484D01*
X16108000Y6999484D01*
X16108000Y7246000D01*
X15254000Y7246000D01*
X15254000Y6292000D01*
X14746000Y6292000D01*
X14746000Y7754000D01*
X15254000Y7754000D01*
X16108000Y7754000D01*
X16108000Y8000517D01*
X16097394Y8104319D01*
X16097393Y8104322D01*
X16041657Y8272526D01*
X15948634Y8423340D01*
X15948629Y8423346D01*
X15823345Y8548630D01*
X15823339Y8548635D01*
X15672525Y8641658D01*
X15504321Y8697394D01*
X15504318Y8697395D01*
X15400516Y8708000D01*
X15254000Y8708000D01*
X15254000Y7754000D01*
X14746000Y7754000D01*
X14746000Y8708000D01*
X14599483Y8708000D01*
X14495681Y8697395D01*
X14495678Y8697394D01*
X14327474Y8641658D01*
X14176660Y8548635D01*
X14176654Y8548630D01*
X14089449Y8461424D01*
X14027137Y8427398D01*
X13956322Y8432463D01*
X13911259Y8461424D01*
X13823658Y8549025D01*
X13823652Y8549030D01*
X13794675Y8566903D01*
X13672738Y8642115D01*
X13577458Y8673687D01*
X13504427Y8697887D01*
X13504420Y8697888D01*
X13400553Y8708500D01*
X12599455Y8708500D01*
X12495574Y8697888D01*
X12402319Y8666987D01*
X12327262Y8642115D01*
X12327259Y8642114D01*
X12320565Y8639895D01*
X12280932Y8633500D01*
X11335082Y8633500D01*
X11266961Y8653502D01*
X11220468Y8707158D01*
X11215477Y8719867D01*
X11199615Y8767738D01*
X11106530Y8918651D01*
X11106529Y8918652D01*
X11106524Y8918658D01*
X10975962Y9049220D01*
X10977619Y9050878D01*
X10943116Y9099598D01*
X10939921Y9170523D01*
X10975578Y9231916D01*
X11038766Y9264285D01*
X11062288Y9266501D01*
X11350544Y9266501D01*
X11454426Y9277113D01*
X11622738Y9332885D01*
X11773652Y9425970D01*
X11899030Y9551348D01*
X11899037Y9551361D01*
X11901478Y9554446D01*
X11903709Y9556027D01*
X11904220Y9556537D01*
X11904307Y9556450D01*
X11959416Y9595479D01*
X12030340Y9598676D01*
X12091734Y9563020D01*
X12099161Y9554449D01*
X12101369Y9551656D01*
X12226654Y9426371D01*
X12226660Y9426366D01*
X12377474Y9333343D01*
X12545678Y9277607D01*
X12545681Y9277606D01*
X12649483Y9267001D01*
X12649483Y9267000D01*
X12783500Y9267000D01*
X13291500Y9267000D01*
X13425517Y9267000D01*
X13425516Y9267001D01*
X13529318Y9277606D01*
X13529321Y9277607D01*
X13697525Y9333343D01*
X13848339Y9426366D01*
X13848345Y9426371D01*
X13973629Y9551655D01*
X13973634Y9551661D01*
X14066657Y9702475D01*
X14122393Y9870679D01*
X14122394Y9870682D01*
X14132999Y9974484D01*
X14133000Y9974484D01*
X14133000Y10246000D01*
X13291500Y10246000D01*
X13291500Y9267000D01*
X12783500Y9267000D01*
X12783500Y10754000D01*
X13291500Y10754000D01*
X14133000Y10754000D01*
X14133000Y11025517D01*
X14122394Y11129319D01*
X14122393Y11129322D01*
X14066657Y11297526D01*
X13973634Y11448340D01*
X13973629Y11448346D01*
X13848345Y11573630D01*
X13848339Y11573635D01*
X13697525Y11666658D01*
X13529321Y11722394D01*
X13529318Y11722395D01*
X13425516Y11733000D01*
X13291500Y11733000D01*
X13291500Y10754000D01*
X12783500Y10754000D01*
X12783500Y11733000D01*
X12649483Y11733000D01*
X12545681Y11722395D01*
X12545678Y11722394D01*
X12377474Y11666658D01*
X12236593Y11579761D01*
X12168113Y11561024D01*
X12122227Y11570594D01*
X12115010Y11573584D01*
X12115000Y11573587D01*
X11939481Y11608500D01*
X11939479Y11608500D01*
X11760521Y11608500D01*
X11754332Y11608500D01*
X11754332Y11611223D01*
X11696116Y11622315D01*
X11687469Y11627189D01*
X11622739Y11667115D01*
X11454427Y11722887D01*
X11454420Y11722888D01*
X11350553Y11733500D01*
X10574453Y11733500D01*
X10538366Y11729813D01*
X10468566Y11742790D01*
X10416861Y11791443D01*
X10399669Y11860327D01*
X10422447Y11927570D01*
X10471539Y11968992D01*
X13375652Y13347215D01*
X15263292Y13347215D01*
X15263292Y13347209D01*
X15269833Y13141151D01*
X15269833Y13141149D01*
X15315251Y12940057D01*
X15315253Y12940051D01*
X15332323Y12896920D01*
X15332325Y12896915D01*
X15501340Y12534461D01*
X16767452Y13124859D01*
X16177053Y14390970D01*
X15814596Y14221953D01*
X15773798Y14199885D01*
X15773782Y14199875D01*
X15609735Y14075028D01*
X15472278Y13921387D01*
X15472276Y13921385D01*
X15366376Y13744503D01*
X15295864Y13550772D01*
X15263292Y13347215D01*
X13375652Y13347215D01*
X27266874Y19939659D01*
X28194458Y19939659D01*
X28784856Y18673549D01*
X30050968Y19263947D01*
X29881952Y19626404D01*
X29859884Y19667202D01*
X29859874Y19667218D01*
X29735027Y19831265D01*
X29581386Y19968722D01*
X29581384Y19968724D01*
X29404502Y20074624D01*
X29210771Y20145136D01*
X29007211Y20177708D01*
X28801150Y20171167D01*
X28801148Y20171167D01*
X28600056Y20125749D01*
X28600050Y20125747D01*
X28556942Y20108686D01*
X28556905Y20108670D01*
X28194458Y19939659D01*
X27266874Y19939659D01*
X29396546Y20950351D01*
X29466662Y20961486D01*
X29531669Y20932945D01*
G37*
%TD.AperFunction*%
%TA.AperFunction,Conductor*%
G36*
X16491206Y4448498D02*
G01*
X16537699Y4394842D01*
X16548862Y4335008D01*
X16548760Y4333302D01*
X16548760Y4333300D01*
X16547193Y4307000D01*
X16546000Y4286973D01*
X16546000Y998027D01*
X16548759Y951702D01*
X16592601Y750161D01*
X16592602Y750159D01*
X16673795Y560557D01*
X16789184Y390069D01*
X16789402Y389747D01*
X16789407Y389741D01*
X16935240Y243908D01*
X16935246Y243903D01*
X16935247Y243902D01*
X16954536Y230847D01*
X16999739Y176100D01*
X17008167Y105605D01*
X16977146Y41745D01*
X16916523Y4793D01*
X16883912Y500D01*
X15700195Y500D01*
X15632074Y20502D01*
X15585581Y74158D01*
X15575477Y144432D01*
X15604971Y209012D01*
X15629572Y230848D01*
X15649433Y244291D01*
X15649437Y244294D01*
X15795206Y390063D01*
X15795211Y390069D01*
X15910763Y560799D01*
X15910765Y560802D01*
X15991918Y750310D01*
X16035740Y951762D01*
X16038499Y998074D01*
X16038500Y998094D01*
X16038500Y2388500D01*
X12736500Y2388500D01*
X12736500Y998074D01*
X12739259Y951762D01*
X12783081Y750310D01*
X12864234Y560802D01*
X12864236Y560799D01*
X12979788Y390069D01*
X12979793Y390063D01*
X13125562Y244294D01*
X13125566Y244291D01*
X13145428Y230848D01*
X13190631Y176101D01*
X13199061Y105607D01*
X13168040Y41746D01*
X13107418Y4794D01*
X13074805Y500D01*
X11891088Y500D01*
X11822967Y20502D01*
X11776474Y74158D01*
X11766370Y144432D01*
X11795864Y209012D01*
X11820464Y230847D01*
X11839753Y243902D01*
X11985598Y389747D01*
X12101205Y560557D01*
X12182398Y750159D01*
X12226240Y951700D01*
X12229000Y998030D01*
X12229000Y3345906D01*
X12249002Y3414027D01*
X12265905Y3435001D01*
X12521405Y3690501D01*
X12583717Y3724527D01*
X12654532Y3719462D01*
X12711368Y3676915D01*
X12736179Y3610395D01*
X12736500Y3601406D01*
X12736500Y2896500D01*
X16038500Y2896500D01*
X16038500Y4286907D01*
X16038499Y4286932D01*
X16035636Y4335010D01*
X16051553Y4404199D01*
X16102350Y4453799D01*
X16161413Y4468500D01*
X16423085Y4468500D01*
X16491206Y4448498D01*
G37*
%TD.AperFunction*%
%TA.AperFunction,Conductor*%
G36*
X24111206Y4448498D02*
G01*
X24157699Y4394842D01*
X24168862Y4335008D01*
X24168760Y4333302D01*
X24168760Y4333300D01*
X24167193Y4307000D01*
X24166000Y4286973D01*
X24166000Y998027D01*
X24168759Y951702D01*
X24212601Y750161D01*
X24212602Y750159D01*
X24293795Y560557D01*
X24409184Y390069D01*
X24409402Y389747D01*
X24409407Y389741D01*
X24555240Y243908D01*
X24555246Y243903D01*
X24555247Y243902D01*
X24574536Y230847D01*
X24619739Y176100D01*
X24628167Y105605D01*
X24597146Y41745D01*
X24536523Y4793D01*
X24503912Y500D01*
X23320195Y500D01*
X23252074Y20502D01*
X23205581Y74158D01*
X23195477Y144432D01*
X23224971Y209012D01*
X23249572Y230848D01*
X23269433Y244291D01*
X23269437Y244294D01*
X23415206Y390063D01*
X23415211Y390069D01*
X23530763Y560799D01*
X23530765Y560802D01*
X23611918Y750310D01*
X23655740Y951762D01*
X23658499Y998074D01*
X23658500Y998094D01*
X23658500Y2388500D01*
X20356500Y2388500D01*
X20356500Y998074D01*
X20359259Y951762D01*
X20403081Y750310D01*
X20484234Y560802D01*
X20484236Y560799D01*
X20599788Y390069D01*
X20599793Y390063D01*
X20745562Y244294D01*
X20745566Y244291D01*
X20765428Y230848D01*
X20810631Y176101D01*
X20819061Y105607D01*
X20788040Y41746D01*
X20727418Y4794D01*
X20694805Y500D01*
X19511088Y500D01*
X19442967Y20502D01*
X19396474Y74158D01*
X19386370Y144432D01*
X19415864Y209012D01*
X19440464Y230847D01*
X19459753Y243902D01*
X19605598Y389747D01*
X19721205Y560557D01*
X19802398Y750159D01*
X19846240Y951700D01*
X19849000Y998030D01*
X19849000Y3345906D01*
X19869002Y3414027D01*
X19885905Y3435001D01*
X20141405Y3690501D01*
X20203717Y3724527D01*
X20274532Y3719462D01*
X20331368Y3676915D01*
X20356179Y3610395D01*
X20356500Y3601406D01*
X20356500Y2896500D01*
X23658500Y2896500D01*
X23658500Y4286907D01*
X23658499Y4286932D01*
X23655636Y4335010D01*
X23671553Y4404199D01*
X23722350Y4453799D01*
X23781413Y4468500D01*
X24043085Y4468500D01*
X24111206Y4448498D01*
G37*
%TD.AperFunction*%
%TA.AperFunction,Conductor*%
G36*
X31675502Y4464854D02*
G01*
X31688401Y4465931D01*
X31708919Y4455042D01*
X31731206Y4448498D01*
X31739682Y4438716D01*
X31751114Y4432649D01*
X31762486Y4412398D01*
X31777699Y4394842D01*
X31780362Y4380569D01*
X31785878Y4370746D01*
X31788862Y4335010D01*
X31788862Y4335008D01*
X31788760Y4333302D01*
X31788760Y4333300D01*
X31787193Y4307000D01*
X31786000Y4286973D01*
X31786000Y998027D01*
X31788759Y951702D01*
X31832601Y750161D01*
X31832602Y750159D01*
X31913795Y560557D01*
X32029184Y390069D01*
X32029402Y389747D01*
X32029407Y389741D01*
X32175240Y243908D01*
X32175246Y243903D01*
X32175247Y243902D01*
X32194536Y230847D01*
X32239739Y176100D01*
X32248167Y105605D01*
X32217146Y41745D01*
X32156523Y4793D01*
X32123912Y500D01*
X30940195Y500D01*
X30872074Y20502D01*
X30825581Y74158D01*
X30815477Y144432D01*
X30844971Y209012D01*
X30869572Y230848D01*
X30889433Y244291D01*
X30889437Y244294D01*
X31035206Y390063D01*
X31035211Y390069D01*
X31150763Y560799D01*
X31150765Y560802D01*
X31231918Y750310D01*
X31275740Y951762D01*
X31278499Y998074D01*
X31278500Y998094D01*
X31278500Y2388500D01*
X29753500Y2388500D01*
X29685379Y2408502D01*
X29638886Y2462158D01*
X29627500Y2514500D01*
X29627500Y2770500D01*
X29647502Y2838621D01*
X29701158Y2885114D01*
X29753500Y2896500D01*
X31278500Y2896500D01*
X31278500Y4286907D01*
X31278499Y4286932D01*
X31275636Y4335010D01*
X31291553Y4404199D01*
X31342350Y4453799D01*
X31401413Y4468500D01*
X31663085Y4468500D01*
X31675502Y4464854D01*
G37*
%TD.AperFunction*%
%TA.AperFunction,Conductor*%
G36*
X39441621Y8479498D02*
G01*
X39488114Y8425842D01*
X39499500Y8373500D01*
X39499500Y126500D01*
X39479498Y58379D01*
X39425842Y11886D01*
X39373500Y500D01*
X38561088Y500D01*
X38492967Y20502D01*
X38446474Y74158D01*
X38436370Y144432D01*
X38465864Y209012D01*
X38490464Y230847D01*
X38509753Y243902D01*
X38655598Y389747D01*
X38771205Y560557D01*
X38852398Y750159D01*
X38896240Y951700D01*
X38899000Y998030D01*
X38899000Y4286970D01*
X38896240Y4333300D01*
X38852398Y4534841D01*
X38771205Y4724443D01*
X38655598Y4895253D01*
X38655597Y4895254D01*
X38655592Y4895260D01*
X38509759Y5041093D01*
X38509753Y5041098D01*
X38472734Y5066153D01*
X38338943Y5156705D01*
X38338940Y5156707D01*
X38338939Y5156707D01*
X38149339Y5237899D01*
X37947798Y5281741D01*
X37901473Y5284500D01*
X37901470Y5284500D01*
X36868872Y5284500D01*
X36800751Y5304502D01*
X36754258Y5358158D01*
X36744154Y5428432D01*
X36773648Y5493012D01*
X36779777Y5499595D01*
X36861524Y5581343D01*
X36861530Y5581349D01*
X36954615Y5732262D01*
X37010387Y5900575D01*
X37013924Y5935202D01*
X37021000Y6004448D01*
X37021000Y7995553D01*
X37011568Y8087866D01*
X37010387Y8099425D01*
X36954615Y8267738D01*
X36930179Y8307354D01*
X36911442Y8375831D01*
X36932701Y8443570D01*
X36987207Y8489062D01*
X37037420Y8499500D01*
X39373500Y8499500D01*
X39441621Y8479498D01*
G37*
%TD.AperFunction*%
%TA.AperFunction,Conductor*%
G36*
X24390826Y9251823D02*
G01*
X24414450Y9249709D01*
X24424271Y9242080D01*
X24436214Y9238601D01*
X24451786Y9220708D01*
X24470518Y9206157D01*
X24475555Y9198614D01*
X24536629Y9099598D01*
X24550970Y9076348D01*
X24550975Y9076342D01*
X24676341Y8950976D01*
X24676347Y8950971D01*
X24676348Y8950970D01*
X24827262Y8857885D01*
X24943470Y8819379D01*
X25001841Y8778965D01*
X25029097Y8713409D01*
X25016584Y8643524D01*
X24969985Y8592534D01*
X24891350Y8544032D01*
X24891342Y8544025D01*
X24765975Y8418658D01*
X24765970Y8418652D01*
X24672886Y8267740D01*
X24672885Y8267738D01*
X24617112Y8099422D01*
X24606500Y7995553D01*
X24606500Y6004448D01*
X24606499Y6004448D01*
X24617112Y5900577D01*
X24618553Y5893849D01*
X24617190Y5893558D01*
X24619368Y5830174D01*
X24583057Y5769165D01*
X24519527Y5737472D01*
X24497324Y5735500D01*
X24002676Y5735500D01*
X23934555Y5755502D01*
X23888062Y5809158D01*
X23877958Y5879432D01*
X23882362Y5898124D01*
X23882887Y5900577D01*
X23893500Y6004448D01*
X23893500Y7995553D01*
X23884068Y8087866D01*
X23882887Y8099425D01*
X23827115Y8267738D01*
X23734030Y8418651D01*
X23734029Y8418652D01*
X23734024Y8418658D01*
X23608657Y8544025D01*
X23608651Y8544030D01*
X23571568Y8566903D01*
X23530013Y8592535D01*
X23482537Y8645319D01*
X23471134Y8715394D01*
X23499427Y8780510D01*
X23556527Y8819378D01*
X23672738Y8857885D01*
X23823652Y8950970D01*
X23949030Y9076348D01*
X24024125Y9198097D01*
X24076910Y9245573D01*
X24131094Y9257948D01*
X24143641Y9257975D01*
X24159085Y9254903D01*
X24338043Y9254903D01*
X24355777Y9258431D01*
X24368050Y9258457D01*
X24390826Y9251823D01*
G37*
%TD.AperFunction*%
%TA.AperFunction,Conductor*%
G36*
X31333621Y10372498D02*
G01*
X31380114Y10318842D01*
X31391500Y10266500D01*
X31391500Y9499456D01*
X31402112Y9395575D01*
X31457885Y9227262D01*
X31550970Y9076348D01*
X31550975Y9076342D01*
X31676341Y8950976D01*
X31676345Y8950973D01*
X31676348Y8950970D01*
X31775078Y8890072D01*
X31822557Y8837287D01*
X31833960Y8767213D01*
X31805668Y8702097D01*
X31748565Y8663228D01*
X31669767Y8637117D01*
X31669760Y8637114D01*
X31518848Y8544030D01*
X31518842Y8544025D01*
X31393475Y8418658D01*
X31393470Y8418652D01*
X31300386Y8267740D01*
X31300385Y8267738D01*
X31244612Y8099422D01*
X31234000Y7995553D01*
X31234000Y6004448D01*
X31233999Y6004448D01*
X31244612Y5900577D01*
X31246053Y5893849D01*
X31244690Y5893558D01*
X31246868Y5830174D01*
X31210557Y5769165D01*
X31147027Y5737472D01*
X31124824Y5735500D01*
X30502676Y5735500D01*
X30434555Y5755502D01*
X30388062Y5809158D01*
X30377958Y5879432D01*
X30382362Y5898124D01*
X30382887Y5900577D01*
X30393500Y6004448D01*
X30393500Y7995553D01*
X30384068Y8087866D01*
X30382887Y8099425D01*
X30327115Y8267738D01*
X30234030Y8418651D01*
X30234029Y8418652D01*
X30234024Y8418658D01*
X30108657Y8544025D01*
X30108651Y8544030D01*
X30071568Y8566903D01*
X29957738Y8637115D01*
X29789425Y8692887D01*
X29789423Y8692888D01*
X29789421Y8692888D01*
X29685552Y8703500D01*
X29685544Y8703500D01*
X28569456Y8703500D01*
X28569448Y8703500D01*
X28465578Y8692888D01*
X28297262Y8637115D01*
X28297260Y8637114D01*
X28146348Y8544030D01*
X28146342Y8544025D01*
X28020975Y8418658D01*
X28020970Y8418652D01*
X27927886Y8267740D01*
X27927885Y8267738D01*
X27872112Y8099422D01*
X27861500Y7995553D01*
X27861500Y6682096D01*
X27841498Y6613975D01*
X27824595Y6593001D01*
X27353595Y6122001D01*
X27291283Y6087975D01*
X27220468Y6093040D01*
X27163632Y6135587D01*
X27138821Y6202107D01*
X27138500Y6211096D01*
X27138500Y7995553D01*
X27129068Y8087866D01*
X27127887Y8099425D01*
X27072115Y8267738D01*
X26979030Y8418651D01*
X26979029Y8418652D01*
X26979024Y8418658D01*
X26853657Y8544025D01*
X26853651Y8544030D01*
X26816568Y8566903D01*
X26702738Y8637115D01*
X26592365Y8673688D01*
X26533996Y8714101D01*
X26506740Y8779658D01*
X26506000Y8793292D01*
X26506000Y8830284D01*
X26526002Y8898405D01*
X26579658Y8944898D01*
X26649932Y8955002D01*
X26698143Y8937527D01*
X26827262Y8857885D01*
X26995574Y8802113D01*
X27099455Y8791500D01*
X27900544Y8791501D01*
X28004426Y8802113D01*
X28172738Y8857885D01*
X28323652Y8950970D01*
X28449030Y9076348D01*
X28542115Y9227262D01*
X28597887Y9395574D01*
X28608500Y9499455D01*
X28608499Y10266501D01*
X28628501Y10334621D01*
X28682157Y10381114D01*
X28734499Y10392500D01*
X31265500Y10392500D01*
X31333621Y10372498D01*
G37*
%TD.AperFunction*%
%TA.AperFunction,Conductor*%
G36*
X33517247Y9069099D02*
G01*
X33544032Y9067183D01*
X33553230Y9061272D01*
X33560385Y9059715D01*
X33589095Y9038222D01*
X33676341Y8950976D01*
X33676347Y8950971D01*
X33676348Y8950970D01*
X33827262Y8857885D01*
X33995574Y8802113D01*
X34099455Y8791500D01*
X34730772Y8791501D01*
X34798893Y8771499D01*
X34845386Y8717843D01*
X34855490Y8647570D01*
X34825997Y8582989D01*
X34796921Y8558261D01*
X34773847Y8544029D01*
X34773842Y8544025D01*
X34648475Y8418658D01*
X34648470Y8418652D01*
X34555386Y8267740D01*
X34555385Y8267738D01*
X34499612Y8099422D01*
X34489000Y7995553D01*
X34489000Y6682096D01*
X34468998Y6613975D01*
X34452095Y6593001D01*
X33981095Y6122001D01*
X33918783Y6087975D01*
X33847968Y6093040D01*
X33791132Y6135587D01*
X33766321Y6202107D01*
X33766000Y6211096D01*
X33766000Y7995553D01*
X33756568Y8087866D01*
X33755387Y8099425D01*
X33699615Y8267738D01*
X33606530Y8418651D01*
X33606529Y8418652D01*
X33606524Y8418658D01*
X33481157Y8544025D01*
X33481151Y8544030D01*
X33444068Y8566903D01*
X33330238Y8637115D01*
X33330232Y8637117D01*
X33251434Y8663228D01*
X33193063Y8703642D01*
X33165807Y8769198D01*
X33178320Y8839083D01*
X33224918Y8890071D01*
X33323652Y8950970D01*
X33327684Y8955002D01*
X33410905Y9038222D01*
X33418977Y9042631D01*
X33424491Y9049995D01*
X33449649Y9059379D01*
X33473217Y9072248D01*
X33482393Y9071592D01*
X33491011Y9074806D01*
X33517247Y9069099D01*
G37*
%TD.AperFunction*%
%TA.AperFunction,Conductor*%
G36*
X22013983Y9069333D02*
G01*
X22044032Y9067183D01*
X22049664Y9063564D01*
X22054341Y9062807D01*
X22084167Y9042893D01*
X22086687Y9040631D01*
X22176348Y8950970D01*
X22209033Y8930810D01*
X22217437Y8923266D01*
X22254769Y8862877D01*
X22253526Y8791891D01*
X22214103Y8732846D01*
X22149016Y8704488D01*
X22133270Y8703500D01*
X22069448Y8703500D01*
X21965578Y8692888D01*
X21797262Y8637115D01*
X21797260Y8637114D01*
X21646348Y8544030D01*
X21646342Y8544025D01*
X21520975Y8418658D01*
X21520970Y8418652D01*
X21427886Y8267740D01*
X21427885Y8267738D01*
X21372112Y8099422D01*
X21361500Y7995553D01*
X21361500Y7638813D01*
X21341498Y7570692D01*
X21305503Y7534049D01*
X21242687Y7492077D01*
X21242678Y7492069D01*
X20853595Y7102985D01*
X20833848Y7092203D01*
X20816842Y7077466D01*
X20803294Y7075519D01*
X20791283Y7068959D01*
X20768839Y7070565D01*
X20746568Y7067362D01*
X20734118Y7073048D01*
X20720468Y7074024D01*
X20702454Y7087509D01*
X20681988Y7096856D01*
X20674589Y7108369D01*
X20663632Y7116571D01*
X20655768Y7137655D01*
X20643604Y7156582D01*
X20640401Y7178853D01*
X20638821Y7183091D01*
X20638500Y7192080D01*
X20638500Y7317905D01*
X20658502Y7386026D01*
X20675405Y7407001D01*
X20766072Y7497667D01*
X20835401Y7601425D01*
X20883155Y7716716D01*
X20907500Y7839107D01*
X20907500Y7963894D01*
X20907500Y8665501D01*
X20927502Y8733622D01*
X20981158Y8780115D01*
X21033500Y8791501D01*
X21400544Y8791501D01*
X21504426Y8802113D01*
X21672738Y8857885D01*
X21823652Y8950970D01*
X21827684Y8955002D01*
X21910905Y9038222D01*
X21915964Y9040985D01*
X21919167Y9045781D01*
X21946779Y9057812D01*
X21973217Y9072248D01*
X21978969Y9071837D01*
X21984254Y9074139D01*
X22013983Y9069333D01*
G37*
%TD.AperFunction*%
%TA.AperFunction,Conductor*%
G36*
X35817011Y10458523D02*
G01*
X35842541Y10428126D01*
X36839089Y8767213D01*
X36845916Y8755836D01*
X36863812Y8687132D01*
X36841723Y8619660D01*
X36786662Y8574840D01*
X36716111Y8566903D01*
X36671725Y8583769D01*
X36637704Y8604753D01*
X36585238Y8637115D01*
X36416925Y8692887D01*
X36416923Y8692888D01*
X36416921Y8692888D01*
X36313052Y8703500D01*
X36313044Y8703500D01*
X35366730Y8703500D01*
X35298609Y8723502D01*
X35252116Y8777158D01*
X35242012Y8847432D01*
X35271506Y8912012D01*
X35300582Y8936740D01*
X35323650Y8950969D01*
X35323649Y8950969D01*
X35323652Y8950970D01*
X35449030Y9076348D01*
X35542115Y9227262D01*
X35597887Y9395574D01*
X35608500Y9499455D01*
X35608499Y10363299D01*
X35628501Y10431419D01*
X35682157Y10477912D01*
X35752431Y10488016D01*
X35817011Y10458523D01*
G37*
%TD.AperFunction*%
%TA.AperFunction,Conductor*%
G36*
X24825005Y15090750D02*
G01*
X24875605Y15040948D01*
X24891500Y14979686D01*
X24891500Y13999456D01*
X24902113Y13895574D01*
X24957956Y13727048D01*
X24960396Y13656094D01*
X24924088Y13595084D01*
X24860559Y13563388D01*
X24789979Y13571071D01*
X24772204Y13580175D01*
X24672525Y13641658D01*
X24504321Y13697394D01*
X24504318Y13697395D01*
X24400516Y13708000D01*
X24254000Y13708000D01*
X24254000Y12626000D01*
X24233998Y12557879D01*
X24180342Y12511386D01*
X24128000Y12500000D01*
X23872000Y12500000D01*
X23803879Y12520002D01*
X23757386Y12573658D01*
X23746000Y12626000D01*
X23746000Y13708000D01*
X23632398Y13708000D01*
X23623572Y13710592D01*
X23614466Y13709282D01*
X23590040Y13720438D01*
X23564277Y13728002D01*
X23558252Y13734956D01*
X23549886Y13738776D01*
X23535371Y13761362D01*
X23517784Y13781658D01*
X23515459Y13792345D01*
X23511502Y13798502D01*
X23506398Y13834000D01*
X23506398Y14061907D01*
X23526400Y14130028D01*
X23579148Y14176102D01*
X24163550Y14448612D01*
X24204373Y14470694D01*
X24368503Y14595603D01*
X24506027Y14749318D01*
X24611976Y14926281D01*
X24647098Y15022782D01*
X24689192Y15079951D01*
X24755514Y15105290D01*
X24825005Y15090750D01*
G37*
%TD.AperFunction*%
%TD*%
M02*
