%TF.GenerationSoftware,KiCad,Pcbnew,9.0.7*%
%TF.CreationDate,2026-03-18T00:02:03-06:00*%
%TF.ProjectId,ScartPCB,53636172-7450-4434-922e-6b696361645f,1.0*%
%TF.SameCoordinates,PX76bb820PY7641700*%
%TF.FileFunction,Soldermask,Bot*%
%TF.FilePolarity,Negative*%
%FSLAX46Y46*%
G04 Gerber Fmt 4.6, Leading zero omitted, Abs format (unit mm)*
G04 Created by KiCad (PCBNEW 9.0.7) date 2026-03-18 00:02:03*
%MOMM*%
%LPD*%
G01*
G04 APERTURE LIST*
G04 Aperture macros list*
%AMRoundRect*
0 Rectangle with rounded corners*
0 $1 Rounding radius*
0 $2 $3 $4 $5 $6 $7 $8 $9 X,Y pos of 4 corners*
0 Add a 4 corners polygon primitive as box body*
4,1,4,$2,$3,$4,$5,$6,$7,$8,$9,$2,$3,0*
0 Add four circle primitives for the rounded corners*
1,1,$1+$1,$2,$3*
1,1,$1+$1,$4,$5*
1,1,$1+$1,$6,$7*
1,1,$1+$1,$8,$9*
0 Add four rect primitives between the rounded corners*
20,1,$1+$1,$2,$3,$4,$5,0*
20,1,$1+$1,$4,$5,$6,$7,0*
20,1,$1+$1,$6,$7,$8,$9,0*
20,1,$1+$1,$8,$9,$2,$3,0*%
%AMFreePoly0*
4,1,6,1.000000,0.000000,0.500000,-0.750000,-0.500000,-0.750000,-0.500000,0.750000,0.500000,0.750000,1.000000,0.000000,1.000000,0.000000,$1*%
%AMFreePoly1*
4,1,6,0.500000,-0.750000,-0.650000,-0.750000,-0.150000,0.000000,-0.650000,0.750000,0.500000,0.750000,0.500000,-0.750000,0.500000,-0.750000,$1*%
G04 Aperture macros list end*
%ADD10C,0.000000*%
%ADD11RoundRect,0.571500X-0.571500X-1.562000X0.571500X-1.562000X0.571500X1.562000X-0.571500X1.562000X0*%
%ADD12RoundRect,0.250000X0.350000X0.450000X-0.350000X0.450000X-0.350000X-0.450000X0.350000X-0.450000X0*%
%ADD13RoundRect,0.571500X-0.276429X-0.759481X0.759481X-0.276429X0.276429X0.759481X-0.759481X0.276429X0*%
%ADD14RoundRect,0.150000X0.650000X0.150000X-0.650000X0.150000X-0.650000X-0.150000X0.650000X-0.150000X0*%
%ADD15RoundRect,0.250000X0.450000X-0.350000X0.450000X0.350000X-0.450000X0.350000X-0.450000X-0.350000X0*%
%ADD16FreePoly0,25.000000*%
%ADD17FreePoly1,25.000000*%
%ADD18FreePoly0,205.000000*%
%ADD19FreePoly1,205.000000*%
%ADD20RoundRect,0.250000X-0.350000X-0.450000X0.350000X-0.450000X0.350000X0.450000X-0.350000X0.450000X0*%
G04 APERTURE END LIST*
D10*
%TO.C,JP1*%
G36*
X28438191Y12966977D02*
G01*
X26217737Y11931562D01*
X25583809Y13291023D01*
X27804263Y14326438D01*
X28438191Y12966977D01*
G37*
%TO.C,JP2*%
G36*
X25136191Y11442977D02*
G01*
X22915737Y10407562D01*
X22281809Y11767023D01*
X24502263Y12802438D01*
X25136191Y11442977D01*
G37*
%TO.C,JP3*%
G36*
X21834191Y9918977D02*
G01*
X19613737Y8883562D01*
X18979809Y10243023D01*
X21200263Y11278438D01*
X21834191Y9918977D01*
G37*
%TD*%
D11*
%TO.C,J1*%
X36747500Y2642500D03*
X32937500Y2642500D03*
X29127500Y2642500D03*
X25317500Y2642500D03*
X21507500Y2642500D03*
X17697500Y2642500D03*
X13887500Y2642500D03*
X10077500Y2642500D03*
X6267500Y2642500D03*
X2457500Y2642500D03*
%TD*%
D12*
%TO.C,RC2*%
X5000000Y6405200D03*
X3000000Y6405200D03*
%TD*%
D13*
%TO.C,JI4*%
X19988949Y14335500D03*
%TD*%
%TO.C,JI8*%
X30694000Y14780000D03*
%TD*%
%TO.C,JI11*%
X17105000Y13002000D03*
%TD*%
D12*
%TO.C,R9*%
X25000000Y6500000D03*
X23000000Y6500000D03*
%TD*%
D14*
%TO.C,U1*%
X17000000Y10000000D03*
X17000000Y9050000D03*
X17000000Y8100000D03*
X14700000Y8100000D03*
X14700000Y10000000D03*
%TD*%
D15*
%TO.C,R7*%
X11500000Y7500000D03*
X11500000Y9500000D03*
%TD*%
D13*
%TO.C,JI7*%
X22872898Y15669000D03*
%TD*%
D16*
%TO.C,JP1*%
X26353927Y12822602D03*
D17*
X27668073Y13435398D03*
%TD*%
D13*
%TO.C,JI6*%
X25756847Y17002500D03*
%TD*%
%TO.C,JI10*%
X28662000Y18336000D03*
%TD*%
D18*
%TO.C,JP2*%
X24366073Y11911398D03*
D19*
X23051927Y11298602D03*
%TD*%
D18*
%TO.C,JP3*%
X21064073Y10387398D03*
D19*
X19749927Y9774602D03*
%TD*%
D20*
%TO.C,RC1*%
X7000000Y7500000D03*
X9000000Y7500000D03*
%TD*%
M02*
