%TF.GenerationSoftware,KiCad,Pcbnew,9.0.7*%
%TF.CreationDate,2026-03-18T00:02:03-06:00*%
%TF.ProjectId,ScartPCB,53636172-7450-4434-922e-6b696361645f,1.0*%
%TF.SameCoordinates,PX76bb820PY7641700*%
%TF.FileFunction,Legend,Bot*%
%TF.FilePolarity,Positive*%
%FSLAX46Y46*%
G04 Gerber Fmt 4.6, Leading zero omitted, Abs format (unit mm)*
G04 Created by KiCad (PCBNEW 9.0.7) date 2026-03-18 00:02:03*
%MOMM*%
%LPD*%
G01*
G04 APERTURE LIST*
%ADD10C,0.100000*%
%ADD11C,0.120000*%
G04 APERTURE END LIST*
D10*
X490085Y6093125D02*
X451990Y6055029D01*
X451990Y6055029D02*
X413895Y5978839D01*
X413895Y5978839D02*
X413895Y5788363D01*
X413895Y5788363D02*
X451990Y5712172D01*
X451990Y5712172D02*
X490085Y5674077D01*
X490085Y5674077D02*
X566276Y5635982D01*
X566276Y5635982D02*
X642466Y5635982D01*
X642466Y5635982D02*
X756752Y5674077D01*
X756752Y5674077D02*
X1213895Y6131220D01*
X1213895Y6131220D02*
X1213895Y5635982D01*
X413895Y5140743D02*
X413895Y5064553D01*
X413895Y5064553D02*
X451990Y4988362D01*
X451990Y4988362D02*
X490085Y4950267D01*
X490085Y4950267D02*
X566276Y4912172D01*
X566276Y4912172D02*
X718657Y4874077D01*
X718657Y4874077D02*
X909133Y4874077D01*
X909133Y4874077D02*
X1061514Y4912172D01*
X1061514Y4912172D02*
X1137704Y4950267D01*
X1137704Y4950267D02*
X1175800Y4988362D01*
X1175800Y4988362D02*
X1213895Y5064553D01*
X1213895Y5064553D02*
X1213895Y5140743D01*
X1213895Y5140743D02*
X1175800Y5216934D01*
X1175800Y5216934D02*
X1137704Y5255029D01*
X1137704Y5255029D02*
X1061514Y5293124D01*
X1061514Y5293124D02*
X909133Y5331220D01*
X909133Y5331220D02*
X718657Y5331220D01*
X718657Y5331220D02*
X566276Y5293124D01*
X566276Y5293124D02*
X490085Y5255029D01*
X490085Y5255029D02*
X451990Y5216934D01*
X451990Y5216934D02*
X413895Y5140743D01*
X33900877Y8956394D02*
X33900877Y8308775D01*
X33900877Y8308775D02*
X33938972Y8232584D01*
X33938972Y8232584D02*
X33977068Y8194489D01*
X33977068Y8194489D02*
X34053258Y8156394D01*
X34053258Y8156394D02*
X34167544Y8156394D01*
X34167544Y8156394D02*
X34243734Y8194489D01*
X33900877Y8461155D02*
X33977068Y8423060D01*
X33977068Y8423060D02*
X34129449Y8423060D01*
X34129449Y8423060D02*
X34205639Y8461155D01*
X34205639Y8461155D02*
X34243734Y8499251D01*
X34243734Y8499251D02*
X34281830Y8575441D01*
X34281830Y8575441D02*
X34281830Y8804013D01*
X34281830Y8804013D02*
X34243734Y8880203D01*
X34243734Y8880203D02*
X34205639Y8918298D01*
X34205639Y8918298D02*
X34129449Y8956394D01*
X34129449Y8956394D02*
X33977068Y8956394D01*
X33977068Y8956394D02*
X33900877Y8918298D01*
X33519924Y8423060D02*
X33519924Y8956394D01*
X33519924Y9223060D02*
X33558020Y9184965D01*
X33558020Y9184965D02*
X33519924Y9146870D01*
X33519924Y9146870D02*
X33481829Y9184965D01*
X33481829Y9184965D02*
X33519924Y9223060D01*
X33519924Y9223060D02*
X33519924Y9146870D01*
X33253258Y8956394D02*
X32948496Y8956394D01*
X33138972Y9223060D02*
X33138972Y8537346D01*
X33138972Y8537346D02*
X33100877Y8461155D01*
X33100877Y8461155D02*
X33024687Y8423060D01*
X33024687Y8423060D02*
X32948496Y8423060D01*
X32681829Y8423060D02*
X32681829Y9223060D01*
X32338972Y8423060D02*
X32338972Y8842108D01*
X32338972Y8842108D02*
X32377067Y8918298D01*
X32377067Y8918298D02*
X32453258Y8956394D01*
X32453258Y8956394D02*
X32567544Y8956394D01*
X32567544Y8956394D02*
X32643734Y8918298D01*
X32643734Y8918298D02*
X32681829Y8880203D01*
X31615162Y8956394D02*
X31615162Y8423060D01*
X31958019Y8956394D02*
X31958019Y8537346D01*
X31958019Y8537346D02*
X31919924Y8461155D01*
X31919924Y8461155D02*
X31843734Y8423060D01*
X31843734Y8423060D02*
X31729448Y8423060D01*
X31729448Y8423060D02*
X31653257Y8461155D01*
X31653257Y8461155D02*
X31615162Y8499251D01*
X31234209Y8423060D02*
X31234209Y9223060D01*
X31234209Y8918298D02*
X31158019Y8956394D01*
X31158019Y8956394D02*
X31005638Y8956394D01*
X31005638Y8956394D02*
X30929447Y8918298D01*
X30929447Y8918298D02*
X30891352Y8880203D01*
X30891352Y8880203D02*
X30853257Y8804013D01*
X30853257Y8804013D02*
X30853257Y8575441D01*
X30853257Y8575441D02*
X30891352Y8499251D01*
X30891352Y8499251D02*
X30929447Y8461155D01*
X30929447Y8461155D02*
X31005638Y8423060D01*
X31005638Y8423060D02*
X31158019Y8423060D01*
X31158019Y8423060D02*
X31234209Y8461155D01*
X29938971Y9261155D02*
X30624685Y8232584D01*
X33900877Y7135105D02*
X33900877Y7935105D01*
X33900877Y7173200D02*
X33977068Y7135105D01*
X33977068Y7135105D02*
X34129449Y7135105D01*
X34129449Y7135105D02*
X34205639Y7173200D01*
X34205639Y7173200D02*
X34243734Y7211296D01*
X34243734Y7211296D02*
X34281830Y7287486D01*
X34281830Y7287486D02*
X34281830Y7516058D01*
X34281830Y7516058D02*
X34243734Y7592248D01*
X34243734Y7592248D02*
X34205639Y7630343D01*
X34205639Y7630343D02*
X34129449Y7668439D01*
X34129449Y7668439D02*
X33977068Y7668439D01*
X33977068Y7668439D02*
X33900877Y7630343D01*
X33405639Y7135105D02*
X33481829Y7173200D01*
X33481829Y7173200D02*
X33519924Y7211296D01*
X33519924Y7211296D02*
X33558020Y7287486D01*
X33558020Y7287486D02*
X33558020Y7516058D01*
X33558020Y7516058D02*
X33519924Y7592248D01*
X33519924Y7592248D02*
X33481829Y7630343D01*
X33481829Y7630343D02*
X33405639Y7668439D01*
X33405639Y7668439D02*
X33291353Y7668439D01*
X33291353Y7668439D02*
X33215162Y7630343D01*
X33215162Y7630343D02*
X33177067Y7592248D01*
X33177067Y7592248D02*
X33138972Y7516058D01*
X33138972Y7516058D02*
X33138972Y7287486D01*
X33138972Y7287486D02*
X33177067Y7211296D01*
X33177067Y7211296D02*
X33215162Y7173200D01*
X33215162Y7173200D02*
X33291353Y7135105D01*
X33291353Y7135105D02*
X33405639Y7135105D01*
X32910400Y7668439D02*
X32605638Y7668439D01*
X32796114Y7935105D02*
X32796114Y7249391D01*
X32796114Y7249391D02*
X32758019Y7173200D01*
X32758019Y7173200D02*
X32681829Y7135105D01*
X32681829Y7135105D02*
X32605638Y7135105D01*
X32453257Y7668439D02*
X32148495Y7668439D01*
X32338971Y7935105D02*
X32338971Y7249391D01*
X32338971Y7249391D02*
X32300876Y7173200D01*
X32300876Y7173200D02*
X32224686Y7135105D01*
X32224686Y7135105D02*
X32148495Y7135105D01*
X31577066Y7173200D02*
X31653257Y7135105D01*
X31653257Y7135105D02*
X31805638Y7135105D01*
X31805638Y7135105D02*
X31881828Y7173200D01*
X31881828Y7173200D02*
X31919924Y7249391D01*
X31919924Y7249391D02*
X31919924Y7554153D01*
X31919924Y7554153D02*
X31881828Y7630343D01*
X31881828Y7630343D02*
X31805638Y7668439D01*
X31805638Y7668439D02*
X31653257Y7668439D01*
X31653257Y7668439D02*
X31577066Y7630343D01*
X31577066Y7630343D02*
X31538971Y7554153D01*
X31538971Y7554153D02*
X31538971Y7477962D01*
X31538971Y7477962D02*
X31919924Y7401772D01*
X30853257Y7135105D02*
X30853257Y7935105D01*
X30853257Y7173200D02*
X30929448Y7135105D01*
X30929448Y7135105D02*
X31081829Y7135105D01*
X31081829Y7135105D02*
X31158019Y7173200D01*
X31158019Y7173200D02*
X31196114Y7211296D01*
X31196114Y7211296D02*
X31234210Y7287486D01*
X31234210Y7287486D02*
X31234210Y7516058D01*
X31234210Y7516058D02*
X31196114Y7592248D01*
X31196114Y7592248D02*
X31158019Y7630343D01*
X31158019Y7630343D02*
X31081829Y7668439D01*
X31081829Y7668439D02*
X30929448Y7668439D01*
X30929448Y7668439D02*
X30853257Y7630343D01*
X30129447Y7668439D02*
X30129447Y6868439D01*
X30129447Y7173200D02*
X30205638Y7135105D01*
X30205638Y7135105D02*
X30358019Y7135105D01*
X30358019Y7135105D02*
X30434209Y7173200D01*
X30434209Y7173200D02*
X30472304Y7211296D01*
X30472304Y7211296D02*
X30510400Y7287486D01*
X30510400Y7287486D02*
X30510400Y7516058D01*
X30510400Y7516058D02*
X30472304Y7592248D01*
X30472304Y7592248D02*
X30434209Y7630343D01*
X30434209Y7630343D02*
X30358019Y7668439D01*
X30358019Y7668439D02*
X30205638Y7668439D01*
X30205638Y7668439D02*
X30129447Y7630343D01*
X29405637Y7668439D02*
X29405637Y7135105D01*
X29748494Y7668439D02*
X29748494Y7249391D01*
X29748494Y7249391D02*
X29710399Y7173200D01*
X29710399Y7173200D02*
X29634209Y7135105D01*
X29634209Y7135105D02*
X29519923Y7135105D01*
X29519923Y7135105D02*
X29443732Y7173200D01*
X29443732Y7173200D02*
X29405637Y7211296D01*
X28681827Y7135105D02*
X28681827Y7554153D01*
X28681827Y7554153D02*
X28719922Y7630343D01*
X28719922Y7630343D02*
X28796113Y7668439D01*
X28796113Y7668439D02*
X28948494Y7668439D01*
X28948494Y7668439D02*
X29024684Y7630343D01*
X28681827Y7173200D02*
X28758018Y7135105D01*
X28758018Y7135105D02*
X28948494Y7135105D01*
X28948494Y7135105D02*
X29024684Y7173200D01*
X29024684Y7173200D02*
X29062780Y7249391D01*
X29062780Y7249391D02*
X29062780Y7325581D01*
X29062780Y7325581D02*
X29024684Y7401772D01*
X29024684Y7401772D02*
X28948494Y7439867D01*
X28948494Y7439867D02*
X28758018Y7439867D01*
X28758018Y7439867D02*
X28681827Y7477962D01*
X27958017Y7135105D02*
X27958017Y7935105D01*
X27958017Y7173200D02*
X28034208Y7135105D01*
X28034208Y7135105D02*
X28186589Y7135105D01*
X28186589Y7135105D02*
X28262779Y7173200D01*
X28262779Y7173200D02*
X28300874Y7211296D01*
X28300874Y7211296D02*
X28338970Y7287486D01*
X28338970Y7287486D02*
X28338970Y7516058D01*
X28338970Y7516058D02*
X28300874Y7592248D01*
X28300874Y7592248D02*
X28262779Y7630343D01*
X28262779Y7630343D02*
X28186589Y7668439D01*
X28186589Y7668439D02*
X28034208Y7668439D01*
X28034208Y7668439D02*
X27958017Y7630343D01*
X27005636Y7973200D02*
X27691350Y6944629D01*
X34243734Y6266198D02*
X33977068Y6266198D01*
X33862782Y5847150D02*
X34243734Y5847150D01*
X34243734Y5847150D02*
X34243734Y6647150D01*
X34243734Y6647150D02*
X33862782Y6647150D01*
X33177067Y5847150D02*
X33177067Y6266198D01*
X33177067Y6266198D02*
X33215162Y6342388D01*
X33215162Y6342388D02*
X33291353Y6380484D01*
X33291353Y6380484D02*
X33443734Y6380484D01*
X33443734Y6380484D02*
X33519924Y6342388D01*
X33177067Y5885245D02*
X33253258Y5847150D01*
X33253258Y5847150D02*
X33443734Y5847150D01*
X33443734Y5847150D02*
X33519924Y5885245D01*
X33519924Y5885245D02*
X33558020Y5961436D01*
X33558020Y5961436D02*
X33558020Y6037626D01*
X33558020Y6037626D02*
X33519924Y6113817D01*
X33519924Y6113817D02*
X33443734Y6151912D01*
X33443734Y6151912D02*
X33253258Y6151912D01*
X33253258Y6151912D02*
X33177067Y6190007D01*
X32834210Y5885245D02*
X32758019Y5847150D01*
X32758019Y5847150D02*
X32605638Y5847150D01*
X32605638Y5847150D02*
X32529448Y5885245D01*
X32529448Y5885245D02*
X32491352Y5961436D01*
X32491352Y5961436D02*
X32491352Y5999531D01*
X32491352Y5999531D02*
X32529448Y6075722D01*
X32529448Y6075722D02*
X32605638Y6113817D01*
X32605638Y6113817D02*
X32719924Y6113817D01*
X32719924Y6113817D02*
X32796114Y6151912D01*
X32796114Y6151912D02*
X32834210Y6228103D01*
X32834210Y6228103D02*
X32834210Y6266198D01*
X32834210Y6266198D02*
X32796114Y6342388D01*
X32796114Y6342388D02*
X32719924Y6380484D01*
X32719924Y6380484D02*
X32605638Y6380484D01*
X32605638Y6380484D02*
X32529448Y6342388D01*
X32224686Y6380484D02*
X32034210Y5847150D01*
X31843733Y6380484D02*
X32034210Y5847150D01*
X32034210Y5847150D02*
X32110400Y5656674D01*
X32110400Y5656674D02*
X32148495Y5618579D01*
X32148495Y5618579D02*
X32224686Y5580484D01*
X31577067Y5885245D02*
X31462781Y5847150D01*
X31462781Y5847150D02*
X31272305Y5847150D01*
X31272305Y5847150D02*
X31196114Y5885245D01*
X31196114Y5885245D02*
X31158019Y5923341D01*
X31158019Y5923341D02*
X31119924Y5999531D01*
X31119924Y5999531D02*
X31119924Y6075722D01*
X31119924Y6075722D02*
X31158019Y6151912D01*
X31158019Y6151912D02*
X31196114Y6190007D01*
X31196114Y6190007D02*
X31272305Y6228103D01*
X31272305Y6228103D02*
X31424686Y6266198D01*
X31424686Y6266198D02*
X31500876Y6304293D01*
X31500876Y6304293D02*
X31538971Y6342388D01*
X31538971Y6342388D02*
X31577067Y6418579D01*
X31577067Y6418579D02*
X31577067Y6494769D01*
X31577067Y6494769D02*
X31538971Y6570960D01*
X31538971Y6570960D02*
X31500876Y6609055D01*
X31500876Y6609055D02*
X31424686Y6647150D01*
X31424686Y6647150D02*
X31234209Y6647150D01*
X31234209Y6647150D02*
X31119924Y6609055D01*
X30434209Y5885245D02*
X30510400Y5847150D01*
X30510400Y5847150D02*
X30662781Y5847150D01*
X30662781Y5847150D02*
X30738971Y5885245D01*
X30738971Y5885245D02*
X30777066Y5923341D01*
X30777066Y5923341D02*
X30815162Y5999531D01*
X30815162Y5999531D02*
X30815162Y6228103D01*
X30815162Y6228103D02*
X30777066Y6304293D01*
X30777066Y6304293D02*
X30738971Y6342388D01*
X30738971Y6342388D02*
X30662781Y6380484D01*
X30662781Y6380484D02*
X30510400Y6380484D01*
X30510400Y6380484D02*
X30434209Y6342388D01*
X29748495Y5847150D02*
X29748495Y6266198D01*
X29748495Y6266198D02*
X29786590Y6342388D01*
X29786590Y6342388D02*
X29862781Y6380484D01*
X29862781Y6380484D02*
X30015162Y6380484D01*
X30015162Y6380484D02*
X30091352Y6342388D01*
X29748495Y5885245D02*
X29824686Y5847150D01*
X29824686Y5847150D02*
X30015162Y5847150D01*
X30015162Y5847150D02*
X30091352Y5885245D01*
X30091352Y5885245D02*
X30129448Y5961436D01*
X30129448Y5961436D02*
X30129448Y6037626D01*
X30129448Y6037626D02*
X30091352Y6113817D01*
X30091352Y6113817D02*
X30015162Y6151912D01*
X30015162Y6151912D02*
X29824686Y6151912D01*
X29824686Y6151912D02*
X29748495Y6190007D01*
X29367542Y5847150D02*
X29367542Y6380484D01*
X29367542Y6228103D02*
X29329447Y6304293D01*
X29329447Y6304293D02*
X29291352Y6342388D01*
X29291352Y6342388D02*
X29215161Y6380484D01*
X29215161Y6380484D02*
X29138971Y6380484D01*
X28986590Y6380484D02*
X28681828Y6380484D01*
X28872304Y6647150D02*
X28872304Y5961436D01*
X28872304Y5961436D02*
X28834209Y5885245D01*
X28834209Y5885245D02*
X28758019Y5847150D01*
X28758019Y5847150D02*
X28681828Y5847150D01*
X28415161Y5847150D02*
X28415161Y6647150D01*
X28415161Y6647150D02*
X28110399Y6647150D01*
X28110399Y6647150D02*
X28034209Y6609055D01*
X28034209Y6609055D02*
X27996114Y6570960D01*
X27996114Y6570960D02*
X27958018Y6494769D01*
X27958018Y6494769D02*
X27958018Y6380484D01*
X27958018Y6380484D02*
X27996114Y6304293D01*
X27996114Y6304293D02*
X28034209Y6266198D01*
X28034209Y6266198D02*
X28110399Y6228103D01*
X28110399Y6228103D02*
X28415161Y6228103D01*
X27158018Y5923341D02*
X27196114Y5885245D01*
X27196114Y5885245D02*
X27310399Y5847150D01*
X27310399Y5847150D02*
X27386590Y5847150D01*
X27386590Y5847150D02*
X27500876Y5885245D01*
X27500876Y5885245D02*
X27577066Y5961436D01*
X27577066Y5961436D02*
X27615161Y6037626D01*
X27615161Y6037626D02*
X27653257Y6190007D01*
X27653257Y6190007D02*
X27653257Y6304293D01*
X27653257Y6304293D02*
X27615161Y6456674D01*
X27615161Y6456674D02*
X27577066Y6532865D01*
X27577066Y6532865D02*
X27500876Y6609055D01*
X27500876Y6609055D02*
X27386590Y6647150D01*
X27386590Y6647150D02*
X27310399Y6647150D01*
X27310399Y6647150D02*
X27196114Y6609055D01*
X27196114Y6609055D02*
X27158018Y6570960D01*
X26548495Y6266198D02*
X26434209Y6228103D01*
X26434209Y6228103D02*
X26396114Y6190007D01*
X26396114Y6190007D02*
X26358018Y6113817D01*
X26358018Y6113817D02*
X26358018Y5999531D01*
X26358018Y5999531D02*
X26396114Y5923341D01*
X26396114Y5923341D02*
X26434209Y5885245D01*
X26434209Y5885245D02*
X26510399Y5847150D01*
X26510399Y5847150D02*
X26815161Y5847150D01*
X26815161Y5847150D02*
X26815161Y6647150D01*
X26815161Y6647150D02*
X26548495Y6647150D01*
X26548495Y6647150D02*
X26472304Y6609055D01*
X26472304Y6609055D02*
X26434209Y6570960D01*
X26434209Y6570960D02*
X26396114Y6494769D01*
X26396114Y6494769D02*
X26396114Y6418579D01*
X26396114Y6418579D02*
X26434209Y6342388D01*
X26434209Y6342388D02*
X26472304Y6304293D01*
X26472304Y6304293D02*
X26548495Y6266198D01*
X26548495Y6266198D02*
X26815161Y6266198D01*
X22738646Y8810366D02*
X22442813Y9444781D01*
X22442813Y9444781D02*
X22376123Y8641318D01*
X22376123Y8641318D02*
X22080290Y9275734D01*
X21657347Y9078512D02*
X21536506Y9022163D01*
X21536506Y9022163D02*
X21490173Y8963778D01*
X21490173Y8963778D02*
X21457927Y8875183D01*
X21457927Y8875183D02*
X21484066Y8740255D01*
X21484066Y8740255D02*
X21582676Y8528783D01*
X21582676Y8528783D02*
X21669236Y8422029D01*
X21669236Y8422029D02*
X21757831Y8389783D01*
X21757831Y8389783D02*
X21832339Y8387748D01*
X21832339Y8387748D02*
X21953180Y8444097D01*
X21953180Y8444097D02*
X21999513Y8502482D01*
X21999513Y8502482D02*
X22031759Y8591077D01*
X22031759Y8591077D02*
X22005620Y8726005D01*
X22005620Y8726005D02*
X21907009Y8937477D01*
X21907009Y8937477D02*
X21820450Y9044231D01*
X21820450Y9044231D02*
X21731855Y9076477D01*
X21731855Y9076477D02*
X21657347Y9078512D01*
X21042964Y8424228D02*
X20966420Y8351756D01*
X20966420Y8351756D02*
X20950297Y8307458D01*
X20950297Y8307458D02*
X20948261Y8232950D01*
X20948261Y8232950D02*
X20990523Y8142320D01*
X20990523Y8142320D02*
X21048908Y8095986D01*
X21048908Y8095986D02*
X21093206Y8079863D01*
X21093206Y8079863D02*
X21167713Y8077828D01*
X21167713Y8077828D02*
X21409395Y8190526D01*
X21409395Y8190526D02*
X21113563Y8824941D01*
X21113563Y8824941D02*
X20902091Y8726330D01*
X20902091Y8726330D02*
X20855758Y8667946D01*
X20855758Y8667946D02*
X20839635Y8623648D01*
X20839635Y8623648D02*
X20837599Y8549140D01*
X20837599Y8549140D02*
X20865773Y8488720D01*
X20865773Y8488720D02*
X20924158Y8442387D01*
X20924158Y8442387D02*
X20968456Y8426264D01*
X20968456Y8426264D02*
X21042964Y8424228D01*
X21042964Y8424228D02*
X21254435Y8522839D01*
X20479147Y8529109D02*
X20718631Y8015534D01*
X20718631Y8015534D02*
X20716595Y7941026D01*
X20716595Y7941026D02*
X20700472Y7896729D01*
X20700472Y7896729D02*
X20654139Y7838344D01*
X20654139Y7838344D02*
X20533298Y7781995D01*
X20533298Y7781995D02*
X20458790Y7784031D01*
X20458790Y7784031D02*
X20414493Y7800154D01*
X20414493Y7800154D02*
X20356108Y7846487D01*
X20356108Y7846487D02*
X20116624Y8360061D01*
X19743923Y7818475D02*
X19955394Y7917086D01*
X20110355Y7584773D02*
X19814522Y8219189D01*
X19814522Y8219189D02*
X19512419Y8078316D01*
X31390268Y13657985D02*
X31692370Y13798858D01*
X31692370Y13798858D02*
X31863453Y13510842D01*
X31863453Y13510842D02*
X31819156Y13526965D01*
X31819156Y13526965D02*
X31744648Y13529001D01*
X31744648Y13529001D02*
X31593597Y13458565D01*
X31593597Y13458565D02*
X31547263Y13400180D01*
X31547263Y13400180D02*
X31531140Y13355882D01*
X31531140Y13355882D02*
X31529105Y13281375D01*
X31529105Y13281375D02*
X31599541Y13130323D01*
X31599541Y13130323D02*
X31657926Y13083990D01*
X31657926Y13083990D02*
X31702223Y13067867D01*
X31702223Y13067867D02*
X31776731Y13065831D01*
X31776731Y13065831D02*
X31927783Y13136268D01*
X31927783Y13136268D02*
X31974116Y13194653D01*
X31974116Y13194653D02*
X31990239Y13238950D01*
X31178796Y13559374D02*
X31263157Y12826348D01*
X31263157Y12826348D02*
X30755852Y13362152D01*
X15540821Y12163722D02*
X15599206Y12117389D01*
X15599206Y12117389D02*
X15641468Y12026758D01*
X15641468Y12026758D02*
X15653519Y11922040D01*
X15653519Y11922040D02*
X15621273Y11833445D01*
X15621273Y11833445D02*
X15574940Y11775060D01*
X15574940Y11775060D02*
X15468186Y11688501D01*
X15468186Y11688501D02*
X15377555Y11646239D01*
X15377555Y11646239D02*
X15242627Y11620100D01*
X15242627Y11620100D02*
X15168119Y11622136D01*
X15168119Y11622136D02*
X15079524Y11654382D01*
X15079524Y11654382D02*
X15007052Y11730925D01*
X15007052Y11730925D02*
X14978878Y11791346D01*
X14978878Y11791346D02*
X14966826Y11896064D01*
X14966826Y11896064D02*
X14982949Y11940361D01*
X14982949Y11940361D02*
X15194421Y12038972D01*
X15194421Y12038972D02*
X15250770Y11918131D01*
X14795743Y12184079D02*
X15430158Y12479912D01*
X15430158Y12479912D02*
X14626696Y12546602D01*
X14626696Y12546602D02*
X15261111Y12842435D01*
X14485823Y12848705D02*
X15120239Y13144537D01*
X15120239Y13144537D02*
X15049802Y13295589D01*
X15049802Y13295589D02*
X14977330Y13372132D01*
X14977330Y13372132D02*
X14888735Y13404378D01*
X14888735Y13404378D02*
X14814227Y13406414D01*
X14814227Y13406414D02*
X14679299Y13380275D01*
X14679299Y13380275D02*
X14588668Y13338013D01*
X14588668Y13338013D02*
X14481914Y13251454D01*
X14481914Y13251454D02*
X14435581Y13193069D01*
X14435581Y13193069D02*
X14403335Y13104474D01*
X14403335Y13104474D02*
X14415387Y12999756D01*
X14415387Y12999756D02*
X14485823Y12848705D01*
X35575548Y9599841D02*
X35494798Y9729067D01*
X35494798Y9729067D02*
X35422117Y9773493D01*
X35422117Y9773493D02*
X35317129Y9797731D01*
X35317129Y9797731D02*
X35167715Y9749288D01*
X35167715Y9749288D02*
X34941569Y9607976D01*
X34941569Y9607976D02*
X34832530Y9494920D01*
X34832530Y9494920D02*
X34808292Y9389932D01*
X34808292Y9389932D02*
X34816360Y9305131D01*
X34816360Y9305131D02*
X34897110Y9175905D01*
X34897110Y9175905D02*
X34969791Y9131479D01*
X34969791Y9131479D02*
X35074779Y9107241D01*
X35074779Y9107241D02*
X35224193Y9155684D01*
X35224193Y9155684D02*
X35450339Y9296996D01*
X35450339Y9296996D02*
X35559378Y9410052D01*
X35559378Y9410052D02*
X35583616Y9515040D01*
X35583616Y9515040D02*
X35575548Y9599841D01*
X34586230Y9745304D02*
X34493362Y9822037D01*
X34493362Y9822037D02*
X34392425Y9983570D01*
X34392425Y9983570D02*
X34384356Y10068370D01*
X34384356Y10068370D02*
X34396476Y10120864D01*
X34396476Y10120864D02*
X34440901Y10193546D01*
X34440901Y10193546D02*
X34505515Y10233921D01*
X34505515Y10233921D02*
X34590315Y10241989D01*
X34590315Y10241989D02*
X34642809Y10229870D01*
X34642809Y10229870D02*
X34715491Y10185444D01*
X34715491Y10185444D02*
X34828547Y10076405D01*
X34828547Y10076405D02*
X34901228Y10031979D01*
X34901228Y10031979D02*
X34953722Y10019860D01*
X34953722Y10019860D02*
X35038523Y10027928D01*
X35038523Y10027928D02*
X35103136Y10068303D01*
X35103136Y10068303D02*
X35147562Y10140984D01*
X35147562Y10140984D02*
X35159681Y10193478D01*
X35159681Y10193478D02*
X35151613Y10278279D01*
X35151613Y10278279D02*
X35050676Y10439812D01*
X35050676Y10439812D02*
X34957807Y10516544D01*
X34129988Y10403556D02*
X34808427Y10827491D01*
X34485361Y10625617D02*
X34243112Y11013296D01*
X33887740Y10791235D02*
X34566178Y11215170D01*
X34404679Y11473623D02*
X33625303Y11211220D01*
X33625303Y11211220D02*
X34029153Y11643258D01*
X34029153Y11643258D02*
X33463804Y11469673D01*
X33463804Y11469673D02*
X34041306Y12055141D01*
X25043709Y9869486D02*
X25114308Y10270200D01*
X25406232Y10038533D02*
X25110399Y10672949D01*
X25110399Y10672949D02*
X24868717Y10560251D01*
X24868717Y10560251D02*
X24822384Y10501866D01*
X24822384Y10501866D02*
X24806261Y10457568D01*
X24806261Y10457568D02*
X24804225Y10383061D01*
X24804225Y10383061D02*
X24846487Y10292430D01*
X24846487Y10292430D02*
X24904871Y10246097D01*
X24904871Y10246097D02*
X24949169Y10229974D01*
X24949169Y10229974D02*
X25023677Y10227938D01*
X25023677Y10227938D02*
X25265359Y10340636D01*
X24157758Y10191946D02*
X24204091Y10250331D01*
X24204091Y10250331D02*
X24294722Y10292592D01*
X24294722Y10292592D02*
X24399440Y10304644D01*
X24399440Y10304644D02*
X24488035Y10272398D01*
X24488035Y10272398D02*
X24546420Y10226065D01*
X24546420Y10226065D02*
X24632979Y10119311D01*
X24632979Y10119311D02*
X24675241Y10028680D01*
X24675241Y10028680D02*
X24701380Y9893752D01*
X24701380Y9893752D02*
X24699344Y9819244D01*
X24699344Y9819244D02*
X24667098Y9730649D01*
X24667098Y9730649D02*
X24590555Y9658177D01*
X24590555Y9658177D02*
X24530134Y9630002D01*
X24530134Y9630002D02*
X24425416Y9617951D01*
X24425416Y9617951D02*
X24381119Y9634074D01*
X24381119Y9634074D02*
X24282508Y9845546D01*
X24282508Y9845546D02*
X24403349Y9901895D01*
X23770969Y9680570D02*
X23694425Y9608098D01*
X23694425Y9608098D02*
X23678302Y9563800D01*
X23678302Y9563800D02*
X23676267Y9489292D01*
X23676267Y9489292D02*
X23718529Y9398662D01*
X23718529Y9398662D02*
X23776913Y9352328D01*
X23776913Y9352328D02*
X23821211Y9336205D01*
X23821211Y9336205D02*
X23895719Y9334170D01*
X23895719Y9334170D02*
X24137401Y9446868D01*
X24137401Y9446868D02*
X23841568Y10081283D01*
X23841568Y10081283D02*
X23630096Y9982672D01*
X23630096Y9982672D02*
X23583763Y9924288D01*
X23583763Y9924288D02*
X23567640Y9879990D01*
X23567640Y9879990D02*
X23565604Y9805482D01*
X23565604Y9805482D02*
X23593779Y9745062D01*
X23593779Y9745062D02*
X23652164Y9698728D01*
X23652164Y9698728D02*
X23696461Y9682605D01*
X23696461Y9682605D02*
X23770969Y9680570D01*
X23770969Y9680570D02*
X23982441Y9779181D01*
X29709478Y17378222D02*
X29755811Y17436607D01*
X29755811Y17436607D02*
X29846442Y17478869D01*
X29846442Y17478869D02*
X29951160Y17490920D01*
X29951160Y17490920D02*
X30039755Y17458674D01*
X30039755Y17458674D02*
X30098140Y17412341D01*
X30098140Y17412341D02*
X30184699Y17305587D01*
X30184699Y17305587D02*
X30226961Y17214956D01*
X30226961Y17214956D02*
X30253100Y17080028D01*
X30253100Y17080028D02*
X30251064Y17005520D01*
X30251064Y17005520D02*
X30218818Y16916925D01*
X30218818Y16916925D02*
X30142275Y16844453D01*
X30142275Y16844453D02*
X30081854Y16816279D01*
X30081854Y16816279D02*
X29977136Y16804227D01*
X29977136Y16804227D02*
X29932839Y16820350D01*
X29932839Y16820350D02*
X29834228Y17031822D01*
X29834228Y17031822D02*
X29955069Y17088171D01*
X29689121Y16633144D02*
X29393288Y17267559D01*
X29393288Y17267559D02*
X29326598Y16464097D01*
X29326598Y16464097D02*
X29030765Y17098512D01*
X29024495Y16323224D02*
X28728663Y16957640D01*
X28728663Y16957640D02*
X28577611Y16887203D01*
X28577611Y16887203D02*
X28501068Y16814731D01*
X28501068Y16814731D02*
X28468822Y16726136D01*
X28468822Y16726136D02*
X28466786Y16651628D01*
X28466786Y16651628D02*
X28492925Y16516700D01*
X28492925Y16516700D02*
X28535187Y16426069D01*
X28535187Y16426069D02*
X28621746Y16319315D01*
X28621746Y16319315D02*
X28680131Y16272982D01*
X28680131Y16272982D02*
X28768726Y16240736D01*
X28768726Y16240736D02*
X28873444Y16252788D01*
X28873444Y16252788D02*
X29024495Y16323224D01*
X20647319Y12529674D02*
X20691616Y12513551D01*
X20691616Y12513551D02*
X20796334Y12525602D01*
X20796334Y12525602D02*
X20856755Y12553777D01*
X20856755Y12553777D02*
X20933298Y12626249D01*
X20933298Y12626249D02*
X20965544Y12714844D01*
X20965544Y12714844D02*
X20967580Y12789352D01*
X20967580Y12789352D02*
X20941441Y12924280D01*
X20941441Y12924280D02*
X20899179Y13014911D01*
X20899179Y13014911D02*
X20812620Y13121665D01*
X20812620Y13121665D02*
X20754235Y13167998D01*
X20754235Y13167998D02*
X20665640Y13200244D01*
X20665640Y13200244D02*
X20560922Y13188192D01*
X20560922Y13188192D02*
X20500501Y13160018D01*
X20500501Y13160018D02*
X20423958Y13087546D01*
X20423958Y13087546D02*
X20407835Y13043248D01*
X24065374Y14253060D02*
X23763272Y14112188D01*
X24210318Y14099973D02*
X23703014Y14635778D01*
X23703014Y14635778D02*
X23787375Y13902751D01*
X23273800Y13663268D02*
X23575903Y13804140D01*
X23575903Y13804140D02*
X23280070Y14438556D01*
X26970595Y15602035D02*
X26668493Y15461162D01*
X27115539Y15448948D02*
X26608235Y15984752D01*
X26608235Y15984752D02*
X26692596Y15251726D01*
X26118601Y14984068D02*
X26189200Y15384781D01*
X26481124Y15153115D02*
X26185291Y15787531D01*
X26185291Y15787531D02*
X25943609Y15674832D01*
X25943609Y15674832D02*
X25897276Y15616448D01*
X25897276Y15616448D02*
X25881153Y15572150D01*
X25881153Y15572150D02*
X25879117Y15497642D01*
X25879117Y15497642D02*
X25921379Y15407011D01*
X25921379Y15407011D02*
X25979764Y15360678D01*
X25979764Y15360678D02*
X26024061Y15344555D01*
X26024061Y15344555D02*
X26098569Y15342520D01*
X26098569Y15342520D02*
X26340251Y15455218D01*
X38415571Y6121915D02*
X38377475Y6160010D01*
X38377475Y6160010D02*
X38301285Y6198105D01*
X38301285Y6198105D02*
X38110809Y6198105D01*
X38110809Y6198105D02*
X38034618Y6160010D01*
X38034618Y6160010D02*
X37996523Y6121915D01*
X37996523Y6121915D02*
X37958428Y6045724D01*
X37958428Y6045724D02*
X37958428Y5969534D01*
X37958428Y5969534D02*
X37996523Y5855248D01*
X37996523Y5855248D02*
X38453666Y5398105D01*
X38453666Y5398105D02*
X37958428Y5398105D01*
X29141469Y11803511D02*
X28845636Y12437927D01*
X28845636Y12437927D02*
X28845474Y11886162D01*
X28845474Y11886162D02*
X28422693Y12240705D01*
X28422693Y12240705D02*
X28718526Y11606289D01*
X27999749Y12043483D02*
X27878908Y11987134D01*
X27878908Y11987134D02*
X27832575Y11928749D01*
X27832575Y11928749D02*
X27800329Y11840154D01*
X27800329Y11840154D02*
X27826468Y11705226D01*
X27826468Y11705226D02*
X27925079Y11493754D01*
X27925079Y11493754D02*
X28011638Y11387000D01*
X28011638Y11387000D02*
X28100233Y11354754D01*
X28100233Y11354754D02*
X28174741Y11352718D01*
X28174741Y11352718D02*
X28295582Y11409068D01*
X28295582Y11409068D02*
X28341915Y11467452D01*
X28341915Y11467452D02*
X28374161Y11556047D01*
X28374161Y11556047D02*
X28348022Y11690976D01*
X28348022Y11690976D02*
X28249411Y11902448D01*
X28249411Y11902448D02*
X28162852Y12009201D01*
X28162852Y12009201D02*
X28074257Y12041447D01*
X28074257Y12041447D02*
X27999749Y12043483D01*
X27751798Y11155497D02*
X27455965Y11789912D01*
X27455965Y11789912D02*
X27389274Y10986449D01*
X27389274Y10986449D02*
X27093442Y11620865D01*
X26670498Y11423643D02*
X26549657Y11367294D01*
X26549657Y11367294D02*
X26503324Y11308909D01*
X26503324Y11308909D02*
X26471078Y11220314D01*
X26471078Y11220314D02*
X26497217Y11085386D01*
X26497217Y11085386D02*
X26595828Y10873914D01*
X26595828Y10873914D02*
X26682387Y10767160D01*
X26682387Y10767160D02*
X26770982Y10734914D01*
X26770982Y10734914D02*
X26845490Y10732879D01*
X26845490Y10732879D02*
X26966331Y10789228D01*
X26966331Y10789228D02*
X27012664Y10847612D01*
X27012664Y10847612D02*
X27044910Y10936208D01*
X27044910Y10936208D02*
X27018772Y11071136D01*
X27018772Y11071136D02*
X26920161Y11282608D01*
X26920161Y11282608D02*
X26833601Y11389361D01*
X26833601Y11389361D02*
X26745006Y11421607D01*
X26745006Y11421607D02*
X26670498Y11423643D01*
X38719047Y7935105D02*
X38452380Y7135105D01*
X38452380Y7135105D02*
X38185714Y7935105D01*
X37500000Y7135105D02*
X37957143Y7135105D01*
X37728571Y7135105D02*
X37728571Y7935105D01*
X37728571Y7935105D02*
X37804762Y7820820D01*
X37804762Y7820820D02*
X37880952Y7744629D01*
X37880952Y7744629D02*
X37957143Y7706534D01*
X37157142Y7211296D02*
X37119047Y7173200D01*
X37119047Y7173200D02*
X37157142Y7135105D01*
X37157142Y7135105D02*
X37195238Y7173200D01*
X37195238Y7173200D02*
X37157142Y7211296D01*
X37157142Y7211296D02*
X37157142Y7135105D01*
X36623809Y7935105D02*
X36547619Y7935105D01*
X36547619Y7935105D02*
X36471428Y7897010D01*
X36471428Y7897010D02*
X36433333Y7858915D01*
X36433333Y7858915D02*
X36395238Y7782724D01*
X36395238Y7782724D02*
X36357143Y7630343D01*
X36357143Y7630343D02*
X36357143Y7439867D01*
X36357143Y7439867D02*
X36395238Y7287486D01*
X36395238Y7287486D02*
X36433333Y7211296D01*
X36433333Y7211296D02*
X36471428Y7173200D01*
X36471428Y7173200D02*
X36547619Y7135105D01*
X36547619Y7135105D02*
X36623809Y7135105D01*
X36623809Y7135105D02*
X36700000Y7173200D01*
X36700000Y7173200D02*
X36738095Y7211296D01*
X36738095Y7211296D02*
X36776190Y7287486D01*
X36776190Y7287486D02*
X36814286Y7439867D01*
X36814286Y7439867D02*
X36814286Y7630343D01*
X36814286Y7630343D02*
X36776190Y7782724D01*
X36776190Y7782724D02*
X36738095Y7858915D01*
X36738095Y7858915D02*
X36700000Y7897010D01*
X36700000Y7897010D02*
X36623809Y7935105D01*
X5236863Y7736567D02*
X5470196Y8069900D01*
X5636863Y7736567D02*
X5636863Y8436567D01*
X5636863Y8436567D02*
X5370196Y8436567D01*
X5370196Y8436567D02*
X5303530Y8403234D01*
X5303530Y8403234D02*
X5270196Y8369900D01*
X5270196Y8369900D02*
X5236863Y8303234D01*
X5236863Y8303234D02*
X5236863Y8203234D01*
X5236863Y8203234D02*
X5270196Y8136567D01*
X5270196Y8136567D02*
X5303530Y8103234D01*
X5303530Y8103234D02*
X5370196Y8069900D01*
X5370196Y8069900D02*
X5636863Y8069900D01*
X4536863Y7803234D02*
X4570196Y7769900D01*
X4570196Y7769900D02*
X4670196Y7736567D01*
X4670196Y7736567D02*
X4736863Y7736567D01*
X4736863Y7736567D02*
X4836863Y7769900D01*
X4836863Y7769900D02*
X4903530Y7836567D01*
X4903530Y7836567D02*
X4936863Y7903234D01*
X4936863Y7903234D02*
X4970196Y8036567D01*
X4970196Y8036567D02*
X4970196Y8136567D01*
X4970196Y8136567D02*
X4936863Y8269900D01*
X4936863Y8269900D02*
X4903530Y8336567D01*
X4903530Y8336567D02*
X4836863Y8403234D01*
X4836863Y8403234D02*
X4736863Y8436567D01*
X4736863Y8436567D02*
X4670196Y8436567D01*
X4670196Y8436567D02*
X4570196Y8403234D01*
X4570196Y8403234D02*
X4536863Y8369900D01*
X4270196Y8369900D02*
X4236863Y8403234D01*
X4236863Y8403234D02*
X4170196Y8436567D01*
X4170196Y8436567D02*
X4003530Y8436567D01*
X4003530Y8436567D02*
X3936863Y8403234D01*
X3936863Y8403234D02*
X3903530Y8369900D01*
X3903530Y8369900D02*
X3870196Y8303234D01*
X3870196Y8303234D02*
X3870196Y8236567D01*
X3870196Y8236567D02*
X3903530Y8136567D01*
X3903530Y8136567D02*
X4303530Y7736567D01*
X4303530Y7736567D02*
X3870196Y7736567D01*
X24116666Y7831367D02*
X24349999Y8164700D01*
X24516666Y7831367D02*
X24516666Y8531367D01*
X24516666Y8531367D02*
X24249999Y8531367D01*
X24249999Y8531367D02*
X24183333Y8498034D01*
X24183333Y8498034D02*
X24149999Y8464700D01*
X24149999Y8464700D02*
X24116666Y8398034D01*
X24116666Y8398034D02*
X24116666Y8298034D01*
X24116666Y8298034D02*
X24149999Y8231367D01*
X24149999Y8231367D02*
X24183333Y8198034D01*
X24183333Y8198034D02*
X24249999Y8164700D01*
X24249999Y8164700D02*
X24516666Y8164700D01*
X23783333Y7831367D02*
X23649999Y7831367D01*
X23649999Y7831367D02*
X23583333Y7864700D01*
X23583333Y7864700D02*
X23549999Y7898034D01*
X23549999Y7898034D02*
X23483333Y7998034D01*
X23483333Y7998034D02*
X23449999Y8131367D01*
X23449999Y8131367D02*
X23449999Y8398034D01*
X23449999Y8398034D02*
X23483333Y8464700D01*
X23483333Y8464700D02*
X23516666Y8498034D01*
X23516666Y8498034D02*
X23583333Y8531367D01*
X23583333Y8531367D02*
X23716666Y8531367D01*
X23716666Y8531367D02*
X23783333Y8498034D01*
X23783333Y8498034D02*
X23816666Y8464700D01*
X23816666Y8464700D02*
X23849999Y8398034D01*
X23849999Y8398034D02*
X23849999Y8231367D01*
X23849999Y8231367D02*
X23816666Y8164700D01*
X23816666Y8164700D02*
X23783333Y8131367D01*
X23783333Y8131367D02*
X23716666Y8098034D01*
X23716666Y8098034D02*
X23583333Y8098034D01*
X23583333Y8098034D02*
X23516666Y8131367D01*
X23516666Y8131367D02*
X23483333Y8164700D01*
X23483333Y8164700D02*
X23449999Y8231367D01*
X16456333Y6931367D02*
X16456333Y6364700D01*
X16456333Y6364700D02*
X16423000Y6298034D01*
X16423000Y6298034D02*
X16389666Y6264700D01*
X16389666Y6264700D02*
X16323000Y6231367D01*
X16323000Y6231367D02*
X16189666Y6231367D01*
X16189666Y6231367D02*
X16123000Y6264700D01*
X16123000Y6264700D02*
X16089666Y6298034D01*
X16089666Y6298034D02*
X16056333Y6364700D01*
X16056333Y6364700D02*
X16056333Y6931367D01*
X15356333Y6231367D02*
X15756333Y6231367D01*
X15556333Y6231367D02*
X15556333Y6931367D01*
X15556333Y6931367D02*
X15623000Y6831367D01*
X15623000Y6831367D02*
X15689667Y6764700D01*
X15689667Y6764700D02*
X15756333Y6731367D01*
X13468633Y8616667D02*
X13135300Y8850000D01*
X13468633Y9016667D02*
X12768633Y9016667D01*
X12768633Y9016667D02*
X12768633Y8750000D01*
X12768633Y8750000D02*
X12801966Y8683333D01*
X12801966Y8683333D02*
X12835300Y8650000D01*
X12835300Y8650000D02*
X12901966Y8616667D01*
X12901966Y8616667D02*
X13001966Y8616667D01*
X13001966Y8616667D02*
X13068633Y8650000D01*
X13068633Y8650000D02*
X13101966Y8683333D01*
X13101966Y8683333D02*
X13135300Y8750000D01*
X13135300Y8750000D02*
X13135300Y9016667D01*
X12768633Y8383333D02*
X12768633Y7916667D01*
X12768633Y7916667D02*
X13468633Y8216667D01*
X8466666Y5531367D02*
X8699999Y5864700D01*
X8866666Y5531367D02*
X8866666Y6231367D01*
X8866666Y6231367D02*
X8599999Y6231367D01*
X8599999Y6231367D02*
X8533333Y6198034D01*
X8533333Y6198034D02*
X8499999Y6164700D01*
X8499999Y6164700D02*
X8466666Y6098034D01*
X8466666Y6098034D02*
X8466666Y5998034D01*
X8466666Y5998034D02*
X8499999Y5931367D01*
X8499999Y5931367D02*
X8533333Y5898034D01*
X8533333Y5898034D02*
X8599999Y5864700D01*
X8599999Y5864700D02*
X8866666Y5864700D01*
X7766666Y5598034D02*
X7799999Y5564700D01*
X7799999Y5564700D02*
X7899999Y5531367D01*
X7899999Y5531367D02*
X7966666Y5531367D01*
X7966666Y5531367D02*
X8066666Y5564700D01*
X8066666Y5564700D02*
X8133333Y5631367D01*
X8133333Y5631367D02*
X8166666Y5698034D01*
X8166666Y5698034D02*
X8199999Y5831367D01*
X8199999Y5831367D02*
X8199999Y5931367D01*
X8199999Y5931367D02*
X8166666Y6064700D01*
X8166666Y6064700D02*
X8133333Y6131367D01*
X8133333Y6131367D02*
X8066666Y6198034D01*
X8066666Y6198034D02*
X7966666Y6231367D01*
X7966666Y6231367D02*
X7899999Y6231367D01*
X7899999Y6231367D02*
X7799999Y6198034D01*
X7799999Y6198034D02*
X7766666Y6164700D01*
X7099999Y5531367D02*
X7499999Y5531367D01*
X7299999Y5531367D02*
X7299999Y6231367D01*
X7299999Y6231367D02*
X7366666Y6131367D01*
X7366666Y6131367D02*
X7433333Y6064700D01*
X7433333Y6064700D02*
X7499999Y6031367D01*
D11*
%TO.C,RC2*%
X4227064Y7140200D02*
X3772936Y7140200D01*
X4227064Y5670200D02*
X3772936Y5670200D01*
%TO.C,R9*%
X24227064Y7235000D02*
X23772936Y7235000D01*
X24227064Y5765000D02*
X23772936Y5765000D01*
%TO.C,U1*%
X14965000Y10610000D02*
X14965000Y10560000D01*
X14965000Y9440000D02*
X14965000Y8660000D01*
X14965000Y7540000D02*
X14965000Y7490000D01*
X14965000Y7490000D02*
X16735000Y7490000D01*
X16735000Y10610000D02*
X14965000Y10610000D01*
X16735000Y10560000D02*
X16735000Y10610000D01*
X16735000Y7490000D02*
X16735000Y7540000D01*
X17280000Y10560000D02*
X17040000Y10890000D01*
X17520000Y10890000D01*
X17280000Y10560000D01*
G36*
X17280000Y10560000D02*
G01*
X17040000Y10890000D01*
X17520000Y10890000D01*
X17280000Y10560000D01*
G37*
%TO.C,R7*%
X10765000Y8272936D02*
X10765000Y8727064D01*
X12235000Y8272936D02*
X12235000Y8727064D01*
%TO.C,JP1*%
X25319551Y13443642D02*
X26164787Y11631027D01*
X26164787Y11631027D02*
X28702449Y12814358D01*
X27857213Y14626973D02*
X25319551Y13443642D01*
X28702449Y12814358D02*
X27857213Y14626973D01*
%TO.C,JP2*%
X22017551Y11919642D02*
X22862787Y10107027D01*
X22862787Y10107027D02*
X25400449Y11290358D01*
X24555213Y13102973D02*
X22017551Y11919642D01*
X25400449Y11290358D02*
X24555213Y13102973D01*
%TO.C,JP3*%
X18715551Y10395642D02*
X19560787Y8583027D01*
X19560787Y8583027D02*
X22098449Y9766358D01*
X21253213Y11578973D02*
X18715551Y10395642D01*
X22098449Y9766358D02*
X21253213Y11578973D01*
%TO.C,RC1*%
X7772936Y8235000D02*
X8227064Y8235000D01*
X7772936Y6765000D02*
X8227064Y6765000D01*
%TD*%
M02*
