M48
; DRILL file {KiCad 9.0.7} date 2026-03-18T00:02:00-0600
; FORMAT={-:-/ absolute / metric / decimal}
; #@! TF.CreationDate,2026-03-18T00:02:00-06:00
; #@! TF.GenerationSoftware,Kicad,Pcbnew,9.0.7
; #@! TF.FileFunction,Plated,1,4,PTH
FMAT,2
METRIC
; #@! TA.AperFunction,Plated,PTH,ViaDrill
T1C0.400
%
G90
G05
T1
X4.841Y8.299
X6.132Y3.248
X6.132Y1.42
X6.869Y4.112
X6.869Y2.309
X8.5Y10.5
X8.5Y9.0
X8.5Y5.788
X11.0Y7.0
X11.85Y10.7
X14.743Y12.291
X15.751Y2.487
X15.993Y10.812
X16.47Y13.256
X17.0Y8.1
X17.74Y12.748
X21.0Y8.5
X21.994Y13.824
X23.377Y2.528
X24.249Y10.163
X24.316Y8.792
X24.5Y14.0
X26.503Y12.875
X27.722Y2.359
X27.9Y13.129
X28.0Y12.0
X28.154Y18.59
X28.459Y15.999
X29.17Y18.082
X29.957Y15.059
X30.0Y9.5
X30.44Y14.094
X30.491Y7.516
X30.592Y17.066
X30.973Y15.491
X31.0Y2.5
X31.38Y14.551
X34.0Y8.5
X35.342Y2.359
X36.0Y9.0
X37.806Y7.16
X38.5Y6.0
M30
