%TF.GenerationSoftware,KiCad,Pcbnew,9.0.7*%
%TF.CreationDate,2026-03-18T00:02:03-06:00*%
%TF.ProjectId,ScartPCB,53636172-7450-4434-922e-6b696361645f,1.0*%
%TF.SameCoordinates,PX76bb820PY7641700*%
%TF.FileFunction,Copper,L4,Bot*%
%TF.FilePolarity,Positive*%
%FSLAX46Y46*%
G04 Gerber Fmt 4.6, Leading zero omitted, Abs format (unit mm)*
G04 Created by KiCad (PCBNEW 9.0.7) date 2026-03-18 00:02:03*
%MOMM*%
%LPD*%
G01*
G04 APERTURE LIST*
G04 Aperture macros list*
%AMRoundRect*
0 Rectangle with rounded corners*
0 $1 Rounding radius*
0 $2 $3 $4 $5 $6 $7 $8 $9 X,Y pos of 4 corners*
0 Add a 4 corners polygon primitive as box body*
4,1,4,$2,$3,$4,$5,$6,$7,$8,$9,$2,$3,0*
0 Add four circle primitives for the rounded corners*
1,1,$1+$1,$2,$3*
1,1,$1+$1,$4,$5*
1,1,$1+$1,$6,$7*
1,1,$1+$1,$8,$9*
0 Add four rect primitives between the rounded corners*
20,1,$1+$1,$2,$3,$4,$5,0*
20,1,$1+$1,$4,$5,$6,$7,0*
20,1,$1+$1,$6,$7,$8,$9,0*
20,1,$1+$1,$8,$9,$2,$3,0*%
%AMFreePoly0*
4,1,6,1.000000,0.000000,0.500000,-0.750000,-0.500000,-0.750000,-0.500000,0.750000,0.500000,0.750000,1.000000,0.000000,1.000000,0.000000,$1*%
%AMFreePoly1*
4,1,6,0.500000,-0.750000,-0.650000,-0.750000,-0.150000,0.000000,-0.650000,0.750000,0.500000,0.750000,0.500000,-0.750000,0.500000,-0.750000,$1*%
G04 Aperture macros list end*
%TA.AperFunction,SMDPad,CuDef*%
%ADD10RoundRect,0.571500X-0.571500X-1.562000X0.571500X-1.562000X0.571500X1.562000X-0.571500X1.562000X0*%
%TD*%
%TA.AperFunction,SMDPad,CuDef*%
%ADD11RoundRect,0.250000X0.350000X0.450000X-0.350000X0.450000X-0.350000X-0.450000X0.350000X-0.450000X0*%
%TD*%
%TA.AperFunction,SMDPad,CuDef*%
%ADD12RoundRect,0.571500X-0.276429X-0.759481X0.759481X-0.276429X0.276429X0.759481X-0.759481X0.276429X0*%
%TD*%
%TA.AperFunction,SMDPad,CuDef*%
%ADD13RoundRect,0.150000X0.650000X0.150000X-0.650000X0.150000X-0.650000X-0.150000X0.650000X-0.150000X0*%
%TD*%
%TA.AperFunction,SMDPad,CuDef*%
%ADD14RoundRect,0.250000X0.450000X-0.350000X0.450000X0.350000X-0.450000X0.350000X-0.450000X-0.350000X0*%
%TD*%
%TA.AperFunction,SMDPad,CuDef*%
%ADD15FreePoly0,25.000000*%
%TD*%
%TA.AperFunction,SMDPad,CuDef*%
%ADD16FreePoly1,25.000000*%
%TD*%
%TA.AperFunction,SMDPad,CuDef*%
%ADD17FreePoly0,205.000000*%
%TD*%
%TA.AperFunction,SMDPad,CuDef*%
%ADD18FreePoly1,205.000000*%
%TD*%
%TA.AperFunction,SMDPad,CuDef*%
%ADD19RoundRect,0.250000X-0.350000X-0.450000X0.350000X-0.450000X0.350000X0.450000X-0.350000X0.450000X0*%
%TD*%
%TA.AperFunction,ViaPad*%
%ADD20C,0.800000*%
%TD*%
%TA.AperFunction,Conductor*%
%ADD21C,0.350000*%
%TD*%
%TA.AperFunction,Conductor*%
%ADD22C,0.250000*%
%TD*%
G04 APERTURE END LIST*
D10*
%TO.P,J1,2,Pin_2*%
%TO.N,AR*%
X36747500Y2642500D03*
%TO.P,J1,4,Pin_4*%
%TO.N,GND*%
X32937500Y2642500D03*
%TO.P,J1,6,Pin_6*%
%TO.N,AL*%
X29127500Y2642500D03*
%TO.P,J1,8,Pin_8*%
%TO.N,unconnected-(J1-Pin_8-Pad8)*%
X25317500Y2642500D03*
%TO.P,J1,10,Pin_10*%
%TO.N,unconnected-(J1-Pin_10-Pad10)*%
X21507500Y2642500D03*
%TO.P,J1,12,Pin_12*%
%TO.N,unconnected-(J1-Pin_12-Pad12)*%
X17697500Y2642500D03*
%TO.P,J1,14,Pin_14*%
%TO.N,GND*%
X13887500Y2642500D03*
%TO.P,J1,16,Pin_16*%
%TO.N,RGB_BLANKING*%
X10077500Y2642500D03*
%TO.P,J1,18,Pin_18*%
%TO.N,GND*%
X6267500Y2642500D03*
%TO.P,J1,20,Pin_20*%
%TO.N,COMPOSITE_SYNC*%
X2457500Y2642500D03*
%TD*%
D11*
%TO.P,RC2,1*%
%TO.N,COMPOSITE_SYNC*%
X5000000Y6405200D03*
%TO.P,RC2,2*%
%TO.N,GND*%
X3000000Y6405200D03*
%TD*%
D12*
%TO.P,JI4,1,Pin_1*%
%TO.N,C*%
X19988949Y14335500D03*
%TD*%
%TO.P,JI8,1,Pin_1*%
%TO.N,+5V*%
X30694000Y14780000D03*
%TD*%
%TO.P,JI11,1,Pin_1*%
%TO.N,GND*%
X17105000Y13002000D03*
%TD*%
D11*
%TO.P,R9,1*%
%TO.N,Net-(JP2-B)*%
X25000000Y6500000D03*
%TO.P,R9,2*%
%TO.N,RGB_BLANKING*%
X23000000Y6500000D03*
%TD*%
D13*
%TO.P,U1,1,NC*%
%TO.N,unconnected-(U1-NC-Pad1)*%
X17000000Y10000000D03*
%TO.P,U1,2*%
%TO.N,C*%
X17000000Y9050000D03*
%TO.P,U1,3,GND*%
%TO.N,GND*%
X17000000Y8100000D03*
%TO.P,U1,4*%
%TO.N,C_SYNC*%
X14700000Y8100000D03*
%TO.P,U1,5,VCC*%
%TO.N,+5V*%
X14700000Y10000000D03*
%TD*%
D14*
%TO.P,R7,1*%
%TO.N,Net-(CC1-Pad1)*%
X11500000Y7500000D03*
%TO.P,R7,2*%
%TO.N,C_SYNC*%
X11500000Y9500000D03*
%TD*%
D12*
%TO.P,JI7,1,Pin_1*%
%TO.N,AL*%
X22872898Y15669000D03*
%TD*%
D15*
%TO.P,JP1,1,A*%
%TO.N,AL*%
X26353927Y12822602D03*
D16*
%TO.P,JP1,2,B*%
%TO.N,AR*%
X27668073Y13435398D03*
%TD*%
D12*
%TO.P,JI6,1,Pin_1*%
%TO.N,AR*%
X25756847Y17002500D03*
%TD*%
%TO.P,JI10,1,Pin_1*%
%TO.N,GND*%
X28662000Y18336000D03*
%TD*%
D17*
%TO.P,JP2,1,A*%
%TO.N,+5V*%
X24366073Y11911398D03*
D18*
%TO.P,JP2,2,B*%
%TO.N,Net-(JP2-B)*%
X23051927Y11298602D03*
%TD*%
D17*
%TO.P,JP3,1,A*%
%TO.N,C*%
X21064073Y10387398D03*
D18*
%TO.P,JP3,2,B*%
%TO.N,C_SYNC*%
X19749927Y9774602D03*
%TD*%
D19*
%TO.P,RC1,1*%
%TO.N,COMPOSITE_SYNC*%
X7000000Y7500000D03*
%TO.P,RC1,2*%
%TO.N,Net-(CC1-Pad2)*%
X9000000Y7500000D03*
%TD*%
D20*
%TO.N,GND*%
X6868800Y2308600D03*
X14742800Y12290800D03*
X38500000Y6000000D03*
X15750736Y2487405D03*
X30592400Y17066000D03*
X4841014Y8298785D03*
X21000000Y8500000D03*
X28154000Y18590000D03*
X28458800Y15999200D03*
X24315961Y8792350D03*
X36000000Y9000000D03*
X30490800Y7515600D03*
X17740000Y12748000D03*
X28000000Y12000000D03*
X6868800Y4112000D03*
X8500000Y5788400D03*
X29170000Y18082000D03*
X31000000Y2500000D03*
X16470000Y13256000D03*
X6132200Y1419600D03*
X6132200Y3248400D03*
X17000000Y8100000D03*
X37806000Y7160000D03*
X23376588Y2528022D03*
X21993553Y13823923D03*
X8500000Y10500000D03*
X24500000Y14000000D03*
X30000000Y9500000D03*
X34000000Y8500000D03*
%TO.N,+5V*%
X29957400Y15059400D03*
X15993448Y10812048D03*
X30440000Y14094200D03*
X31379800Y14551400D03*
X24248564Y10163403D03*
X30973400Y15491200D03*
X11850000Y10700000D03*
%TO.N,AL*%
X27722200Y2359400D03*
X26503000Y12875000D03*
%TO.N,AR*%
X35342200Y2359400D03*
X27900000Y13129000D03*
%TO.N,Net-(CC1-Pad1)*%
X11000000Y7000000D03*
%TO.N,Net-(CC1-Pad2)*%
X8500000Y9000000D03*
%TD*%
D21*
%TO.N,GND*%
X30490800Y8501202D02*
X30480599Y8491001D01*
%TO.N,+5V*%
X24248564Y10163403D02*
X24366073Y10280912D01*
X15181400Y10000000D02*
X15993448Y10812048D01*
X24366073Y10280912D02*
X24366073Y11911398D01*
X14700000Y10000000D02*
X15181400Y10000000D01*
D22*
%TO.N,Net-(JP2-B)*%
X23051927Y11298602D02*
X23051927Y8448073D01*
X23051927Y8448073D02*
X25000000Y6500000D01*
%TO.N,RGB_BLANKING*%
X13935000Y6500000D02*
X10077500Y2642500D01*
X23000000Y6500000D02*
X13935000Y6500000D01*
%TO.N,COMPOSITE_SYNC*%
X5000000Y6405200D02*
X5000000Y5185000D01*
X5000000Y5185000D02*
X2457500Y2642500D01*
X6094800Y7500000D02*
X5000000Y6405200D01*
X7000000Y7500000D02*
X6094800Y7500000D01*
%TO.N,C_SYNC*%
X15426000Y7374000D02*
X14700000Y8100000D01*
X19749927Y8941551D02*
X18182376Y7374000D01*
X19749927Y9774602D02*
X19749927Y8941551D01*
X12900000Y8100000D02*
X11500000Y9500000D01*
X14700000Y8100000D02*
X12900000Y8100000D01*
X18182376Y7374000D02*
X15426000Y7374000D01*
%TO.N,C*%
X21064073Y11176527D02*
X21064073Y10387398D01*
X19988949Y12251651D02*
X21064073Y11176527D01*
X18126000Y10176000D02*
X18126000Y9376001D01*
X19988949Y12038949D02*
X18126000Y10176000D01*
X18126000Y9376001D02*
X17799999Y9050000D01*
X19988949Y14335500D02*
X19988949Y12038949D01*
X19988949Y14335500D02*
X19988949Y12251651D01*
X17799999Y9050000D02*
X17000000Y9050000D01*
%TO.N,AL*%
X23963000Y15669000D02*
X22872898Y15669000D01*
X26503000Y12875000D02*
X26503000Y13129000D01*
X26503000Y13129000D02*
X23963000Y15669000D01*
X27722200Y2359400D02*
X29123900Y2359400D01*
X29123900Y2359400D02*
X29127500Y2363000D01*
%TO.N,AR*%
X27900000Y13129000D02*
X26779073Y14249927D01*
X26779073Y14249927D02*
X26779073Y15980274D01*
X26779073Y15980274D02*
X25756847Y17002500D01*
X35345800Y2363000D02*
X36747500Y2363000D01*
X35342200Y2359400D02*
X35345800Y2363000D01*
%TO.N,Net-(CC1-Pad1)*%
X11000000Y7000000D02*
X11500000Y7500000D01*
%TO.N,Net-(CC1-Pad2)*%
X9000000Y7500000D02*
X9000000Y8500000D01*
X9000000Y8500000D02*
X8500000Y9000000D01*
%TD*%
%TA.AperFunction,Conductor*%
%TO.N,GND*%
G36*
X29531669Y20932945D02*
G01*
X29558610Y20901344D01*
X36983347Y8526783D01*
X36994609Y8508014D01*
X36994611Y8508011D01*
X36999500Y8499862D01*
X36999500Y8499793D01*
X36999602Y8499691D01*
X36999701Y8499526D01*
X36999788Y8499505D01*
X36999793Y8499500D01*
X36999807Y8499500D01*
X37002135Y8498927D01*
X37009769Y8499500D01*
X39373500Y8499500D01*
X39441621Y8479498D01*
X39488114Y8425842D01*
X39499500Y8373500D01*
X39499500Y126500D01*
X39479498Y58379D01*
X39425842Y11886D01*
X39373500Y500D01*
X38061088Y500D01*
X37992967Y20502D01*
X37946474Y74158D01*
X37936370Y144432D01*
X37965864Y209012D01*
X37990464Y230847D01*
X38009753Y243902D01*
X38155598Y389747D01*
X38271205Y560557D01*
X38352398Y750159D01*
X38396240Y951700D01*
X38399000Y998030D01*
X38399000Y4286970D01*
X38396240Y4333300D01*
X38352398Y4534841D01*
X38271205Y4724443D01*
X38155598Y4895253D01*
X38155597Y4895254D01*
X38155592Y4895260D01*
X38009759Y5041093D01*
X38009753Y5041098D01*
X37965658Y5070942D01*
X37838943Y5156705D01*
X37838940Y5156707D01*
X37838939Y5156707D01*
X37649339Y5237899D01*
X37447798Y5281741D01*
X37401473Y5284500D01*
X37401470Y5284500D01*
X36093530Y5284500D01*
X36093526Y5284500D01*
X36047201Y5281741D01*
X35845660Y5237899D01*
X35656060Y5156707D01*
X35656057Y5156705D01*
X35485246Y5041098D01*
X35485240Y5041093D01*
X35339407Y4895260D01*
X35339402Y4895254D01*
X35223795Y4724443D01*
X35223793Y4724440D01*
X35142601Y4534840D01*
X35098759Y4333299D01*
X35096000Y4286974D01*
X35096000Y3324965D01*
X35075998Y3256844D01*
X35022342Y3210351D01*
X35018219Y3208556D01*
X34911860Y3164501D01*
X34911859Y3164500D01*
X34784501Y3079402D01*
X34716749Y3058187D01*
X34648282Y3076970D01*
X34600839Y3129788D01*
X34588500Y3184167D01*
X34588500Y4286907D01*
X34588499Y4286927D01*
X34585740Y4333239D01*
X34541918Y4534691D01*
X34460765Y4724199D01*
X34460763Y4724202D01*
X34345211Y4894932D01*
X34345206Y4894938D01*
X34199437Y5040707D01*
X34199431Y5040712D01*
X34028701Y5156264D01*
X34028698Y5156266D01*
X33839190Y5237419D01*
X33637738Y5281241D01*
X33591426Y5284000D01*
X33191500Y5284000D01*
X33191500Y2768500D01*
X33171498Y2700379D01*
X33117842Y2653886D01*
X33065500Y2642500D01*
X32937500Y2642500D01*
X32937500Y2514500D01*
X32917498Y2446379D01*
X32863842Y2399886D01*
X32811500Y2388500D01*
X31286500Y2388500D01*
X31286500Y998074D01*
X31289259Y951762D01*
X31333081Y750310D01*
X31414234Y560802D01*
X31414236Y560799D01*
X31529788Y390069D01*
X31529793Y390063D01*
X31675562Y244294D01*
X31675566Y244291D01*
X31695428Y230848D01*
X31740631Y176101D01*
X31749061Y105607D01*
X31718040Y41746D01*
X31657418Y4794D01*
X31624805Y500D01*
X30441088Y500D01*
X30372967Y20502D01*
X30326474Y74158D01*
X30316370Y144432D01*
X30345864Y209012D01*
X30370464Y230847D01*
X30389753Y243902D01*
X30535598Y389747D01*
X30651205Y560557D01*
X30732398Y750159D01*
X30776240Y951700D01*
X30779000Y998030D01*
X30779000Y4286927D01*
X31286500Y4286927D01*
X31286500Y2896500D01*
X32683500Y2896500D01*
X32683500Y5284000D01*
X32283573Y5284000D01*
X32237261Y5281241D01*
X32035809Y5237419D01*
X31846301Y5156266D01*
X31846298Y5156264D01*
X31675568Y5040712D01*
X31675562Y5040707D01*
X31529793Y4894938D01*
X31529788Y4894932D01*
X31414236Y4724202D01*
X31414234Y4724199D01*
X31333081Y4534691D01*
X31289259Y4333239D01*
X31286500Y4286927D01*
X30779000Y4286927D01*
X30779000Y4286970D01*
X30776240Y4333300D01*
X30732398Y4534841D01*
X30651205Y4724443D01*
X30535598Y4895253D01*
X30535597Y4895254D01*
X30535592Y4895260D01*
X30389759Y5041093D01*
X30389753Y5041098D01*
X30345658Y5070942D01*
X30218943Y5156705D01*
X30218940Y5156707D01*
X30218939Y5156707D01*
X30029339Y5237899D01*
X29827798Y5281741D01*
X29781473Y5284500D01*
X29781470Y5284500D01*
X28473530Y5284500D01*
X28473526Y5284500D01*
X28427201Y5281741D01*
X28225660Y5237899D01*
X28036060Y5156707D01*
X28036057Y5156705D01*
X27865246Y5041098D01*
X27865240Y5041093D01*
X27719407Y4895260D01*
X27719402Y4895254D01*
X27603795Y4724443D01*
X27603793Y4724440D01*
X27522601Y4534840D01*
X27478759Y4333299D01*
X27476000Y4286974D01*
X27476000Y3324965D01*
X27455998Y3256844D01*
X27402342Y3210351D01*
X27398221Y3208558D01*
X27340146Y3184501D01*
X27291862Y3164501D01*
X27165002Y3079736D01*
X27097249Y3058521D01*
X27028782Y3077304D01*
X26981339Y3130122D01*
X26969000Y3184501D01*
X26969000Y4286954D01*
X26969000Y4286970D01*
X26966240Y4333300D01*
X26922398Y4534841D01*
X26841205Y4724443D01*
X26725598Y4895253D01*
X26725597Y4895254D01*
X26725592Y4895260D01*
X26579759Y5041093D01*
X26579753Y5041098D01*
X26535658Y5070942D01*
X26408943Y5156705D01*
X26408940Y5156707D01*
X26408939Y5156707D01*
X26219339Y5237899D01*
X26017798Y5281741D01*
X25971473Y5284500D01*
X25971470Y5284500D01*
X25961373Y5284500D01*
X25893252Y5304502D01*
X25846759Y5358158D01*
X25836655Y5428432D01*
X25866149Y5493012D01*
X25872278Y5499595D01*
X25949024Y5576342D01*
X25949030Y5576348D01*
X26042115Y5727262D01*
X26097887Y5895574D01*
X26108500Y5999455D01*
X26108499Y7000544D01*
X26097887Y7104426D01*
X26042115Y7272738D01*
X25949030Y7423652D01*
X25949029Y7423653D01*
X25949024Y7423659D01*
X25823658Y7549025D01*
X25823652Y7549030D01*
X25736811Y7602594D01*
X25672738Y7642115D01*
X25588582Y7670001D01*
X25504427Y7697887D01*
X25504420Y7697888D01*
X25400553Y7708500D01*
X25400545Y7708500D01*
X24739594Y7708500D01*
X24671473Y7728502D01*
X24650499Y7745405D01*
X23722332Y8673572D01*
X23688306Y8735884D01*
X23685427Y8762667D01*
X23685427Y9224737D01*
X23705429Y9292858D01*
X23759085Y9339351D01*
X23829359Y9349455D01*
X23859646Y9341145D01*
X23983556Y9289819D01*
X23983557Y9289819D01*
X23983564Y9289816D01*
X24159085Y9254903D01*
X24159086Y9254903D01*
X24338042Y9254903D01*
X24338043Y9254903D01*
X24513564Y9289816D01*
X24678900Y9358301D01*
X24827699Y9457725D01*
X24954242Y9584268D01*
X25053666Y9733067D01*
X25122151Y9898403D01*
X25157064Y10073924D01*
X25157064Y10252882D01*
X25122151Y10428403D01*
X25119418Y10435000D01*
X25059165Y10580464D01*
X25057511Y10588774D01*
X25054677Y10593185D01*
X25049573Y10628683D01*
X25049573Y10755731D01*
X25069575Y10823852D01*
X25122322Y10869926D01*
X25353205Y10977587D01*
X25417228Y11013208D01*
X25526924Y11109794D01*
X25604965Y11233373D01*
X25645028Y11373932D01*
X25644194Y11479052D01*
X25663655Y11547327D01*
X25716941Y11594244D01*
X25787132Y11604905D01*
X25851945Y11575925D01*
X25864758Y11563313D01*
X25884553Y11540831D01*
X25884552Y11540831D01*
X25884554Y11540830D01*
X25884555Y11540829D01*
X26008134Y11462788D01*
X26148693Y11422725D01*
X26294845Y11423884D01*
X26434751Y11466173D01*
X27341059Y11888791D01*
X27397821Y11919751D01*
X27433906Y11950465D01*
X27479112Y11975120D01*
X27517741Y11986797D01*
X27612951Y12015576D01*
X28085466Y12235914D01*
X28114121Y12245293D01*
X28165000Y12255413D01*
X28330336Y12323898D01*
X28330339Y12323901D01*
X28330341Y12323901D01*
X28452107Y12405264D01*
X28468856Y12414693D01*
X28655205Y12501587D01*
X28719228Y12537208D01*
X28828924Y12633794D01*
X28906965Y12757373D01*
X28947028Y12897932D01*
X28945869Y13044085D01*
X28903580Y13183991D01*
X28902329Y13186673D01*
X28340756Y14390970D01*
X28269652Y14543453D01*
X28234031Y14607475D01*
X28137447Y14717169D01*
X28137447Y14717170D01*
X28013868Y14795211D01*
X28013867Y14795212D01*
X28013866Y14795212D01*
X27873307Y14835275D01*
X27873306Y14835275D01*
X27727157Y14834117D01*
X27727156Y14834117D01*
X27587237Y14791824D01*
X27583531Y14790408D01*
X27551983Y14787903D01*
X27520641Y14783396D01*
X27516878Y14785115D01*
X27512757Y14784787D01*
X27484855Y14799740D01*
X27456061Y14812890D01*
X27453825Y14816369D01*
X27450180Y14818322D01*
X27434790Y14845987D01*
X27417677Y14872616D01*
X27416875Y14878194D01*
X27415667Y14880365D01*
X27412573Y14908114D01*
X27412573Y15125248D01*
X28851791Y15125248D01*
X28851791Y15125240D01*
X28851791Y15125238D01*
X28858334Y14919086D01*
X28903775Y14717900D01*
X28920853Y14674744D01*
X29473612Y13489348D01*
X29495694Y13448525D01*
X29620603Y13284395D01*
X29774318Y13146871D01*
X29951281Y13040922D01*
X30145098Y12970379D01*
X30145102Y12970379D01*
X30145103Y12970378D01*
X30348756Y12937792D01*
X30348762Y12937791D01*
X30554914Y12944334D01*
X30756100Y12989775D01*
X30799256Y13006853D01*
X31984652Y13559612D01*
X32025475Y13581694D01*
X32189605Y13706603D01*
X32327129Y13860318D01*
X32433078Y14037281D01*
X32503621Y14231098D01*
X32536209Y14434762D01*
X32529666Y14640914D01*
X32484225Y14842100D01*
X32467147Y14885256D01*
X31914388Y16070652D01*
X31892306Y16111475D01*
X31767397Y16275605D01*
X31613682Y16413129D01*
X31436719Y16519078D01*
X31436718Y16519079D01*
X31436717Y16519079D01*
X31315148Y16563326D01*
X31242902Y16589621D01*
X31242901Y16589622D01*
X31242896Y16589623D01*
X31039243Y16622209D01*
X31039238Y16622209D01*
X30867444Y16616757D01*
X30833085Y16615666D01*
X30631899Y16570225D01*
X30588744Y16553147D01*
X29403343Y16000386D01*
X29362526Y15978307D01*
X29362522Y15978304D01*
X29198397Y15853399D01*
X29198395Y15853398D01*
X29198395Y15853397D01*
X29060871Y15699682D01*
X29060870Y15699680D01*
X28954921Y15522718D01*
X28884377Y15328897D01*
X28851791Y15125248D01*
X27412573Y15125248D01*
X27412573Y16042667D01*
X27412572Y16042676D01*
X27410419Y16053499D01*
X27416745Y16124213D01*
X27425887Y16142800D01*
X27495925Y16259781D01*
X27566468Y16453598D01*
X27588911Y16593862D01*
X27619424Y16657966D01*
X27679751Y16695398D01*
X27750739Y16694272D01*
X27778051Y16682060D01*
X27919494Y16597378D01*
X28113228Y16526865D01*
X28316788Y16494293D01*
X28522849Y16500834D01*
X28522851Y16500834D01*
X28723943Y16546252D01*
X28723949Y16546254D01*
X28767080Y16563324D01*
X28767084Y16563326D01*
X29129540Y16732343D01*
X28466636Y18153944D01*
X28439031Y18213143D01*
X28999546Y18213143D01*
X29589944Y16947033D01*
X29952403Y17116048D01*
X29993201Y17138116D01*
X29993217Y17138126D01*
X30157264Y17262973D01*
X30294721Y17416614D01*
X30294723Y17416616D01*
X30400623Y17593498D01*
X30471135Y17787229D01*
X30503707Y17990786D01*
X30503707Y17990792D01*
X30497166Y18196850D01*
X30497166Y18196852D01*
X30451748Y18397944D01*
X30451746Y18397950D01*
X30434676Y18441081D01*
X30434674Y18441086D01*
X30265657Y18803542D01*
X28999546Y18213143D01*
X28439031Y18213143D01*
X28431798Y18228655D01*
X27734053Y19724970D01*
X27371596Y19555953D01*
X27330798Y19533885D01*
X27330782Y19533875D01*
X27166735Y19409028D01*
X27029278Y19255387D01*
X27029276Y19255385D01*
X26923376Y19078503D01*
X26852864Y18884772D01*
X26830482Y18744893D01*
X26799968Y18680789D01*
X26739640Y18643358D01*
X26668652Y18644485D01*
X26641343Y18656696D01*
X26499566Y18741578D01*
X26499565Y18741579D01*
X26499564Y18741579D01*
X26383890Y18783681D01*
X26305749Y18812121D01*
X26305748Y18812122D01*
X26305743Y18812123D01*
X26102090Y18844709D01*
X26102085Y18844709D01*
X25930291Y18839257D01*
X25895932Y18838166D01*
X25694746Y18792725D01*
X25651591Y18775647D01*
X24466190Y18222886D01*
X24425373Y18200807D01*
X24425369Y18200804D01*
X24261244Y18075899D01*
X24261242Y18075898D01*
X24261242Y18075897D01*
X24123718Y17922182D01*
X24123717Y17922180D01*
X24017768Y17745218D01*
X23947224Y17551398D01*
X23926720Y17423255D01*
X23896206Y17359151D01*
X23835878Y17321720D01*
X23764890Y17322847D01*
X23737582Y17335057D01*
X23615617Y17408078D01*
X23615616Y17408079D01*
X23615615Y17408079D01*
X23499941Y17450181D01*
X23421800Y17478621D01*
X23421799Y17478622D01*
X23421794Y17478623D01*
X23218141Y17511209D01*
X23218136Y17511209D01*
X23046342Y17505757D01*
X23011983Y17504666D01*
X22810797Y17459225D01*
X22767642Y17442147D01*
X21582241Y16889386D01*
X21541424Y16867307D01*
X21541420Y16867304D01*
X21377295Y16742399D01*
X21377293Y16742398D01*
X21377293Y16742397D01*
X21239769Y16588682D01*
X21239768Y16588680D01*
X21133819Y16411718D01*
X21063275Y16217898D01*
X21042771Y16089755D01*
X21012257Y16025651D01*
X20951929Y15988220D01*
X20880941Y15989347D01*
X20853633Y16001557D01*
X20731668Y16074578D01*
X20731667Y16074579D01*
X20731666Y16074579D01*
X20595296Y16124213D01*
X20537851Y16145121D01*
X20537850Y16145122D01*
X20537845Y16145123D01*
X20334192Y16177709D01*
X20334187Y16177709D01*
X20162393Y16172257D01*
X20128034Y16171166D01*
X19926848Y16125725D01*
X19883693Y16108647D01*
X18698292Y15555886D01*
X18657475Y15533807D01*
X18657471Y15533804D01*
X18493346Y15408899D01*
X18493344Y15408898D01*
X18493344Y15408897D01*
X18355820Y15255182D01*
X18355819Y15255180D01*
X18249870Y15078218D01*
X18179326Y14884398D01*
X18158737Y14755723D01*
X18128223Y14691619D01*
X18067895Y14654188D01*
X17996907Y14655315D01*
X17969597Y14667526D01*
X17847505Y14740623D01*
X17653771Y14811136D01*
X17450211Y14843708D01*
X17244150Y14837167D01*
X17244148Y14837167D01*
X17043056Y14791749D01*
X17043050Y14791747D01*
X16999942Y14774686D01*
X16999905Y14774670D01*
X16637458Y14605659D01*
X17335202Y13109345D01*
X18032944Y11613033D01*
X18395403Y11782048D01*
X18436201Y11804116D01*
X18436217Y11804126D01*
X18600264Y11928973D01*
X18737721Y12082614D01*
X18737723Y12082616D01*
X18843623Y12259498D01*
X18914135Y12453230D01*
X18934663Y12581522D01*
X18947668Y12608846D01*
X18958260Y12637187D01*
X18962760Y12640552D01*
X18965176Y12645627D01*
X18990891Y12661583D01*
X19015123Y12679698D01*
X19020728Y12680096D01*
X19025504Y12683058D01*
X19055761Y12682579D01*
X19085942Y12684717D01*
X19092826Y12681991D01*
X19096492Y12681932D01*
X19119536Y12672163D01*
X19121688Y12670986D01*
X19246230Y12596422D01*
X19281524Y12583576D01*
X19289905Y12578993D01*
X19308512Y12560362D01*
X19329713Y12544753D01*
X19333189Y12535653D01*
X19340075Y12528759D01*
X19345655Y12503027D01*
X19355052Y12478433D01*
X19355449Y12468444D01*
X19355449Y12353544D01*
X19335447Y12285423D01*
X19318544Y12264449D01*
X17888524Y10834430D01*
X17826212Y10800404D01*
X17764282Y10802526D01*
X17753829Y10805563D01*
X17716511Y10808500D01*
X17716502Y10808500D01*
X17023858Y10808500D01*
X16992895Y10817592D01*
X16961509Y10825008D01*
X16959086Y10827519D01*
X16955737Y10828502D01*
X16934602Y10852893D01*
X16912211Y10876098D01*
X16910642Y10880545D01*
X16909244Y10882158D01*
X16900279Y10909918D01*
X16898636Y10918177D01*
X16878147Y11021183D01*
X16884475Y11091894D01*
X16928029Y11147961D01*
X16973967Y11168666D01*
X17166943Y11212252D01*
X17166949Y11212254D01*
X17210080Y11229324D01*
X17210084Y11229326D01*
X17572540Y11398343D01*
X16982141Y12664454D01*
X15716030Y12074055D01*
X15814983Y11861852D01*
X15825644Y11791660D01*
X15796664Y11726848D01*
X15737244Y11687991D01*
X15731391Y11686528D01*
X15728448Y11685635D01*
X15563111Y11617150D01*
X15414317Y11517729D01*
X15414310Y11517724D01*
X15287772Y11391186D01*
X15287770Y11391183D01*
X15188346Y11242384D01*
X15184613Y11233371D01*
X15119862Y11077052D01*
X15086617Y10909918D01*
X15053709Y10847009D01*
X14992014Y10811877D01*
X14963038Y10808500D01*
X13983489Y10808500D01*
X13946171Y10805563D01*
X13946170Y10805563D01*
X13786394Y10759144D01*
X13643196Y10674456D01*
X13643189Y10674451D01*
X13525549Y10556811D01*
X13525544Y10556804D01*
X13440856Y10413606D01*
X13394437Y10253830D01*
X13394437Y10253829D01*
X13391500Y10216512D01*
X13391500Y9783489D01*
X13394437Y9746172D01*
X13394437Y9746171D01*
X13440856Y9586395D01*
X13525544Y9443197D01*
X13525549Y9443190D01*
X13643189Y9325550D01*
X13643196Y9325545D01*
X13786394Y9240857D01*
X13786397Y9240857D01*
X13786399Y9240855D01*
X13946169Y9194438D01*
X13983488Y9191501D01*
X13983489Y9191500D01*
X13983498Y9191500D01*
X15416511Y9191500D01*
X15416511Y9191501D01*
X15453831Y9194438D01*
X15530351Y9216669D01*
X15557024Y9216594D01*
X15583432Y9220390D01*
X15591963Y9216494D01*
X15601342Y9216467D01*
X15623746Y9201979D01*
X15648012Y9190896D01*
X15653082Y9183008D01*
X15660959Y9177913D01*
X15671973Y9153612D01*
X15686396Y9131170D01*
X15688371Y9117434D01*
X15690268Y9113248D01*
X15691500Y9095672D01*
X15691500Y9004329D01*
X15671498Y8936208D01*
X15617842Y8889715D01*
X15547568Y8879611D01*
X15530350Y8883332D01*
X15500028Y8892141D01*
X15453829Y8905563D01*
X15416511Y8908500D01*
X15416502Y8908500D01*
X13983498Y8908500D01*
X13983489Y8908500D01*
X13946171Y8905563D01*
X13946170Y8905563D01*
X13786394Y8859144D01*
X13643196Y8774456D01*
X13643189Y8774451D01*
X13639144Y8770405D01*
X13576832Y8736379D01*
X13550049Y8733500D01*
X13214594Y8733500D01*
X13146473Y8753502D01*
X13125499Y8770405D01*
X12745404Y9150500D01*
X12711378Y9212812D01*
X12708499Y9239595D01*
X12708499Y9900545D01*
X12707291Y9912365D01*
X12697887Y10004426D01*
X12697886Y10004430D01*
X12697886Y10004432D01*
X12644269Y10166237D01*
X12641828Y10237192D01*
X12652752Y10265269D01*
X12655096Y10269657D01*
X12655102Y10269664D01*
X12723587Y10435000D01*
X12758500Y10610521D01*
X12758500Y10789479D01*
X12723587Y10965000D01*
X12655102Y11130336D01*
X12555678Y11279135D01*
X12429135Y11405678D01*
X12280336Y11505102D01*
X12149069Y11559475D01*
X12115003Y11573586D01*
X12115001Y11573587D01*
X12115000Y11573587D01*
X12026645Y11591162D01*
X11939481Y11608500D01*
X11939479Y11608500D01*
X11760521Y11608500D01*
X11760518Y11608500D01*
X11629771Y11582493D01*
X11585000Y11573587D01*
X11584999Y11573587D01*
X11584996Y11573586D01*
X11419662Y11505101D01*
X11270869Y11405681D01*
X11270862Y11405676D01*
X11144324Y11279138D01*
X11144319Y11279131D01*
X11044899Y11130338D01*
X10976414Y10965004D01*
X10941500Y10789482D01*
X10941500Y10704091D01*
X10921498Y10635970D01*
X10867842Y10589477D01*
X10855140Y10584489D01*
X10782360Y10560373D01*
X10727261Y10542115D01*
X10576347Y10449030D01*
X10576341Y10449025D01*
X10450975Y10323659D01*
X10450970Y10323653D01*
X10357885Y10172738D01*
X10302113Y10004428D01*
X10302112Y10004421D01*
X10291500Y9900554D01*
X10291500Y9099456D01*
X10302112Y8995575D01*
X10357885Y8827262D01*
X10450970Y8676348D01*
X10450975Y8676342D01*
X10538222Y8589095D01*
X10572248Y8526783D01*
X10567183Y8455968D01*
X10538222Y8410905D01*
X10450975Y8323659D01*
X10450970Y8323653D01*
X10357883Y8172735D01*
X10336172Y8107214D01*
X10295758Y8048842D01*
X10230202Y8021587D01*
X10160317Y8034100D01*
X10108291Y8082410D01*
X10096963Y8107214D01*
X10083449Y8147998D01*
X10042115Y8272738D01*
X9949030Y8423652D01*
X9949029Y8423653D01*
X9949024Y8423659D01*
X9823658Y8549025D01*
X9823652Y8549030D01*
X9773886Y8579726D01*
X9672738Y8642115D01*
X9672734Y8642117D01*
X9672733Y8642117D01*
X9666086Y8645217D01*
X9666807Y8646764D01*
X9615870Y8682032D01*
X9597468Y8713001D01*
X9561401Y8800075D01*
X9492072Y8903833D01*
X9445405Y8950500D01*
X9411379Y9012812D01*
X9408500Y9039595D01*
X9408500Y9089478D01*
X9408499Y9089482D01*
X9395743Y9153612D01*
X9373587Y9265000D01*
X9305102Y9430336D01*
X9205678Y9579135D01*
X9079135Y9705678D01*
X8930336Y9805102D01*
X8813429Y9853527D01*
X8765003Y9873586D01*
X8765001Y9873587D01*
X8765000Y9873587D01*
X8640256Y9898400D01*
X8589481Y9908500D01*
X8589479Y9908500D01*
X8410521Y9908500D01*
X8410518Y9908500D01*
X8279771Y9882493D01*
X8235000Y9873587D01*
X8234999Y9873587D01*
X8234996Y9873586D01*
X8069662Y9805101D01*
X7920869Y9705681D01*
X7920862Y9705676D01*
X7794324Y9579138D01*
X7794319Y9579131D01*
X7694899Y9430338D01*
X7626414Y9265004D01*
X7591500Y9089482D01*
X7591500Y8910516D01*
X7603208Y8851658D01*
X7596880Y8780944D01*
X7553325Y8724877D01*
X7486373Y8701258D01*
X7466823Y8701729D01*
X7400545Y8708500D01*
X6599455Y8708500D01*
X6495574Y8697888D01*
X6327261Y8642115D01*
X6176347Y8549030D01*
X6176341Y8549025D01*
X6050975Y8423659D01*
X6050970Y8423653D01*
X5957883Y8272735D01*
X5920802Y8160831D01*
X5880388Y8102459D01*
X5849418Y8084056D01*
X5794729Y8061403D01*
X5794726Y8061401D01*
X5690971Y7992074D01*
X5690969Y7992073D01*
X5349499Y7650604D01*
X5287187Y7616579D01*
X5260404Y7613700D01*
X4599455Y7613700D01*
X4495574Y7603088D01*
X4327261Y7547315D01*
X4176347Y7454230D01*
X4176341Y7454225D01*
X4088741Y7366624D01*
X4026429Y7332598D01*
X3955614Y7337663D01*
X3910551Y7366624D01*
X3823345Y7453830D01*
X3823339Y7453835D01*
X3672525Y7546858D01*
X3504321Y7602594D01*
X3504318Y7602595D01*
X3400516Y7613200D01*
X3254000Y7613200D01*
X3254000Y6531200D01*
X3233998Y6463079D01*
X3180342Y6416586D01*
X3128000Y6405200D01*
X3000000Y6405200D01*
X3000000Y6277200D01*
X2979998Y6209079D01*
X2926342Y6162586D01*
X2874000Y6151200D01*
X1892000Y6151200D01*
X1892000Y5904684D01*
X1902605Y5800882D01*
X1902606Y5800879D01*
X1958342Y5632675D01*
X2054581Y5476647D01*
X2073318Y5408167D01*
X2052059Y5340428D01*
X1997551Y5294937D01*
X1947340Y5284500D01*
X1803526Y5284500D01*
X1757201Y5281741D01*
X1555660Y5237899D01*
X1366060Y5156707D01*
X1366057Y5156705D01*
X1195246Y5041098D01*
X1195240Y5041093D01*
X1049407Y4895260D01*
X1049402Y4895254D01*
X933795Y4724443D01*
X933793Y4724440D01*
X852601Y4534840D01*
X808759Y4333299D01*
X806000Y4286974D01*
X806000Y998027D01*
X808759Y951702D01*
X852601Y750161D01*
X852602Y750159D01*
X933795Y560557D01*
X1049184Y390069D01*
X1049402Y389747D01*
X1049407Y389741D01*
X1195240Y243908D01*
X1195246Y243903D01*
X1195247Y243902D01*
X1214536Y230847D01*
X1259739Y176100D01*
X1268167Y105605D01*
X1237146Y41745D01*
X1176523Y4793D01*
X1143912Y500D01*
X126500Y500D01*
X58379Y20502D01*
X11886Y74158D01*
X500Y126500D01*
X500Y6905717D01*
X1892000Y6905717D01*
X1892000Y6659200D01*
X2746000Y6659200D01*
X2746000Y7613200D01*
X2599483Y7613200D01*
X2495681Y7602595D01*
X2495678Y7602594D01*
X2327474Y7546858D01*
X2176660Y7453835D01*
X2176654Y7453830D01*
X2051370Y7328546D01*
X2051365Y7328540D01*
X1958342Y7177726D01*
X1902606Y7009522D01*
X1902605Y7009519D01*
X1892000Y6905717D01*
X500Y6905717D01*
X500Y6920013D01*
X20502Y6988134D01*
X72475Y7033843D01*
X13375652Y13347215D01*
X15263292Y13347215D01*
X15263292Y13347209D01*
X15269833Y13141151D01*
X15269833Y13141149D01*
X15315251Y12940057D01*
X15315253Y12940051D01*
X15332323Y12896920D01*
X15332325Y12896915D01*
X15501340Y12534461D01*
X16767452Y13124859D01*
X16177053Y14390970D01*
X15814596Y14221953D01*
X15773798Y14199885D01*
X15773782Y14199875D01*
X15609735Y14075028D01*
X15472278Y13921387D01*
X15472276Y13921385D01*
X15366376Y13744503D01*
X15295864Y13550772D01*
X15263292Y13347215D01*
X13375652Y13347215D01*
X27266874Y19939659D01*
X28194458Y19939659D01*
X28784856Y18673549D01*
X30050968Y19263947D01*
X29881952Y19626404D01*
X29859884Y19667202D01*
X29859874Y19667218D01*
X29735027Y19831265D01*
X29581386Y19968722D01*
X29581384Y19968724D01*
X29404502Y20074624D01*
X29210771Y20145136D01*
X29007211Y20177708D01*
X28801150Y20171167D01*
X28801148Y20171167D01*
X28600056Y20125749D01*
X28600050Y20125747D01*
X28556942Y20108686D01*
X28556905Y20108670D01*
X28194458Y19939659D01*
X27266874Y19939659D01*
X29396546Y20950351D01*
X29466662Y20961486D01*
X29531669Y20932945D01*
G37*
%TD.AperFunction*%
%TA.AperFunction,Conductor*%
G36*
X13566795Y7461583D02*
G01*
X13584250Y7461770D01*
X13617030Y7447222D01*
X13629082Y7439658D01*
X13643193Y7425547D01*
X13786399Y7340855D01*
X13786598Y7340797D01*
X13789669Y7338870D01*
X13812148Y7313482D01*
X13835280Y7288708D01*
X13835589Y7287008D01*
X13836734Y7285715D01*
X13841916Y7252225D01*
X13847985Y7218858D01*
X13847325Y7217261D01*
X13847590Y7215554D01*
X13833839Y7184570D01*
X13820909Y7153227D01*
X13819491Y7152240D01*
X13818791Y7150661D01*
X13790460Y7132022D01*
X13762649Y7112653D01*
X13760923Y7112589D01*
X13759480Y7111639D01*
X13753177Y7110054D01*
X13750219Y7109157D01*
X13634923Y7061399D01*
X13531171Y6992074D01*
X13531164Y6992069D01*
X11549068Y5009974D01*
X11486756Y4975948D01*
X11415940Y4981013D01*
X11370878Y5009974D01*
X11339759Y5041093D01*
X11339753Y5041098D01*
X11295658Y5070942D01*
X11168943Y5156705D01*
X11168940Y5156707D01*
X11168939Y5156707D01*
X10979339Y5237899D01*
X10777798Y5281741D01*
X10731473Y5284500D01*
X10731470Y5284500D01*
X9423530Y5284500D01*
X9423526Y5284500D01*
X9377201Y5281741D01*
X9175660Y5237899D01*
X8986060Y5156707D01*
X8986057Y5156705D01*
X8815246Y5041098D01*
X8815240Y5041093D01*
X8669407Y4895260D01*
X8669402Y4895254D01*
X8553795Y4724443D01*
X8553793Y4724440D01*
X8472601Y4534840D01*
X8428759Y4333299D01*
X8426000Y4286974D01*
X8426000Y998027D01*
X8428759Y951702D01*
X8472601Y750161D01*
X8472602Y750159D01*
X8553795Y560557D01*
X8669184Y390069D01*
X8669402Y389747D01*
X8669407Y389741D01*
X8815240Y243908D01*
X8815246Y243903D01*
X8815247Y243902D01*
X8834536Y230847D01*
X8879739Y176100D01*
X8888167Y105605D01*
X8857146Y41745D01*
X8796523Y4793D01*
X8763912Y500D01*
X7580195Y500D01*
X7512074Y20502D01*
X7465581Y74158D01*
X7455477Y144432D01*
X7484971Y209012D01*
X7509572Y230848D01*
X7529433Y244291D01*
X7529437Y244294D01*
X7675206Y390063D01*
X7675211Y390069D01*
X7790763Y560799D01*
X7790765Y560802D01*
X7871918Y750310D01*
X7915740Y951762D01*
X7918499Y998074D01*
X7918500Y998094D01*
X7918500Y2388500D01*
X4616500Y2388500D01*
X4616500Y998074D01*
X4619259Y951762D01*
X4663081Y750310D01*
X4744234Y560802D01*
X4744236Y560799D01*
X4859788Y390069D01*
X4859793Y390063D01*
X5005562Y244294D01*
X5005566Y244291D01*
X5025428Y230848D01*
X5070631Y176101D01*
X5079061Y105607D01*
X5048040Y41746D01*
X4987418Y4794D01*
X4954805Y500D01*
X3771088Y500D01*
X3702967Y20502D01*
X3656474Y74158D01*
X3646370Y144432D01*
X3675864Y209012D01*
X3700464Y230847D01*
X3719753Y243902D01*
X3865598Y389747D01*
X3981205Y560557D01*
X4062398Y750159D01*
X4106240Y951700D01*
X4109000Y998030D01*
X4109000Y3345906D01*
X4129002Y3414027D01*
X4145905Y3435001D01*
X4401405Y3690501D01*
X4463717Y3724527D01*
X4534532Y3719462D01*
X4591368Y3676915D01*
X4616179Y3610395D01*
X4616500Y3601406D01*
X4616500Y2896500D01*
X6013500Y2896500D01*
X6521500Y2896500D01*
X7918500Y2896500D01*
X7918500Y4286907D01*
X7918499Y4286927D01*
X7915740Y4333239D01*
X7871918Y4534691D01*
X7790765Y4724199D01*
X7790763Y4724202D01*
X7675211Y4894932D01*
X7675206Y4894938D01*
X7529437Y5040707D01*
X7529431Y5040712D01*
X7358701Y5156264D01*
X7358698Y5156266D01*
X7169190Y5237419D01*
X6967738Y5281241D01*
X6921426Y5284000D01*
X6521500Y5284000D01*
X6521500Y2896500D01*
X6013500Y2896500D01*
X6013500Y5278043D01*
X5971186Y5314123D01*
X5956226Y5336999D01*
X5938325Y5357658D01*
X5937087Y5366266D01*
X5932329Y5373542D01*
X5932111Y5400871D01*
X5928221Y5427932D01*
X5931818Y5437856D01*
X5931765Y5444536D01*
X5937574Y5453736D01*
X5945698Y5476147D01*
X5949028Y5481547D01*
X5949030Y5481548D01*
X6042115Y5632462D01*
X6097887Y5800774D01*
X6108500Y5904655D01*
X6108499Y6267064D01*
X6128501Y6335182D01*
X6182156Y6381675D01*
X6252430Y6391780D01*
X6300644Y6374303D01*
X6327262Y6357885D01*
X6495574Y6302113D01*
X6599455Y6291500D01*
X7400544Y6291501D01*
X7504426Y6302113D01*
X7672738Y6357885D01*
X7823652Y6450970D01*
X7835761Y6463079D01*
X7910905Y6538222D01*
X7973217Y6572248D01*
X8044032Y6567183D01*
X8089095Y6538222D01*
X8176341Y6450976D01*
X8176347Y6450971D01*
X8176348Y6450970D01*
X8327262Y6357885D01*
X8495574Y6302113D01*
X8599455Y6291500D01*
X9400544Y6291501D01*
X9504426Y6302113D01*
X9672738Y6357885D01*
X9823652Y6450970D01*
X9949030Y6576348D01*
X9965110Y6602418D01*
X10017893Y6649893D01*
X10087967Y6661297D01*
X10153083Y6633005D01*
X10188757Y6584488D01*
X10194895Y6569670D01*
X10194897Y6569665D01*
X10207385Y6550976D01*
X10294322Y6420865D01*
X10420865Y6294322D01*
X10569664Y6194898D01*
X10735000Y6126413D01*
X10910521Y6091500D01*
X10910522Y6091500D01*
X11089478Y6091500D01*
X11089479Y6091500D01*
X11265000Y6126413D01*
X11430336Y6194898D01*
X11579135Y6294322D01*
X11639408Y6354597D01*
X11701720Y6388621D01*
X11728504Y6391501D01*
X12000544Y6391501D01*
X12104426Y6402113D01*
X12272738Y6457885D01*
X12423652Y6550970D01*
X12549030Y6676348D01*
X12642115Y6827262D01*
X12697887Y6995574D01*
X12708500Y7099455D01*
X12708499Y7340501D01*
X12728501Y7408620D01*
X12782156Y7455113D01*
X12834499Y7466500D01*
X12837606Y7466500D01*
X13550049Y7466500D01*
X13566795Y7461583D01*
G37*
%TD.AperFunction*%
%TA.AperFunction,Conductor*%
G36*
X21888882Y5846498D02*
G01*
X21935375Y5792842D01*
X21940365Y5780133D01*
X21957883Y5727266D01*
X21957884Y5727264D01*
X21957885Y5727262D01*
X22050970Y5576348D01*
X22050975Y5576342D01*
X22127722Y5499595D01*
X22161748Y5437283D01*
X22156683Y5366468D01*
X22114136Y5309632D01*
X22047616Y5284821D01*
X22038627Y5284500D01*
X20853526Y5284500D01*
X20807201Y5281741D01*
X20605660Y5237899D01*
X20416060Y5156707D01*
X20416057Y5156705D01*
X20245246Y5041098D01*
X20245240Y5041093D01*
X20099407Y4895260D01*
X20099402Y4895254D01*
X19983795Y4724443D01*
X19983793Y4724440D01*
X19902601Y4534840D01*
X19858759Y4333299D01*
X19856000Y4286974D01*
X19856000Y998027D01*
X19858759Y951702D01*
X19902601Y750161D01*
X19902602Y750159D01*
X19983795Y560557D01*
X20099184Y390069D01*
X20099402Y389747D01*
X20099407Y389741D01*
X20245240Y243908D01*
X20245246Y243903D01*
X20245247Y243902D01*
X20264536Y230847D01*
X20309739Y176100D01*
X20318167Y105605D01*
X20287146Y41745D01*
X20226523Y4793D01*
X20193912Y500D01*
X19011088Y500D01*
X18942967Y20502D01*
X18896474Y74158D01*
X18886370Y144432D01*
X18915864Y209012D01*
X18940464Y230847D01*
X18959753Y243902D01*
X19105598Y389747D01*
X19221205Y560557D01*
X19302398Y750159D01*
X19346240Y951700D01*
X19349000Y998030D01*
X19349000Y4286970D01*
X19346240Y4333300D01*
X19302398Y4534841D01*
X19221205Y4724443D01*
X19105598Y4895253D01*
X19105597Y4895254D01*
X19105592Y4895260D01*
X18959759Y5041093D01*
X18959753Y5041098D01*
X18915658Y5070942D01*
X18788943Y5156705D01*
X18788940Y5156707D01*
X18788939Y5156707D01*
X18599339Y5237899D01*
X18397798Y5281741D01*
X18351473Y5284500D01*
X18351470Y5284500D01*
X17043530Y5284500D01*
X17043526Y5284500D01*
X16997201Y5281741D01*
X16795660Y5237899D01*
X16606060Y5156707D01*
X16606057Y5156705D01*
X16435246Y5041098D01*
X16435240Y5041093D01*
X16289407Y4895260D01*
X16289402Y4895254D01*
X16173795Y4724443D01*
X16173793Y4724440D01*
X16092601Y4534840D01*
X16048759Y4333299D01*
X16046000Y4286974D01*
X16046000Y998027D01*
X16048759Y951702D01*
X16092601Y750161D01*
X16092602Y750159D01*
X16173795Y560557D01*
X16289184Y390069D01*
X16289402Y389747D01*
X16289407Y389741D01*
X16435240Y243908D01*
X16435246Y243903D01*
X16435247Y243902D01*
X16454536Y230847D01*
X16499739Y176100D01*
X16508167Y105605D01*
X16477146Y41745D01*
X16416523Y4793D01*
X16383912Y500D01*
X15200195Y500D01*
X15132074Y20502D01*
X15085581Y74158D01*
X15075477Y144432D01*
X15104971Y209012D01*
X15129572Y230848D01*
X15149433Y244291D01*
X15149437Y244294D01*
X15295206Y390063D01*
X15295211Y390069D01*
X15410763Y560799D01*
X15410765Y560802D01*
X15491918Y750310D01*
X15535740Y951762D01*
X15538499Y998074D01*
X15538500Y998094D01*
X15538500Y2388500D01*
X12236500Y2388500D01*
X12236500Y998074D01*
X12239259Y951762D01*
X12283081Y750310D01*
X12364234Y560802D01*
X12364236Y560799D01*
X12479788Y390069D01*
X12479793Y390063D01*
X12625562Y244294D01*
X12625566Y244291D01*
X12645428Y230848D01*
X12690631Y176101D01*
X12699061Y105607D01*
X12668040Y41746D01*
X12607418Y4794D01*
X12574805Y500D01*
X11391088Y500D01*
X11322967Y20502D01*
X11276474Y74158D01*
X11266370Y144432D01*
X11295864Y209012D01*
X11320464Y230847D01*
X11339753Y243902D01*
X11485598Y389747D01*
X11601205Y560557D01*
X11682398Y750159D01*
X11726240Y951700D01*
X11729000Y998030D01*
X11729000Y3345906D01*
X11749002Y3414027D01*
X11765905Y3435001D01*
X12021405Y3690501D01*
X12083717Y3724527D01*
X12154532Y3719462D01*
X12211368Y3676915D01*
X12236179Y3610395D01*
X12236500Y3601406D01*
X12236500Y2896500D01*
X13633500Y2896500D01*
X14141500Y2896500D01*
X15538500Y2896500D01*
X15538500Y4286907D01*
X15538499Y4286927D01*
X15535740Y4333239D01*
X15491918Y4534691D01*
X15410765Y4724199D01*
X15410763Y4724202D01*
X15295211Y4894932D01*
X15295206Y4894938D01*
X15149437Y5040707D01*
X15149431Y5040712D01*
X14978701Y5156264D01*
X14978698Y5156266D01*
X14789190Y5237419D01*
X14587738Y5281241D01*
X14541426Y5284000D01*
X14141500Y5284000D01*
X14141500Y2896500D01*
X13633500Y2896500D01*
X13633500Y5250406D01*
X13642283Y5280322D01*
X13648912Y5310791D01*
X13652726Y5315887D01*
X13653502Y5318527D01*
X13670405Y5339501D01*
X14160499Y5829595D01*
X14222811Y5863621D01*
X14249594Y5866500D01*
X21820761Y5866500D01*
X21888882Y5846498D01*
G37*
%TD.AperFunction*%
%TA.AperFunction,Conductor*%
G36*
X24017247Y5569099D02*
G01*
X24044032Y5567183D01*
X24053230Y5561272D01*
X24060385Y5559715D01*
X24089095Y5538222D01*
X24176341Y5450976D01*
X24176347Y5450971D01*
X24176348Y5450970D01*
X24271628Y5392201D01*
X24319105Y5339416D01*
X24330508Y5269341D01*
X24302216Y5204226D01*
X24255082Y5169135D01*
X24226062Y5156708D01*
X24226057Y5156705D01*
X24055246Y5041098D01*
X24055240Y5041093D01*
X23909407Y4895260D01*
X23909402Y4895254D01*
X23793795Y4724443D01*
X23793793Y4724440D01*
X23712601Y4534840D01*
X23668759Y4333299D01*
X23666000Y4286974D01*
X23666000Y998027D01*
X23668759Y951702D01*
X23712601Y750161D01*
X23712602Y750159D01*
X23793795Y560557D01*
X23909184Y390069D01*
X23909402Y389747D01*
X23909407Y389741D01*
X24055240Y243908D01*
X24055246Y243903D01*
X24055247Y243902D01*
X24074536Y230847D01*
X24119739Y176100D01*
X24128167Y105605D01*
X24097146Y41745D01*
X24036523Y4793D01*
X24003912Y500D01*
X22821088Y500D01*
X22752967Y20502D01*
X22706474Y74158D01*
X22696370Y144432D01*
X22725864Y209012D01*
X22750464Y230847D01*
X22769753Y243902D01*
X22915598Y389747D01*
X23031205Y560557D01*
X23112398Y750159D01*
X23156240Y951700D01*
X23159000Y998030D01*
X23159000Y4286970D01*
X23156240Y4333300D01*
X23112398Y4534841D01*
X23031205Y4724443D01*
X22915598Y4895253D01*
X22915597Y4895254D01*
X22915592Y4895260D01*
X22769759Y5041093D01*
X22769753Y5041098D01*
X22740120Y5061154D01*
X22694917Y5115901D01*
X22686489Y5186396D01*
X22717510Y5250256D01*
X22778133Y5287208D01*
X22810738Y5291501D01*
X23400544Y5291501D01*
X23504426Y5302113D01*
X23672738Y5357885D01*
X23823652Y5450970D01*
X23865694Y5493012D01*
X23910905Y5538222D01*
X23918977Y5542631D01*
X23924491Y5549995D01*
X23949649Y5559379D01*
X23973217Y5572248D01*
X23982393Y5571592D01*
X23991011Y5574806D01*
X24017247Y5569099D01*
G37*
%TD.AperFunction*%
%TA.AperFunction,Conductor*%
G36*
X22343859Y9592374D02*
G01*
X22397881Y9546308D01*
X22418423Y9478348D01*
X22418427Y9477349D01*
X22418427Y8385677D01*
X22427926Y8337922D01*
X22442772Y8263288D01*
X22490527Y8147998D01*
X22559856Y8044240D01*
X22559858Y8044238D01*
X22680736Y7923360D01*
X22714762Y7861048D01*
X22709697Y7790233D01*
X22667150Y7733397D01*
X22602596Y7709320D01*
X22602647Y7708825D01*
X22600751Y7708632D01*
X22600630Y7708586D01*
X22599819Y7708537D01*
X22495574Y7697888D01*
X22327261Y7642115D01*
X22176347Y7549030D01*
X22176341Y7549025D01*
X22050975Y7423659D01*
X22050970Y7423653D01*
X21957883Y7272735D01*
X21940365Y7219867D01*
X21899951Y7161496D01*
X21834395Y7134240D01*
X21820761Y7133500D01*
X19141970Y7133500D01*
X19073849Y7153502D01*
X19027356Y7207158D01*
X19017252Y7277432D01*
X19046746Y7342012D01*
X19052875Y7348595D01*
X19627640Y7923360D01*
X20241998Y8537718D01*
X20292520Y8613329D01*
X20344032Y8657522D01*
X20873005Y8904184D01*
X20944210Y8944588D01*
X20944211Y8944590D01*
X20944215Y8944592D01*
X20965387Y8963876D01*
X21013775Y8991336D01*
X21144897Y9030969D01*
X22051205Y9453587D01*
X22115228Y9489208D01*
X22209162Y9571917D01*
X22273507Y9601920D01*
X22343859Y9592374D01*
G37*
%TD.AperFunction*%
%TA.AperFunction,Conductor*%
G36*
X24300144Y14434892D02*
G01*
X24310386Y14425710D01*
X25090908Y13645188D01*
X25124934Y13582876D01*
X25119869Y13512061D01*
X25116841Y13504667D01*
X25115035Y13500628D01*
X25074972Y13360069D01*
X25075805Y13254950D01*
X25056343Y13186673D01*
X25003057Y13139757D01*
X24932866Y13129096D01*
X24868053Y13158077D01*
X24855241Y13170688D01*
X24835446Y13193170D01*
X24835447Y13193170D01*
X24711868Y13271211D01*
X24711867Y13271212D01*
X24711866Y13271212D01*
X24571307Y13311275D01*
X24571306Y13311275D01*
X24425158Y13310117D01*
X24425156Y13310117D01*
X24285250Y13267828D01*
X23378941Y12845210D01*
X23322180Y12814251D01*
X23322175Y12814247D01*
X23286090Y12783536D01*
X23240885Y12758880D01*
X23107058Y12718428D01*
X23107046Y12718424D01*
X22064782Y12232407D01*
X22064777Y12232404D01*
X22000775Y12196795D01*
X22000773Y12196794D01*
X21891078Y12100209D01*
X21891077Y12100209D01*
X21813036Y11976630D01*
X21813034Y11976624D01*
X21772972Y11836069D01*
X21773805Y11730950D01*
X21754343Y11662673D01*
X21701057Y11615757D01*
X21630866Y11605096D01*
X21576544Y11626042D01*
X21563607Y11634915D01*
X21533445Y11669171D01*
X21409866Y11747212D01*
X21392758Y11752089D01*
X21375801Y11763718D01*
X21369017Y11772037D01*
X21357971Y11778533D01*
X20659354Y12477150D01*
X20625328Y12539462D01*
X20622449Y12566245D01*
X20622449Y12728407D01*
X20642451Y12796528D01*
X20695199Y12842602D01*
X20813855Y12897932D01*
X21279601Y13115112D01*
X21320424Y13137194D01*
X21484554Y13262103D01*
X21622078Y13415818D01*
X21728027Y13592781D01*
X21798570Y13786598D01*
X21805001Y13826791D01*
X21819075Y13914745D01*
X21849588Y13978850D01*
X21909916Y14016281D01*
X21980904Y14015155D01*
X22008210Y14002946D01*
X22130179Y13929922D01*
X22323996Y13859379D01*
X22324000Y13859379D01*
X22324001Y13859378D01*
X22527654Y13826792D01*
X22527660Y13826791D01*
X22733812Y13833334D01*
X22934998Y13878775D01*
X22978154Y13895853D01*
X24163550Y14448612D01*
X24163588Y14448633D01*
X24164652Y14449167D01*
X24164794Y14449193D01*
X24165249Y14449405D01*
X24165304Y14449287D01*
X24234494Y14461921D01*
X24300144Y14434892D01*
G37*
%TD.AperFunction*%
%TD*%
M02*
